<svg width="282" height="36" viewBox="0 0 282 36" fill="none" xmlns="http://www.w3.org/2000/svg">
<path d="M1.36441 1H1V16H1.36441V1Z" fill="#191C1B"/>
<path d="M1.59399 1H1.22958V16H1.59399V1Z" fill="#1F2924"/>
<path d="M1.82358 1H1.45917V16H1.82358V1Z" fill="#1B211E"/>
<path d="M2.05316 1H1.68875V16H2.05316V1Z" fill="#161616"/>
<path d="M2.28274 1H1.91833V16H2.28274V1Z" fill="#161616"/>
<path d="M2.51233 1H2.14792V16H2.51233V1Z" fill="#161616"/>
<path d="M2.74191 1H2.3775V16H2.74191V1Z" fill="#191C1B"/>
<path d="M2.97149 1H2.60709V16H2.97149V1Z" fill="#212D28"/>
<path d="M3.20111 1H2.8367V16H3.20111V1Z" fill="#1D2421"/>
<path d="M3.43069 1H3.06628V16H3.43069V1Z" fill="#222F29"/>
<path d="M3.66028 1H3.29587V16H3.66028V1Z" fill="#1B211E"/>
<path d="M3.88986 1H3.52545V16H3.88986V1Z" fill="#191C1B"/>
<path d="M4.11944 1H3.75504V16H4.11944V1Z" fill="#202A26"/>
<path d="M4.34903 1H3.98462V16H4.34903V1Z" fill="#212D28"/>
<path d="M4.57861 1H4.2142V16H4.57861V1Z" fill="#273831"/>
<path d="M4.80819 1H4.44379V16H4.80819V1Z" fill="#1A1E1C"/>
<path d="M5.03778 1H4.67337V16H5.03778V1Z" fill="#1E2723"/>
<path d="M5.26736 1H4.90295V16H5.26736V1Z" fill="#181918"/>
<path d="M5.49695 1H5.13254V16H5.49695V1Z" fill="#1E2522"/>
<path d="M5.72653 1H5.36212V16H5.72653V1Z" fill="#181918"/>
<path d="M5.95611 1H5.59171V16H5.95611V1Z" fill="#171817"/>
<path d="M6.1857 1H5.82129V16H6.1857V1Z" fill="#273831"/>
<path d="M6.41531 1H6.0509V16H6.41531V1Z" fill="#212D28"/>
<path d="M6.64489 1H6.28049V16H6.64489V1Z" fill="#1B1F1D"/>
<path d="M6.87448 1H6.51007V16H6.87448V1Z" fill="#2A3E35"/>
<path d="M7.10406 1H6.73965V16H7.10406V1Z" fill="#212C27"/>
<path d="M7.33365 1H6.96924V16H7.33365V1Z" fill="#1C2220"/>
<path d="M7.56323 1H7.19882V16H7.56323V1Z" fill="#1B1F1D"/>
<path d="M7.79281 1H7.42841V16H7.79281V1Z" fill="#1F2924"/>
<path d="M8.0224 1H7.65799V16H8.0224V1Z" fill="#1B211E"/>
<path d="M8.25198 1H7.88757V16H8.25198V1Z" fill="#1A1E1C"/>
<path d="M8.48156 1H8.11716V16H8.48156V1Z" fill="#181B1A"/>
<path d="M8.71115 1H8.34674V16H8.71115V1Z" fill="#181918"/>
<path d="M8.94073 1H8.57632V16H8.94073V1Z" fill="#1A1E1C"/>
<path d="M9.17032 1H8.80591V16H9.17032V1Z" fill="#273831"/>
<path d="M9.3999 1H9.03549V16H9.3999V1Z" fill="#355547"/>
<path d="M9.62951 1H9.26511V16H9.62951V1Z" fill="#1C2220"/>
<path d="M9.8591 1H9.49469V16H9.8591V1Z" fill="#1F2924"/>
<path d="M10.0887 1H9.72427V16H10.0887V1Z" fill="#395F4F"/>
<path d="M10.3183 1H9.95386V16H10.3183V1Z" fill="#1D2421"/>
<path d="M10.5478 1H10.1834V16H10.5478V1Z" fill="#1B211E"/>
<path d="M10.7774 1H10.413V16H10.7774V1Z" fill="#1D2421"/>
<path d="M11.007 1H10.6426V16H11.007V1Z" fill="#273831"/>
<path d="M11.2366 1H10.8722V16H11.2366V1Z" fill="#1E2522"/>
<path d="M11.4662 1H11.1018V16H11.4662V1Z" fill="#1A1E1C"/>
<path d="M11.6958 1H11.3314V16H11.6958V1Z" fill="#181918"/>
<path d="M11.9254 1H11.5609V16H11.9254V1Z" fill="#1E2522"/>
<path d="M12.1549 1H11.7905V16H12.1549V1Z" fill="#1B211E"/>
<path d="M12.3845 1H12.0201V16H12.3845V1Z" fill="#202A26"/>
<path d="M12.6141 1H12.2497V16H12.6141V1Z" fill="#24332D"/>
<path d="M12.8437 1H12.4793V16H12.8437V1Z" fill="#1C2220"/>
<path d="M13.0733 1H12.7089V16H13.0733V1Z" fill="#1F2924"/>
<path d="M13.3029 1H12.9385V16H13.3029V1Z" fill="#181B1A"/>
<path d="M13.5325 1H13.1681V16H13.5325V1Z" fill="#1B1F1D"/>
<path d="M13.7621 1H13.3976V16H13.7621V1Z" fill="#1F2924"/>
<path d="M13.9916 1H13.6272V16H13.9916V1Z" fill="#293D34"/>
<path d="M14.2212 1H13.8568V16H14.2212V1Z" fill="#395F4F"/>
<path d="M14.4508 1H14.0864V16H14.4508V1Z" fill="#324F43"/>
<path d="M14.6804 1H14.316V16H14.6804V1Z" fill="#1A1E1C"/>
<path d="M14.91 1H14.5456V16H14.91V1Z" fill="#181B1A"/>
<path d="M15.1396 1H14.7751V16H15.1396V1Z" fill="#181918"/>
<path d="M15.3691 1H15.0047V16H15.3691V1Z" fill="#181918"/>
<path d="M15.5987 1H15.2343V16H15.5987V1Z" fill="#171817"/>
<path d="M15.8283 1H15.4639V16H15.8283V1Z" fill="#2C4339"/>
<path d="M16.0579 1H15.6935V16H16.0579V1Z" fill="#2A3E35"/>
<path d="M16.2875 1H15.9231V16H16.2875V1Z" fill="#191C1B"/>
<path d="M16.5171 1H16.1527V16H16.5171V1Z" fill="#202A26"/>
<path d="M16.7467 1H16.3823V16H16.7467V1Z" fill="#1B211E"/>
<path d="M16.9763 1H16.6118V16H16.9763V1Z" fill="#283B33"/>
<path d="M17.2058 1H16.8414V16H17.2058V1Z" fill="#24332D"/>
<path d="M17.4354 1H17.071V16H17.4354V1Z" fill="#36584A"/>
<path d="M17.665 1H17.3006V16H17.665V1Z" fill="#24332D"/>
<path d="M17.8946 1H17.5302V16H17.8946V1Z" fill="#1B211E"/>
<path d="M18.1242 1H17.7598V16H18.1242V1Z" fill="#1D2421"/>
<path d="M18.3538 1H17.9893V16H18.3538V1Z" fill="#1D2421"/>
<path d="M18.5833 1H18.2189V16H18.5833V1Z" fill="#1C2220"/>
<path d="M18.8129 1H18.4485V16H18.8129V1Z" fill="#26362F"/>
<path d="M19.0425 1H18.6781V16H19.0425V1Z" fill="#1B211E"/>
<path d="M19.2721 1H18.9077V16H19.2721V1Z" fill="#1E2723"/>
<path d="M19.5017 1H19.1373V16H19.5017V1Z" fill="#283B33"/>
<path d="M19.7313 1H19.3669V16H19.7313V1Z" fill="#1C2220"/>
<path d="M19.9609 1H19.5965V16H19.9609V1Z" fill="#24332D"/>
<path d="M20.1904 1H19.826V16H20.1904V1Z" fill="#212D28"/>
<path d="M20.42 1H20.0556V16H20.42V1Z" fill="#212D28"/>
<path d="M20.6496 1H20.2852V16H20.6496V1Z" fill="#273932"/>
<path d="M20.8792 1H20.5148V16H20.8792V1Z" fill="#335245"/>
<path d="M21.1088 1H20.7444V16H21.1088V1Z" fill="#3B6251"/>
<path d="M21.3384 1H20.974V16H21.3384V1Z" fill="#1E2522"/>
<path d="M21.568 1H21.2036V16H21.568V1Z" fill="#181B1A"/>
<path d="M21.7975 1H21.4331V16H21.7975V1Z" fill="#161616"/>
<path d="M22.0271 1H21.6627V16H22.0271V1Z" fill="#1E2723"/>
<path d="M22.2567 1H21.8923V16H22.2567V1Z" fill="#1D2421"/>
<path d="M22.4863 1H22.1219V16H22.4863V1Z" fill="#202A26"/>
<path d="M22.7159 1H22.3515V16H22.7159V1Z" fill="#23302A"/>
<path d="M22.9455 1H22.5811V16H22.9455V1Z" fill="#212C27"/>
<path d="M23.1751 1H22.8107V16H23.1751V1Z" fill="#273831"/>
<path d="M23.4046 1H23.0402V16H23.4046V1Z" fill="#24322C"/>
<path d="M23.6342 1H23.2698V16H23.6342V1Z" fill="#1F2924"/>
<path d="M23.8638 1H23.4994V16H23.8638V1Z" fill="#2A4037"/>
<path d="M24.0934 1H23.729V16H24.0934V1Z" fill="#1D2421"/>
<path d="M24.323 1H23.9586V16H24.323V1Z" fill="#181B1A"/>
<path d="M24.5526 1H24.1882V16H24.5526V1Z" fill="#1B211E"/>
<path d="M24.7822 1H24.4178V16H24.7822V1Z" fill="#24322C"/>
<path d="M25.0117 1H24.6473V16H25.0117V1Z" fill="#1D2421"/>
<path d="M25.2413 1H24.8769V16H25.2413V1Z" fill="#1E2723"/>
<path d="M25.4709 1H25.1065V16H25.4709V1Z" fill="#24322C"/>
<path d="M25.7005 1H25.3361V16H25.7005V1Z" fill="#2F493E"/>
<path d="M25.9301 1H25.5657V16H25.9301V1Z" fill="#23302A"/>
<path d="M26.1597 1H25.7953V16H26.1597V1Z" fill="#212D28"/>
<path d="M26.3893 1H26.0249V16H26.3893V1Z" fill="#212D28"/>
<path d="M26.6189 1H26.2545V16H26.6189V1Z" fill="#212C27"/>
<path d="M26.8484 1H26.484V16H26.8484V1Z" fill="#2C4339"/>
<path d="M27.078 1H26.7136V16H27.078V1Z" fill="#2B4138"/>
<path d="M27.3076 1H26.9432V16H27.3076V1Z" fill="#273932"/>
<path d="M27.5372 1H27.1728V16H27.5372V1Z" fill="#212C27"/>
<path d="M27.7668 1H27.4024V16H27.7668V1Z" fill="#191C1B"/>
<path d="M27.9964 1H27.632V16H27.9964V1Z" fill="#181B1A"/>
<path d="M28.2259 1H27.8615V16H28.2259V1Z" fill="#202A26"/>
<path d="M28.4555 1H28.0911V16H28.4555V1Z" fill="#24332D"/>
<path d="M28.6851 1H28.3207V16H28.6851V1Z" fill="#23302A"/>
<path d="M28.9147 1H28.5503V16H28.9147V1Z" fill="#212D28"/>
<path d="M29.1443 1H28.7799V16H29.1443V1Z" fill="#202A26"/>
<path d="M29.3739 1H29.0095V16H29.3739V1Z" fill="#1E2522"/>
<path d="M29.6035 1H29.2391V16H29.6035V1Z" fill="#273932"/>
<path d="M29.8331 1H29.4686V16H29.8331V1Z" fill="#1B211E"/>
<path d="M30.0626 1H29.6982V16H30.0626V1Z" fill="#212C27"/>
<path d="M30.2922 1H29.9278V16H30.2922V1Z" fill="#222F29"/>
<path d="M30.5218 1H30.1574V16H30.5218V1Z" fill="#1F2924"/>
<path d="M30.7514 1H30.387V16H30.7514V1Z" fill="#1D2421"/>
<path d="M30.981 1H30.6166V16H30.981V1Z" fill="#1A1E1C"/>
<path d="M31.2106 1H30.8462V16H31.2106V1Z" fill="#23302A"/>
<path d="M31.4402 1H31.0757V16H31.4402V1Z" fill="#23302A"/>
<path d="M31.6697 1H31.3053V16H31.6697V1Z" fill="#1C2220"/>
<path d="M31.8993 1H31.5349V16H31.8993V1Z" fill="#222F29"/>
<path d="M32.1289 1H31.7645V16H32.1289V1Z" fill="#1B1F1D"/>
<path d="M32.3585 1H31.9941V16H32.3585V1Z" fill="#212C27"/>
<path d="M32.5881 1H32.2237V16H32.5881V1Z" fill="#1C2220"/>
<path d="M32.8177 1H32.4533V16H32.8177V1Z" fill="#1F2924"/>
<path d="M33.0473 1H32.6828V16H33.0473V1Z" fill="#1B211E"/>
<path d="M33.2769 1H32.9124V16H33.2769V1Z" fill="#304C40"/>
<path d="M33.5064 1H33.142V16H33.5064V1Z" fill="#4D876E"/>
<path d="M33.736 1H33.3716V16H33.736V1Z" fill="#222F29"/>
<path d="M33.9656 1H33.6012V16H33.9656V1Z" fill="#1D2421"/>
<path d="M34.1952 1H33.8308V16H34.1952V1Z" fill="#1F2924"/>
<path d="M34.4248 1H34.0604V16H34.4248V1Z" fill="#1F2924"/>
<path d="M34.6544 1H34.2899V16H34.6544V1Z" fill="#1B211E"/>
<path d="M34.8839 1H34.5195V16H34.8839V1Z" fill="#191C1B"/>
<path d="M35.1135 1H34.7491V16H35.1135V1Z" fill="#1B211E"/>
<path d="M35.3431 1H34.9787V16H35.3431V1Z" fill="#1F2924"/>
<path d="M35.5727 1H35.2083V16H35.5727V1Z" fill="#212D28"/>
<path d="M35.8023 1H35.4379V16H35.8023V1Z" fill="#1E2522"/>
<path d="M36.0319 1H35.6675V16H36.0319V1Z" fill="#222F29"/>
<path d="M36.2615 1H35.897V16H36.2615V1Z" fill="#1A1E1C"/>
<path d="M36.4911 1H36.1266V16H36.4911V1Z" fill="#24332D"/>
<path d="M36.7206 1H36.3562V16H36.7206V1Z" fill="#1F2924"/>
<path d="M36.9502 1H36.5858V16H36.9502V1Z" fill="#1E2723"/>
<path d="M37.1798 1H36.8154V16H37.1798V1Z" fill="#23302A"/>
<path d="M37.4094 1H37.045V16H37.4094V1Z" fill="#1C2220"/>
<path d="M37.639 1H37.2746V16H37.639V1Z" fill="#1F2924"/>
<path d="M37.8686 1H37.5042V16H37.8686V1Z" fill="#191C1B"/>
<path d="M38.0981 1H37.7337V16H38.0981V1Z" fill="#1C2220"/>
<path d="M38.3277 1H37.9633V16H38.3277V1Z" fill="#1C2220"/>
<path d="M38.5573 1H38.1929V16H38.5573V1Z" fill="#1F2924"/>
<path d="M38.7869 1H38.4225V16H38.7869V1Z" fill="#1D2421"/>
<path d="M39.0165 1H38.6521V16H39.0165V1Z" fill="#25352E"/>
<path d="M39.2461 1H38.8817V16H39.2461V1Z" fill="#181918"/>
<path d="M39.4757 1H39.1113V16H39.4757V1Z" fill="#1E2522"/>
<path d="M39.7052 1H39.3408V16H39.7052V1Z" fill="#1D2421"/>
<path d="M39.9348 1H39.5704V16H39.9348V1Z" fill="#1D2421"/>
<path d="M40.1644 1H39.8V16H40.1644V1Z" fill="#365749"/>
<path d="M40.394 1H40.0296V16H40.394V1Z" fill="#293D34"/>
<path d="M40.6236 1H40.2592V16H40.6236V1Z" fill="#2D463B"/>
<path d="M40.8532 1H40.4888V16H40.8532V1Z" fill="#202A26"/>
<path d="M41.0828 1H40.7184V16H41.0828V1Z" fill="#25352E"/>
<path d="M41.3123 1H40.9479V16H41.3123V1Z" fill="#202A26"/>
<path d="M41.5419 1H41.1775V16H41.5419V1Z" fill="#161616"/>
<path d="M41.7715 1H41.4071V16H41.7715V1Z" fill="#212D28"/>
<path d="M42.0011 1H41.6367V16H42.0011V1Z" fill="#212C27"/>
<path d="M42.2307 1H41.8663V16H42.2307V1Z" fill="#181B1A"/>
<path d="M42.4603 1H42.0959V16H42.4603V1Z" fill="#191C1B"/>
<path d="M42.6899 1H42.3255V16H42.6899V1Z" fill="#1E2723"/>
<path d="M42.9194 1H42.555V16H42.9194V1Z" fill="#1B211E"/>
<path d="M43.149 1H42.7846V16H43.149V1Z" fill="#1B1F1D"/>
<path d="M43.3786 1H43.0142V16H43.3786V1Z" fill="#1B1F1D"/>
<path d="M43.6082 1H43.2438V16H43.6082V1Z" fill="#1B211E"/>
<path d="M43.8378 1H43.4734V16H43.8378V1Z" fill="#1D2421"/>
<path d="M44.0674 1H43.703V16H44.0674V1Z" fill="#191C1B"/>
<path d="M44.297 1H43.9326V16H44.297V1Z" fill="#181918"/>
<path d="M44.5265 1H44.1621V16H44.5265V1Z" fill="#1E2723"/>
<path d="M44.7561 1H44.3917V16H44.7561V1Z" fill="#2A4037"/>
<path d="M44.9857 1H44.6213V16H44.9857V1Z" fill="#212C27"/>
<path d="M45.2153 1H44.8509V16H45.2153V1Z" fill="#1E2723"/>
<path d="M45.4449 1H45.0805V16H45.4449V1Z" fill="#1A1E1C"/>
<path d="M45.6745 1H45.3101V16H45.6745V1Z" fill="#1D2421"/>
<path d="M45.9041 1H45.5397V16H45.9041V1Z" fill="#202A26"/>
<path d="M46.1336 1H45.7692V16H46.1336V1Z" fill="#1D2421"/>
<path d="M46.3632 1H45.9988V16H46.3632V1Z" fill="#222F29"/>
<path d="M46.5928 1H46.2284V16H46.5928V1Z" fill="#283B33"/>
<path d="M46.8224 1H46.458V16H46.8224V1Z" fill="#25352E"/>
<path d="M47.052 1H46.6876V16H47.052V1Z" fill="#3F6957"/>
<path d="M47.2816 1H46.9172V16H47.2816V1Z" fill="#25352E"/>
<path d="M47.5112 1H47.1468V16H47.5112V1Z" fill="#24332D"/>
<path d="M47.7408 1H47.3763V16H47.7408V1Z" fill="#1D2421"/>
<path d="M47.9703 1H47.6059V16H47.9703V1Z" fill="#304C40"/>
<path d="M48.1999 1H47.8355V16H48.1999V1Z" fill="#293D34"/>
<path d="M48.4295 1H48.0651V16H48.4295V1Z" fill="#23302A"/>
<path d="M48.6591 1H48.2947V16H48.6591V1Z" fill="#1E2723"/>
<path d="M48.8887 1H48.5243V16H48.8887V1Z" fill="#181B1A"/>
<path d="M49.1183 1H48.7539V16H49.1183V1Z" fill="#23302A"/>
<path d="M49.3479 1H48.9834V16H49.3479V1Z" fill="#212D28"/>
<path d="M49.5774 1H49.213V16H49.5774V1Z" fill="#345446"/>
<path d="M49.807 1H49.4426V16H49.807V1Z" fill="#293D34"/>
<path d="M50.0366 1H49.6722V16H50.0366V1Z" fill="#26362F"/>
<path d="M50.2662 1H49.9018V16H50.2662V1Z" fill="#212C27"/>
<path d="M50.4958 1H50.1314V16H50.4958V1Z" fill="#1E2723"/>
<path d="M50.7254 1H50.361V16H50.7254V1Z" fill="#24322C"/>
<path d="M50.955 1H50.5905V16H50.955V1Z" fill="#171817"/>
<path d="M51.1845 1H50.8201V16H51.1845V1Z" fill="#2D463B"/>
<path d="M51.4141 1H51.0497V16H51.4141V1Z" fill="#1A1E1C"/>
<path d="M51.6437 1H51.2793V16H51.6437V1Z" fill="#1E2723"/>
<path d="M51.8733 1H51.5089V16H51.8733V1Z" fill="#1E2522"/>
<path d="M52.1029 1H51.7385V16H52.1029V1Z" fill="#181B1A"/>
<path d="M52.3325 1H51.9681V16H52.3325V1Z" fill="#23302A"/>
<path d="M52.5621 1H52.1976V16H52.5621V1Z" fill="#293D34"/>
<path d="M52.7916 1H52.4272V16H52.7916V1Z" fill="#2D463B"/>
<path d="M53.0212 1H52.6568V16H53.0212V1Z" fill="#1B211E"/>
<path d="M53.2508 1H52.8864V16H53.2508V1Z" fill="#212C27"/>
<path d="M53.4804 1H53.116V16H53.4804V1Z" fill="#447460"/>
<path d="M53.71 1H53.3456V16H53.71V1Z" fill="#1F2924"/>
<path d="M53.9396 1H53.5752V16H53.9396V1Z" fill="#1B1F1D"/>
<path d="M54.1692 1H53.8047V16H54.1692V1Z" fill="#212C27"/>
<path d="M54.3987 1H54.0343V16H54.3987V1Z" fill="#304A3F"/>
<path d="M54.6283 1H54.2639V16H54.6283V1Z" fill="#26362F"/>
<path d="M54.8579 1H54.4935V16H54.8579V1Z" fill="#1D2421"/>
<path d="M55.0875 1H54.7231V16H55.0875V1Z" fill="#171817"/>
<path d="M55.3171 1H54.9527V16H55.3171V1Z" fill="#1E2522"/>
<path d="M55.5467 1H55.1823V16H55.5467V1Z" fill="#1D2421"/>
<path d="M55.7763 1H55.4118V16H55.7763V1Z" fill="#191C1B"/>
<path d="M56.0058 1H55.6414V16H56.0058V1Z" fill="#212D28"/>
<path d="M56.2354 1H55.871V16H56.2354V1Z" fill="#24322C"/>
<path d="M56.465 1H56.1006V16H56.465V1Z" fill="#1B211E"/>
<path d="M56.6946 1H56.3302V16H56.6946V1Z" fill="#191C1B"/>
<path d="M56.9242 1H56.5598V16H56.9242V1Z" fill="#24322C"/>
<path d="M57.1538 1H56.7894V16H57.1538V1Z" fill="#181B1A"/>
<path d="M57.3834 1H57.019V16H57.3834V1Z" fill="#1A1E1C"/>
<path d="M57.6129 1H57.2485V16H57.6129V1Z" fill="#202A26"/>
<path d="M57.8425 1H57.4781V16H57.8425V1Z" fill="#1C2220"/>
<path d="M58.0721 1H57.7077V16H58.0721V1Z" fill="#171817"/>
<path d="M58.3017 1H57.9373V16H58.3017V1Z" fill="#161616"/>
<path d="M58.5313 1H58.1669V16H58.5313V1Z" fill="#1D2421"/>
<path d="M58.7609 1H58.3965V16H58.7609V1Z" fill="#1B211E"/>
<path d="M58.9905 1H58.6261V16H58.9905V1Z" fill="#1B211E"/>
<path d="M59.22 1H58.8556V16H59.22V1Z" fill="#335245"/>
<path d="M59.4496 1H59.0852V16H59.4496V1Z" fill="#222F29"/>
<path d="M59.6792 1H59.3148V16H59.6792V1Z" fill="#335144"/>
<path d="M59.9088 1H59.5444V16H59.9088V1Z" fill="#181B1A"/>
<path d="M60.1384 1H59.774V16H60.1384V1Z" fill="#181B1A"/>
<path d="M60.368 1H60.0036V16H60.368V1Z" fill="#273932"/>
<path d="M60.5976 1H60.2332V16H60.5976V1Z" fill="#304C40"/>
<path d="M60.8271 1H60.4627V16H60.8271V1Z" fill="#25352E"/>
<path d="M61.0567 1H60.6923V16H61.0567V1Z" fill="#212C27"/>
<path d="M61.2863 1H60.9219V16H61.2863V1Z" fill="#24332D"/>
<path d="M61.5159 1H61.1515V16H61.5159V1Z" fill="#426F5C"/>
<path d="M61.7455 1H61.3811V16H61.7455V1Z" fill="#1C2220"/>
<path d="M61.9751 1H61.6107V16H61.9751V1Z" fill="#273831"/>
<path d="M62.2047 1H61.8403V16H62.2047V1Z" fill="#314E41"/>
<path d="M62.4342 1H62.0698V16H62.4342V1Z" fill="#25352E"/>
<path d="M62.6638 1H62.2994V16H62.6638V1Z" fill="#222F29"/>
<path d="M62.8934 1H62.529V16H62.8934V1Z" fill="#1E2522"/>
<path d="M63.123 1H62.7586V16H63.123V1Z" fill="#293D34"/>
<path d="M63.3526 1H62.9882V16H63.3526V1Z" fill="#1E2723"/>
<path d="M63.5822 1H63.2178V16H63.5822V1Z" fill="#181B1A"/>
<path d="M63.8118 1H63.4474V16H63.8118V1Z" fill="#171817"/>
<path d="M64.0413 1H63.6769V16H64.0413V1Z" fill="#1C2220"/>
<path d="M64.2709 1H63.9065V16H64.2709V1Z" fill="#1C2220"/>
<path d="M64.5005 1H64.1361V16H64.5005V1Z" fill="#24332D"/>
<path d="M64.7301 1H64.3657V16H64.7301V1Z" fill="#1C2220"/>
<path d="M64.9597 1H64.5953V16H64.9597V1Z" fill="#181B1A"/>
<path d="M65.1893 1H64.8249V16H65.1893V1Z" fill="#191C1B"/>
<path d="M65.4189 1H65.0544V16H65.4189V1Z" fill="#1F2924"/>
<path d="M65.6485 1H65.284V16H65.6485V1Z" fill="#202A26"/>
<path d="M65.878 1H65.5136V16H65.878V1Z" fill="#23302A"/>
<path d="M66.1076 1H65.7432V16H66.1076V1Z" fill="#191C1B"/>
<path d="M66.3372 1H65.9728V16H66.3372V1Z" fill="#1B211E"/>
<path d="M66.5668 1H66.2024V16H66.5668V1Z" fill="#181B1A"/>
<path d="M66.7964 1H66.432V16H66.7964V1Z" fill="#191C1B"/>
<path d="M67.026 1H66.6616V16H67.026V1Z" fill="#1E2723"/>
<path d="M67.2556 1H66.8911V16H67.2556V1Z" fill="#273831"/>
<path d="M67.4851 1H67.1207V16H67.4851V1Z" fill="#2D463B"/>
<path d="M67.7147 1H67.3503V16H67.7147V1Z" fill="#25352E"/>
<path d="M67.9443 1H67.5799V16H67.9443V1Z" fill="#1C2220"/>
<path d="M68.1739 1H67.8095V16H68.1739V1Z" fill="#1A1E1C"/>
<path d="M68.4035 1H68.0391V16H68.4035V1Z" fill="#1A1E1C"/>
<path d="M68.6331 1H68.2686V16H68.6331V1Z" fill="#2D443A"/>
<path d="M68.8627 1H68.4982V16H68.8627V1Z" fill="#283B33"/>
<path d="M69.0922 1H68.7278V16H69.0922V1Z" fill="#283B33"/>
<path d="M69.3218 1H68.9574V16H69.3218V1Z" fill="#55967A"/>
<path d="M69.5514 1H69.187V16H69.5514V1Z" fill="#1B211E"/>
<path d="M69.781 1H69.4166V16H69.781V1Z" fill="#3C6352"/>
<path d="M70.0106 1H69.6462V16H70.0106V1Z" fill="#477A64"/>
<path d="M70.2402 1H69.8758V16H70.2402V1Z" fill="#529176"/>
<path d="M70.4698 1H70.1053V16H70.4698V1Z" fill="#508D73"/>
<path d="M70.6993 1H70.3349V16H70.6993V1Z" fill="#529075"/>
<path d="M70.9289 1H70.5645V16H70.9289V1Z" fill="#2A3E35"/>
<path d="M71.1585 1H70.7941V16H71.1585V1Z" fill="#1D2421"/>
<path d="M71.3881 1H71.0237V16H71.3881V1Z" fill="#161616"/>
<path d="M71.6177 1H71.2533V16H71.6177V1Z" fill="#161616"/>
<path d="M71.8473 1H71.4829V16H71.8473V1Z" fill="#161616"/>
<path d="M72.0769 1H71.7124V16H72.0769V1Z" fill="#161616"/>
<path d="M72.3064 1H71.942V16H72.3064V1Z" fill="#161616"/>
<path d="M72.536 1H72.1716V16H72.536V1Z" fill="#161616"/>
<path d="M72.7656 1H72.4012V16H72.7656V1Z" fill="#161616"/>
<path d="M72.9952 1H72.6308V16H72.9952V1Z" fill="#161616"/>
<path d="M73.2248 1H72.8604V16H73.2248V1Z" fill="#161616"/>
<path d="M73.4544 1H73.09V16H73.4544V1Z" fill="#161616"/>
<path d="M73.684 1H73.3195V16H73.684V1Z" fill="#161616"/>
<path d="M73.9135 1H73.5491V16H73.9135V1Z" fill="#161616"/>
<path d="M74.1431 1H73.7787V16H74.1431V1Z" fill="#161616"/>
<path d="M74.3727 1H74.0083V16H74.3727V1Z" fill="#24322C"/>
<path d="M74.6023 1H74.2379V16H74.6023V1Z" fill="#181918"/>
<path d="M74.8319 1H74.4675V16H74.8319V1Z" fill="#181918"/>
<path d="M75.0615 1H74.6971V16H75.0615V1Z" fill="#181B1A"/>
<path d="M75.2911 1H74.9267V16H75.2911V1Z" fill="#1A1E1C"/>
<path d="M75.5206 1H75.1562V16H75.5206V1Z" fill="#191C1B"/>
<path d="M75.7502 1H75.3858V16H75.7502V1Z" fill="#1A1E1C"/>
<path d="M75.9798 1H75.6154V16H75.9798V1Z" fill="#1B211E"/>
<path d="M76.2094 1H75.845V16H76.2094V1Z" fill="#171817"/>
<path d="M76.439 1H76.0746V16H76.439V1Z" fill="#1A1E1C"/>
<path d="M76.6686 1H76.3042V16H76.6686V1Z" fill="#1A1E1C"/>
<path d="M76.8982 1H76.5338V16H76.8982V1Z" fill="#1C2220"/>
<path d="M77.1277 1H76.7633V16H77.1277V1Z" fill="#1B1F1D"/>
<path d="M77.3573 1H76.9929V16H77.3573V1Z" fill="#181918"/>
<path d="M77.5869 1H77.2225V16H77.5869V1Z" fill="#1B211E"/>
<path d="M77.8165 1H77.4521V16H77.8165V1Z" fill="#1E2522"/>
<path d="M78.0461 1H77.6817V16H78.0461V1Z" fill="#1B1F1D"/>
<path d="M78.2757 1H77.9113V16H78.2757V1Z" fill="#1A1E1C"/>
<path d="M78.5053 1H78.1409V16H78.5053V1Z" fill="#1C2220"/>
<path d="M78.7348 1H78.3704V16H78.7348V1Z" fill="#222F29"/>
<path d="M78.9644 1H78.6V16H78.9644V1Z" fill="#181B1A"/>
<path d="M79.194 1H78.8296V16H79.194V1Z" fill="#1B211E"/>
<path d="M79.4236 1H79.0592V16H79.4236V1Z" fill="#181B1A"/>
<path d="M79.6532 1H79.2888V16H79.6532V1Z" fill="#1E2723"/>
<path d="M79.8828 1H79.5184V16H79.8828V1Z" fill="#1C2220"/>
<path d="M80.1124 1H79.748V16H80.1124V1Z" fill="#212D28"/>
<path d="M80.3419 1H79.9775V16H80.3419V1Z" fill="#1E2723"/>
<path d="M80.5715 1H80.2071V16H80.5715V1Z" fill="#202A26"/>
<path d="M80.8011 1H80.4367V16H80.8011V1Z" fill="#1D2421"/>
<path d="M81.0307 1H80.6663V16H81.0307V1Z" fill="#1B1F1D"/>
<path d="M81.2603 1H80.8959V16H81.2603V1Z" fill="#1D2421"/>
<path d="M81.4899 1H81.1255V16H81.4899V1Z" fill="#1C2220"/>
<path d="M81.7194 1H81.355V16H81.7194V1Z" fill="#23302A"/>
<path d="M81.949 1H81.5846V16H81.949V1Z" fill="#1D2421"/>
<path d="M82.1786 1H81.8142V16H82.1786V1Z" fill="#1E2723"/>
<path d="M82.4082 1H82.0438V16H82.4082V1Z" fill="#171817"/>
<path d="M82.6378 1H82.2734V16H82.6378V1Z" fill="#1B211E"/>
<path d="M82.8674 1H82.503V16H82.8674V1Z" fill="#1E2522"/>
<path d="M83.097 1H82.7326V16H83.097V1Z" fill="#23302A"/>
<path d="M83.3266 1H82.9622V16H83.3266V1Z" fill="#1E2723"/>
<path d="M83.5561 1H83.1917V16H83.5561V1Z" fill="#181918"/>
<path d="M83.7857 1H83.4213V16H83.7857V1Z" fill="#1E2522"/>
<path d="M84.0153 1H83.6509V16H84.0153V1Z" fill="#161616"/>
<path d="M84.2449 1H83.8805V16H84.2449V1Z" fill="#171817"/>
<path d="M84.4745 1H84.1101V16H84.4745V1Z" fill="#1B211E"/>
<path d="M84.7041 1H84.3397V16H84.7041V1Z" fill="#1B211E"/>
<path d="M84.9337 1H84.5692V16H84.9337V1Z" fill="#1A1E1C"/>
<path d="M85.1632 1H84.7988V16H85.1632V1Z" fill="#1A1E1C"/>
<path d="M85.3928 1H85.0284V16H85.3928V1Z" fill="#181B1A"/>
<path d="M85.6224 1H85.258V16H85.6224V1Z" fill="#171817"/>
<path d="M85.852 1H85.4876V16H85.852V1Z" fill="#161616"/>
<path d="M86.0816 1H85.7172V16H86.0816V1Z" fill="#161616"/>
<path d="M86.3112 1H85.9468V16H86.3112V1Z" fill="#171817"/>
<path d="M86.5408 1H86.1763V16H86.5408V1Z" fill="#1C2220"/>
<path d="M86.7704 1H86.4059V16H86.7704V1Z" fill="#171817"/>
<path d="M86.9999 1H86.6355V16H86.9999V1Z" fill="#161616"/>
<path d="M87.2295 1H86.8651V16H87.2295V1Z" fill="#191C1B"/>
<path d="M87.4591 1H87.0947V16H87.4591V1Z" fill="#171817"/>
<path d="M87.6887 1H87.3243V16H87.6887V1Z" fill="#191C1B"/>
<path d="M87.9183 1H87.5539V16H87.9183V1Z" fill="#191C1B"/>
<path d="M88.1479 1H87.7834V16H88.1479V1Z" fill="#1A1E1C"/>
<path d="M88.3774 1H88.013V16H88.3774V1Z" fill="#1B211E"/>
<path d="M88.607 1H88.2426V16H88.607V1Z" fill="#161616"/>
<path d="M88.8366 1H88.4722V16H88.8366V1Z" fill="#171817"/>
<path d="M89.0662 1H88.7018V16H89.0662V1Z" fill="#171817"/>
<path d="M89.2958 1H88.9314V16H89.2958V1Z" fill="#161616"/>
<path d="M89.5254 1H89.161V16H89.5254V1Z" fill="#161616"/>
<path d="M89.755 1H89.3906V16H89.755V1Z" fill="#181918"/>
<path d="M89.9846 1H89.6201V16H89.9846V1Z" fill="#1B211E"/>
<path d="M90.2141 1H89.8497V16H90.2141V1Z" fill="#181B1A"/>
<path d="M90.4437 1H90.0793V16H90.4437V1Z" fill="#161616"/>
<path d="M90.6733 1H90.3089V16H90.6733V1Z" fill="#161616"/>
<path d="M90.9029 1H90.5385V16H90.9029V1Z" fill="#181B1A"/>
<path d="M91.1325 1H90.7681V16H91.1325V1Z" fill="#1A1E1C"/>
<path d="M91.3621 1H90.9977V16H91.3621V1Z" fill="#304C40"/>
<path d="M91.5917 1H91.2272V16H91.5917V1Z" fill="#2D443A"/>
<path d="M91.8212 1H91.4568V16H91.8212V1Z" fill="#293D34"/>
<path d="M92.0508 1H91.6864V16H92.0508V1Z" fill="#2A4037"/>
<path d="M92.2804 1H91.916V16H92.2804V1Z" fill="#273831"/>
<path d="M92.51 1H92.1456V16H92.51V1Z" fill="#161616"/>
<path d="M92.7396 1H92.3752V16H92.7396V1Z" fill="#161616"/>
<path d="M92.9692 1H92.6048V16H92.9692V1Z" fill="#161616"/>
<path d="M93.1988 1H92.8344V16H93.1988V1Z" fill="#2C4339"/>
<path d="M93.4283 1H93.0639V16H93.4283V1Z" fill="#1B211E"/>
<path d="M93.6579 1H93.2935V16H93.6579V1Z" fill="#161616"/>
<path d="M93.8875 1H93.5231V16H93.8875V1Z" fill="#181B1A"/>
<path d="M94.1171 1H93.7527V16H94.1171V1Z" fill="#1B1F1D"/>
<path d="M94.3467 1H93.9823V16H94.3467V1Z" fill="#1E2522"/>
<path d="M94.5763 1H94.2119V16H94.5763V1Z" fill="#36584A"/>
<path d="M94.8059 1H94.4415V16H94.8059V1Z" fill="#2D443A"/>
<path d="M95.0354 1H94.671V16H95.0354V1Z" fill="#1C2220"/>
<path d="M95.265 1H94.9006V16H95.265V1Z" fill="#181918"/>
<path d="M95.4946 1H95.1302V16H95.4946V1Z" fill="#161616"/>
<path d="M95.7242 1H95.3598V16H95.7242V1Z" fill="#161616"/>
<path d="M95.9538 1H95.5894V16H95.9538V1Z" fill="#181918"/>
<path d="M96.1834 1H95.819V16H96.1834V1Z" fill="#212D28"/>
<path d="M96.413 1H96.0486V16H96.413V1Z" fill="#1E2522"/>
<path d="M96.6425 1H96.2781V16H96.6425V1Z" fill="#24322C"/>
<path d="M96.8721 1H96.5077V16H96.8721V1Z" fill="#191C1B"/>
<path d="M97.1017 1H96.7373V16H97.1017V1Z" fill="#171817"/>
<path d="M97.3313 1H96.9669V16H97.3313V1Z" fill="#1B1F1D"/>
<path d="M97.5609 1H97.1965V16H97.5609V1Z" fill="#1A1E1C"/>
<path d="M97.7905 1H97.4261V16H97.7905V1Z" fill="#1E2522"/>
<path d="M98.02 1H97.6556V16H98.02V1Z" fill="#191C1B"/>
<path d="M98.2496 1H97.8852V16H98.2496V1Z" fill="#1A1E1C"/>
<path d="M98.4792 1H98.1148V16H98.4792V1Z" fill="#191C1B"/>
<path d="M98.7088 1H98.3444V16H98.7088V1Z" fill="#181918"/>
<path d="M98.9384 1H98.574V16H98.9384V1Z" fill="#1B211E"/>
<path d="M99.168 1H98.8036V16H99.168V1Z" fill="#1B1F1D"/>
<path d="M99.3976 1H99.0332V16H99.3976V1Z" fill="#2C4339"/>
<path d="M99.6272 1H99.2628V16H99.6272V1Z" fill="#406B58"/>
<path d="M99.8567 1H99.4923V16H99.8567V1Z" fill="#529075"/>
<path d="M100.086 1H99.7219V16H100.086V1Z" fill="#2E473D"/>
<path d="M100.316 1H99.9515V16H100.316V1Z" fill="#181918"/>
<path d="M100.545 1H100.181V16H100.545V1Z" fill="#1A1E1C"/>
<path d="M100.775 1H100.411V16H100.775V1Z" fill="#212D28"/>
<path d="M101.005 1H100.64V16H101.005V1Z" fill="#273831"/>
<path d="M101.234 1H100.87V16H101.234V1Z" fill="#23302A"/>
<path d="M101.464 1H101.099V16H101.464V1Z" fill="#1D2421"/>
<path d="M101.693 1H101.329V16H101.693V1Z" fill="#191C1B"/>
<path d="M101.923 1H101.559V16H101.923V1Z" fill="#171817"/>
<path d="M102.153 1H101.788V16H102.153V1Z" fill="#1A1E1C"/>
<path d="M102.382 1H102.018V16H102.382V1Z" fill="#23302A"/>
<path d="M102.612 1H102.247V16H102.612V1Z" fill="#25352E"/>
<path d="M102.841 1H102.477V16H102.841V1Z" fill="#2B4138"/>
<path d="M103.071 1H102.707V16H103.071V1Z" fill="#1E2522"/>
<path d="M103.301 1H102.936V16H103.301V1Z" fill="#1E2723"/>
<path d="M103.53 1H103.166V16H103.53V1Z" fill="#171817"/>
<path d="M103.76 1H103.395V16H103.76V1Z" fill="#181B1A"/>
<path d="M103.989 1H103.625V16H103.989V1Z" fill="#171817"/>
<path d="M104.219 1H103.854V16H104.219V1Z" fill="#25352E"/>
<path d="M104.448 1H104.084V16H104.448V1Z" fill="#2D443A"/>
<path d="M104.678 1H104.314V16H104.678V1Z" fill="#2A3E35"/>
<path d="M104.908 1H104.543V16H104.908V1Z" fill="#161616"/>
<path d="M105.137 1H104.773V16H105.137V1Z" fill="#161616"/>
<path d="M105.367 1H105.002V16H105.367V1Z" fill="#161616"/>
<path d="M105.596 1H105.232V16H105.596V1Z" fill="#181918"/>
<path d="M105.826 1H105.462V16H105.826V1Z" fill="#25352E"/>
<path d="M106.056 1H105.691V16H106.056V1Z" fill="#1B211E"/>
<path d="M106.285 1H105.921V16H106.285V1Z" fill="#181918"/>
<path d="M106.515 1H106.15V16H106.515V1Z" fill="#171817"/>
<path d="M106.744 1H106.38V16H106.744V1Z" fill="#181B1A"/>
<path d="M106.974 1H106.609V16H106.974V1Z" fill="#1E2522"/>
<path d="M107.203 1H106.839V16H107.203V1Z" fill="#191C1B"/>
<path d="M107.433 1H107.069V16H107.433V1Z" fill="#1A1E1C"/>
<path d="M107.663 1H107.298V16H107.663V1Z" fill="#1D2421"/>
<path d="M107.892 1H107.528V16H107.892V1Z" fill="#1E2723"/>
<path d="M108.122 1H107.757V16H108.122V1Z" fill="#202A26"/>
<path d="M108.351 1H107.987V16H108.351V1Z" fill="#1B211E"/>
<path d="M108.581 1H108.217V16H108.581V1Z" fill="#181918"/>
<path d="M108.811 1H108.446V16H108.811V1Z" fill="#25352E"/>
<path d="M109.04 1H108.676V16H109.04V1Z" fill="#171817"/>
<path d="M109.27 1H108.905V16H109.27V1Z" fill="#273932"/>
<path d="M109.499 1H109.135V16H109.499V1Z" fill="#1B1F1D"/>
<path d="M109.729 1H109.365V16H109.729V1Z" fill="#171817"/>
<path d="M109.959 1H109.594V16H109.959V1Z" fill="#161616"/>
<path d="M110.188 1H109.824V16H110.188V1Z" fill="#1B211E"/>
<path d="M110.418 1H110.053V16H110.418V1Z" fill="#24332D"/>
<path d="M110.647 1H110.283V16H110.647V1Z" fill="#24332D"/>
<path d="M110.877 1H110.512V16H110.877V1Z" fill="#181B1A"/>
<path d="M111.106 1H110.742V16H111.106V1Z" fill="#1C2220"/>
<path d="M111.336 1H110.972V16H111.336V1Z" fill="#171817"/>
<path d="M111.566 1H111.201V16H111.566V1Z" fill="#181918"/>
<path d="M111.795 1H111.431V16H111.795V1Z" fill="#1D2421"/>
<path d="M112.025 1H111.66V16H112.025V1Z" fill="#1B211E"/>
<path d="M112.254 1H111.89V16H112.254V1Z" fill="#212C27"/>
<path d="M112.484 1H112.12V16H112.484V1Z" fill="#1E2723"/>
<path d="M112.714 1H112.349V16H112.714V1Z" fill="#1B211E"/>
<path d="M112.943 1H112.579V16H112.943V1Z" fill="#181918"/>
<path d="M113.173 1H112.808V16H113.173V1Z" fill="#181918"/>
<path d="M113.402 1H113.038V16H113.402V1Z" fill="#212C27"/>
<path d="M113.632 1H113.267V16H113.632V1Z" fill="#1A1E1C"/>
<path d="M113.861 1H113.497V16H113.861V1Z" fill="#24322C"/>
<path d="M114.091 1H113.727V16H114.091V1Z" fill="#1B211E"/>
<path d="M114.321 1H113.956V16H114.321V1Z" fill="#1F2924"/>
<path d="M114.55 1H114.186V16H114.55V1Z" fill="#171817"/>
<path d="M114.78 1H114.415V16H114.78V1Z" fill="#161616"/>
<path d="M115.009 1H114.645V16H115.009V1Z" fill="#181B1A"/>
<path d="M115.239 1H114.875V16H115.239V1Z" fill="#1B211E"/>
<path d="M115.469 1H115.104V16H115.469V1Z" fill="#2A4037"/>
<path d="M115.698 1H115.334V16H115.698V1Z" fill="#283B33"/>
<path d="M115.928 1H115.563V16H115.928V1Z" fill="#1C2220"/>
<path d="M116.157 1H115.793V16H116.157V1Z" fill="#191C1B"/>
<path d="M116.387 1H116.023V16H116.387V1Z" fill="#161616"/>
<path d="M116.617 1H116.252V16H116.617V1Z" fill="#191C1B"/>
<path d="M116.846 1H116.482V16H116.846V1Z" fill="#1D2421"/>
<path d="M117.076 1H116.711V16H117.076V1Z" fill="#26362F"/>
<path d="M117.305 1H116.941V16H117.305V1Z" fill="#212D28"/>
<path d="M117.535 1H117.17V16H117.535V1Z" fill="#26362F"/>
<path d="M117.764 1H117.4V16H117.764V1Z" fill="#191C1B"/>
<path d="M117.994 1H117.63V16H117.994V1Z" fill="#171817"/>
<path d="M118.224 1H117.859V16H118.224V1Z" fill="#1B1F1D"/>
<path d="M118.453 1H118.089V16H118.453V1Z" fill="#1A1E1C"/>
<path d="M118.683 1H118.318V16H118.683V1Z" fill="#273932"/>
<path d="M118.912 1H118.548V16H118.912V1Z" fill="#375A4B"/>
<path d="M119.142 1H118.778V16H119.142V1Z" fill="#1B1F1D"/>
<path d="M119.372 1H119.007V16H119.372V1Z" fill="#202A26"/>
<path d="M119.601 1H119.237V16H119.601V1Z" fill="#191C1B"/>
<path d="M119.831 1H119.466V16H119.831V1Z" fill="#181918"/>
<path d="M120.06 1H119.696V16H120.06V1Z" fill="#161616"/>
<path d="M120.29 1H119.925V16H120.29V1Z" fill="#202A26"/>
<path d="M120.519 1H120.155V16H120.519V1Z" fill="#181918"/>
<path d="M120.749 1H120.385V16H120.749V1Z" fill="#181918"/>
<path d="M120.979 1H120.614V16H120.979V1Z" fill="#181B1A"/>
<path d="M121.208 1H120.844V16H121.208V1Z" fill="#161616"/>
<path d="M121.438 1H121.073V16H121.438V1Z" fill="#161616"/>
<path d="M121.667 1H121.303V16H121.667V1Z" fill="#1E2723"/>
<path d="M121.897 1H121.533V16H121.897V1Z" fill="#161616"/>
<path d="M122.127 1H121.762V16H122.127V1Z" fill="#181B1A"/>
<path d="M122.356 1H121.992V16H122.356V1Z" fill="#181B1A"/>
<path d="M122.586 1H122.221V16H122.586V1Z" fill="#1E2522"/>
<path d="M122.815 1H122.451V16H122.815V1Z" fill="#181B1A"/>
<path d="M123.045 1H122.681V16H123.045V1Z" fill="#181B1A"/>
<path d="M123.275 1H122.91V16H123.275V1Z" fill="#202A26"/>
<path d="M123.504 1H123.14V16H123.504V1Z" fill="#293D34"/>
<path d="M123.734 1H123.369V16H123.734V1Z" fill="#2E473D"/>
<path d="M123.963 1H123.599V16H123.963V1Z" fill="#395F4F"/>
<path d="M124.193 1H123.828V16H124.193V1Z" fill="#2D443A"/>
<path d="M124.422 1H124.058V16H124.422V1Z" fill="#1C2220"/>
<path d="M124.652 1H124.288V16H124.652V1Z" fill="#1C2220"/>
<path d="M124.882 1H124.517V16H124.882V1Z" fill="#1A1E1C"/>
<path d="M125.111 1H124.747V16H125.111V1Z" fill="#1D2421"/>
<path d="M125.341 1H124.976V16H125.341V1Z" fill="#1C2220"/>
<path d="M125.57 1H125.206V16H125.57V1Z" fill="#1B1F1D"/>
<path d="M125.8 1H125.436V16H125.8V1Z" fill="#171817"/>
<path d="M126.03 1H125.665V16H126.03V1Z" fill="#181B1A"/>
<path d="M126.259 1H125.895V16H126.259V1Z" fill="#3D6655"/>
<path d="M126.489 1H126.124V16H126.489V1Z" fill="#406C59"/>
<path d="M126.718 1H126.354V16H126.718V1Z" fill="#25352E"/>
<path d="M126.948 1H126.583V16H126.948V1Z" fill="#1A1E1C"/>
<path d="M127.177 1H126.813V16H127.177V1Z" fill="#181918"/>
<path d="M127.407 1H127.043V16H127.407V1Z" fill="#1D2421"/>
<path d="M127.637 1H127.272V16H127.637V1Z" fill="#181B1A"/>
<path d="M127.866 1H127.502V16H127.866V1Z" fill="#1C2220"/>
<path d="M128.096 1H127.731V16H128.096V1Z" fill="#191C1B"/>
<path d="M128.325 1H127.961V16H128.325V1Z" fill="#24332D"/>
<path d="M128.555 1H128.191V16H128.555V1Z" fill="#1B1F1D"/>
<path d="M128.785 1H128.42V16H128.785V1Z" fill="#191C1B"/>
<path d="M129.014 1H128.65V16H129.014V1Z" fill="#191C1B"/>
<path d="M129.244 1H128.879V16H129.244V1Z" fill="#191C1B"/>
<path d="M129.473 1H129.109V16H129.473V1Z" fill="#1C2220"/>
<path d="M129.703 1H129.339V16H129.703V1Z" fill="#1A1E1C"/>
<path d="M129.932 1H129.568V16H129.932V1Z" fill="#273932"/>
<path d="M130.162 1H129.798V16H130.162V1Z" fill="#202A26"/>
<path d="M130.392 1H130.027V16H130.392V1Z" fill="#181B1A"/>
<path d="M130.621 1H130.257V16H130.621V1Z" fill="#181918"/>
<path d="M130.851 1H130.486V16H130.851V1Z" fill="#1A1E1C"/>
<path d="M131.08 1H130.716V16H131.08V1Z" fill="#1A1E1C"/>
<path d="M131.31 1H130.946V16H131.31V1Z" fill="#56997C"/>
<path d="M131.54 1H131.175V16H131.54V1Z" fill="#2F493E"/>
<path d="M131.769 1H131.405V16H131.769V1Z" fill="#181918"/>
<path d="M131.999 1H131.634V16H131.999V1Z" fill="#191C1B"/>
<path d="M132.228 1H131.864V16H132.228V1Z" fill="#171817"/>
<path d="M132.458 1H132.094V16H132.458V1Z" fill="#181918"/>
<path d="M132.688 1H132.323V16H132.688V1Z" fill="#1C2220"/>
<path d="M132.917 1H132.553V16H132.917V1Z" fill="#1C2220"/>
<path d="M133.147 1H132.782V16H133.147V1Z" fill="#222F29"/>
<path d="M133.376 1H133.012V16H133.376V1Z" fill="#1D2421"/>
<path d="M133.606 1H133.241V16H133.606V1Z" fill="#1E2723"/>
<path d="M133.835 1H133.471V16H133.835V1Z" fill="#1D2421"/>
<path d="M134.065 1H133.701V16H134.065V1Z" fill="#181918"/>
<path d="M134.295 1H133.93V16H134.295V1Z" fill="#1E2522"/>
<path d="M134.524 1H134.16V16H134.524V1Z" fill="#1F2924"/>
<path d="M134.754 1H134.389V16H134.754V1Z" fill="#2C4339"/>
<path d="M134.983 1H134.619V16H134.983V1Z" fill="#273831"/>
<path d="M135.213 1H134.849V16H135.213V1Z" fill="#1C2220"/>
<path d="M135.443 1H135.078V16H135.443V1Z" fill="#171817"/>
<path d="M135.672 1H135.308V16H135.672V1Z" fill="#181B1A"/>
<path d="M135.902 1H135.537V16H135.902V1Z" fill="#24322C"/>
<path d="M136.131 1H135.767V16H136.131V1Z" fill="#222F29"/>
<path d="M136.361 1H135.996V16H136.361V1Z" fill="#181B1A"/>
<path d="M136.59 1H136.226V16H136.59V1Z" fill="#171817"/>
<path d="M136.82 1H136.456V16H136.82V1Z" fill="#191C1B"/>
<path d="M137.05 1H136.685V16H137.05V1Z" fill="#181B1A"/>
<path d="M137.279 1H136.915V16H137.279V1Z" fill="#181B1A"/>
<path d="M137.509 1H137.144V16H137.509V1Z" fill="#1E2723"/>
<path d="M137.738 1H137.374V16H137.738V1Z" fill="#191C1B"/>
<path d="M137.968 1H137.604V16H137.968V1Z" fill="#1D2421"/>
<path d="M138.198 1H137.833V16H138.198V1Z" fill="#191C1B"/>
<path d="M138.427 1H138.063V16H138.427V1Z" fill="#1B1F1D"/>
<path d="M138.657 1H138.292V16H138.657V1Z" fill="#161616"/>
<path d="M138.886 1H138.522V16H138.886V1Z" fill="#1B1F1D"/>
<path d="M139.116 1H138.752V16H139.116V1Z" fill="#181B1A"/>
<path d="M139.346 1H138.981V16H139.346V1Z" fill="#1A1E1C"/>
<path d="M139.575 1H139.211V16H139.575V1Z" fill="#304A3F"/>
<path d="M139.805 1H139.44V16H139.805V1Z" fill="#1A1E1C"/>
<path d="M140.034 1H139.67V16H140.034V1Z" fill="#1B211E"/>
<path d="M140.264 1H139.899V16H140.264V1Z" fill="#171817"/>
<path d="M140.493 1H140.129V16H140.493V1Z" fill="#181B1A"/>
<path d="M140.723 1H140.359V16H140.723V1Z" fill="#171817"/>
<path d="M140.953 1H140.588V16H140.953V1Z" fill="#1B211E"/>
<path d="M141.182 1H140.818V16H141.182V1Z" fill="#171817"/>
<path d="M141.412 1H141.047V16H141.412V1Z" fill="#1C2220"/>
<path d="M141.641 1H141.277V16H141.641V1Z" fill="#161616"/>
<path d="M141.871 1H141.507V16H141.871V1Z" fill="#1C2220"/>
<path d="M142.101 1H141.736V16H142.101V1Z" fill="#191C1B"/>
<path d="M142.33 1H141.966V16H142.33V1Z" fill="#1B211E"/>
<path d="M142.56 1H142.195V16H142.56V1Z" fill="#1D2421"/>
<path d="M142.789 1H142.425V16H142.789V1Z" fill="#1F2924"/>
<path d="M143.019 1H142.654V16H143.019V1Z" fill="#202A26"/>
<path d="M143.248 1H142.884V16H143.248V1Z" fill="#1B211E"/>
<path d="M143.478 1H143.114V16H143.478V1Z" fill="#181B1A"/>
<path d="M143.708 1H143.343V16H143.708V1Z" fill="#171817"/>
<path d="M143.937 1H143.573V16H143.937V1Z" fill="#191C1B"/>
<path d="M144.167 1H143.802V16H144.167V1Z" fill="#1A1E1C"/>
<path d="M144.396 1H144.032V16H144.396V1Z" fill="#1B211E"/>
<path d="M144.626 1H144.262V16H144.626V1Z" fill="#24332D"/>
<path d="M144.856 1H144.491V16H144.856V1Z" fill="#191C1B"/>
<path d="M145.085 1H144.721V16H145.085V1Z" fill="#1E2522"/>
<path d="M145.315 1H144.95V16H145.315V1Z" fill="#181918"/>
<path d="M145.544 1H145.18V16H145.544V1Z" fill="#1D2421"/>
<path d="M145.774 1H145.41V16H145.774V1Z" fill="#212D28"/>
<path d="M146.004 1H145.639V16H146.004V1Z" fill="#24332D"/>
<path d="M146.233 1H145.869V16H146.233V1Z" fill="#273932"/>
<path d="M146.463 1H146.098V16H146.463V1Z" fill="#1B211E"/>
<path d="M146.692 1H146.328V16H146.692V1Z" fill="#181918"/>
<path d="M146.922 1H146.557V16H146.922V1Z" fill="#161616"/>
<path d="M147.151 1H146.787V16H147.151V1Z" fill="#202A26"/>
<path d="M147.381 1H147.017V16H147.381V1Z" fill="#202A26"/>
<path d="M147.611 1H147.246V16H147.611V1Z" fill="#1A1E1C"/>
<path d="M147.84 1H147.476V16H147.84V1Z" fill="#1B211E"/>
<path d="M148.07 1H147.705V16H148.07V1Z" fill="#1C2220"/>
<path d="M148.299 1H147.935V16H148.299V1Z" fill="#1B211E"/>
<path d="M148.529 1H148.165V16H148.529V1Z" fill="#171817"/>
<path d="M148.759 1H148.394V16H148.759V1Z" fill="#1F2924"/>
<path d="M148.988 1H148.624V16H148.988V1Z" fill="#1C2220"/>
<path d="M149.218 1H148.853V16H149.218V1Z" fill="#1C2220"/>
<path d="M149.447 1H149.083V16H149.447V1Z" fill="#1A1E1C"/>
<path d="M149.677 1H149.312V16H149.677V1Z" fill="#191C1B"/>
<path d="M149.906 1H149.542V16H149.906V1Z" fill="#191C1B"/>
<path d="M150.136 1H149.772V16H150.136V1Z" fill="#181918"/>
<path d="M150.366 1H150.001V16H150.366V1Z" fill="#1D2421"/>
<path d="M150.595 1H150.231V16H150.595V1Z" fill="#2B4138"/>
<path d="M150.825 1H150.46V16H150.825V1Z" fill="#24322C"/>
<path d="M151.054 1H150.69V16H151.054V1Z" fill="#1A1E1C"/>
<path d="M151.284 1H150.92V16H151.284V1Z" fill="#171817"/>
<path d="M151.514 1H151.149V16H151.514V1Z" fill="#181918"/>
<path d="M151.743 1H151.379V16H151.743V1Z" fill="#191C1B"/>
<path d="M151.973 1H151.608V16H151.973V1Z" fill="#1D2421"/>
<path d="M152.202 1H151.838V16H152.202V1Z" fill="#477A64"/>
<path d="M152.432 1H152.068V16H152.432V1Z" fill="#6BC39D"/>
<path d="M152.661 1H152.297V16H152.661V1Z" fill="#56997C"/>
<path d="M152.891 1H152.527V16H152.891V1Z" fill="#88FFCC"/>
<path d="M153.121 1H152.756V16H153.121V1Z" fill="#1E2723"/>
<path d="M153.35 1H152.986V16H153.35V1Z" fill="#1B211E"/>
<path d="M153.58 1H153.215V16H153.58V1Z" fill="#212C27"/>
<path d="M153.809 1H153.445V16H153.809V1Z" fill="#1F2924"/>
<path d="M154.039 1H153.675V16H154.039V1Z" fill="#1F2924"/>
<path d="M154.269 1H153.904V16H154.269V1Z" fill="#191C1B"/>
<path d="M154.498 1H154.134V16H154.498V1Z" fill="#181918"/>
<path d="M154.728 1H154.363V16H154.728V1Z" fill="#1C2220"/>
<path d="M154.957 1H154.593V16H154.957V1Z" fill="#181918"/>
<path d="M155.187 1H154.823V16H155.187V1Z" fill="#1C2220"/>
<path d="M155.417 1H155.052V16H155.417V1Z" fill="#1B1F1D"/>
<path d="M155.646 1H155.282V16H155.646V1Z" fill="#181B1A"/>
<path d="M155.876 1H155.511V16H155.876V1Z" fill="#1F2924"/>
<path d="M156.105 1H155.741V16H156.105V1Z" fill="#181B1A"/>
<path d="M156.335 1H155.97V16H156.335V1Z" fill="#1C2220"/>
<path d="M156.564 1H156.2V16H156.564V1Z" fill="#181918"/>
<path d="M156.794 1H156.43V16H156.794V1Z" fill="#1E2522"/>
<path d="M157.024 1H156.659V16H157.024V1Z" fill="#212D28"/>
<path d="M157.253 1H156.889V16H157.253V1Z" fill="#171817"/>
<path d="M157.483 1H157.118V16H157.483V1Z" fill="#1F2924"/>
<path d="M157.712 1H157.348V16H157.712V1Z" fill="#25352E"/>
<path d="M157.942 1H157.578V16H157.942V1Z" fill="#161616"/>
<path d="M158.172 1H157.807V16H158.172V1Z" fill="#191C1B"/>
<path d="M158.401 1H158.037V16H158.401V1Z" fill="#181918"/>
<path d="M158.631 1H158.266V16H158.631V1Z" fill="#2B4138"/>
<path d="M158.86 1H158.496V16H158.86V1Z" fill="#212D28"/>
<path d="M159.09 1H158.725V16H159.09V1Z" fill="#1F2924"/>
<path d="M159.319 1H158.955V16H159.319V1Z" fill="#181B1A"/>
<path d="M159.549 1H159.185V16H159.549V1Z" fill="#181B1A"/>
<path d="M159.779 1H159.414V16H159.779V1Z" fill="#1D2421"/>
<path d="M160.008 1H159.644V16H160.008V1Z" fill="#171817"/>
<path d="M160.238 1H159.873V16H160.238V1Z" fill="#191C1B"/>
<path d="M160.467 1H160.103V16H160.467V1Z" fill="#23302A"/>
<path d="M160.697 1H160.333V16H160.697V1Z" fill="#283B33"/>
<path d="M160.927 1H160.562V16H160.927V1Z" fill="#1C2220"/>
<path d="M161.156 1H160.792V16H161.156V1Z" fill="#1B211E"/>
<path d="M161.386 1H161.021V16H161.386V1Z" fill="#1C2220"/>
<path d="M161.615 1H161.251V16H161.615V1Z" fill="#181B1A"/>
<path d="M161.845 1H161.481V16H161.845V1Z" fill="#1A1E1C"/>
<path d="M162.075 1H161.71V16H162.075V1Z" fill="#202A26"/>
<path d="M162.304 1H161.94V16H162.304V1Z" fill="#1B1F1D"/>
<path d="M162.534 1H162.169V16H162.534V1Z" fill="#1D2421"/>
<path d="M162.763 1H162.399V16H162.763V1Z" fill="#181918"/>
<path d="M162.993 1H162.628V16H162.993V1Z" fill="#212C27"/>
<path d="M163.222 1H162.858V16H163.222V1Z" fill="#1E2522"/>
<path d="M163.452 1H163.088V16H163.452V1Z" fill="#1C2220"/>
<path d="M163.682 1H163.317V16H163.682V1Z" fill="#1B1F1D"/>
<path d="M163.911 1H163.547V16H163.911V1Z" fill="#1B1F1D"/>
<path d="M164.141 1H163.776V16H164.141V1Z" fill="#1F2924"/>
<path d="M164.37 1H164.006V16H164.37V1Z" fill="#161616"/>
<path d="M164.6 1H164.236V16H164.6V1Z" fill="#1E2522"/>
<path d="M164.83 1H164.465V16H164.83V1Z" fill="#25352E"/>
<path d="M165.059 1H164.695V16H165.059V1Z" fill="#191C1B"/>
<path d="M165.289 1H164.924V16H165.289V1Z" fill="#171817"/>
<path d="M165.518 1H165.154V16H165.518V1Z" fill="#181B1A"/>
<path d="M165.748 1H165.383V16H165.748V1Z" fill="#1A1E1C"/>
<path d="M165.977 1H165.613V16H165.977V1Z" fill="#191C1B"/>
<path d="M166.207 1H165.843V16H166.207V1Z" fill="#161616"/>
<path d="M166.437 1H166.072V16H166.437V1Z" fill="#1F2924"/>
<path d="M166.666 1H166.302V16H166.666V1Z" fill="#1B1F1D"/>
<path d="M166.896 1H166.531V16H166.896V1Z" fill="#191C1B"/>
<path d="M167.125 1H166.761V16H167.125V1Z" fill="#1D2421"/>
<path d="M167.355 1H166.991V16H167.355V1Z" fill="#1C2220"/>
<path d="M167.585 1H167.22V16H167.585V1Z" fill="#191C1B"/>
<path d="M167.814 1H167.45V16H167.814V1Z" fill="#222F29"/>
<path d="M168.044 1H167.679V16H168.044V1Z" fill="#1F2924"/>
<path d="M168.273 1H167.909V16H168.273V1Z" fill="#191C1B"/>
<path d="M168.503 1H168.139V16H168.503V1Z" fill="#212C27"/>
<path d="M168.733 1H168.368V16H168.733V1Z" fill="#26362F"/>
<path d="M168.962 1H168.598V16H168.962V1Z" fill="#1D2421"/>
<path d="M169.192 1H168.827V16H169.192V1Z" fill="#1B211E"/>
<path d="M169.421 1H169.057V16H169.421V1Z" fill="#171817"/>
<path d="M169.651 1H169.286V16H169.651V1Z" fill="#1E2522"/>
<path d="M169.88 1H169.516V16H169.88V1Z" fill="#1A1E1C"/>
<path d="M170.11 1H169.746V16H170.11V1Z" fill="#273932"/>
<path d="M170.34 1H169.975V16H170.34V1Z" fill="#212D28"/>
<path d="M170.569 1H170.205V16H170.569V1Z" fill="#1B211E"/>
<path d="M170.799 1H170.434V16H170.799V1Z" fill="#191C1B"/>
<path d="M171.028 1H170.664V16H171.028V1Z" fill="#181B1A"/>
<path d="M171.258 1H170.894V16H171.258V1Z" fill="#1B211E"/>
<path d="M171.488 1H171.123V16H171.488V1Z" fill="#1B211E"/>
<path d="M171.717 1H171.353V16H171.717V1Z" fill="#25352E"/>
<path d="M171.947 1H171.582V16H171.947V1Z" fill="#1B211E"/>
<path d="M172.176 1H171.812V16H172.176V1Z" fill="#1E2522"/>
<path d="M172.406 1H172.041V16H172.406V1Z" fill="#171817"/>
<path d="M172.635 1H172.271V16H172.635V1Z" fill="#1B211E"/>
<path d="M172.865 1H172.501V16H172.865V1Z" fill="#181B1A"/>
<path d="M173.095 1H172.73V16H173.095V1Z" fill="#1D2421"/>
<path d="M173.324 1H172.96V16H173.324V1Z" fill="#1D2421"/>
<path d="M173.554 1H173.189V16H173.554V1Z" fill="#1E2522"/>
<path d="M173.783 1H173.419V16H173.783V1Z" fill="#1A1E1C"/>
<path d="M174.013 1H173.649V16H174.013V1Z" fill="#191C1B"/>
<path d="M174.243 1H173.878V16H174.243V1Z" fill="#181B1A"/>
<path d="M174.472 1H174.108V16H174.472V1Z" fill="#181918"/>
<path d="M174.702 1H174.337V16H174.702V1Z" fill="#1B211E"/>
<path d="M174.931 1H174.567V16H174.931V1Z" fill="#273831"/>
<path d="M175.161 1H174.797V16H175.161V1Z" fill="#324F43"/>
<path d="M175.39 1H175.026V16H175.39V1Z" fill="#1B1F1D"/>
<path d="M175.62 1H175.256V16H175.62V1Z" fill="#181918"/>
<path d="M175.85 1H175.485V16H175.85V1Z" fill="#1B1F1D"/>
<path d="M176.079 1H175.715V16H176.079V1Z" fill="#4D876E"/>
<path d="M176.309 1H175.944V16H176.309V1Z" fill="#6EC9A2"/>
<path d="M176.538 1H176.174V16H176.538V1Z" fill="#6CC69F"/>
<path d="M176.768 1H176.404V16H176.768V1Z" fill="#191C1B"/>
<path d="M176.998 1H176.633V16H176.998V1Z" fill="#181B1A"/>
<path d="M177.227 1H176.863V16H177.227V1Z" fill="#181918"/>
<path d="M177.457 1H177.092V16H177.457V1Z" fill="#1C2220"/>
<path d="M177.686 1H177.322V16H177.686V1Z" fill="#1E2522"/>
<path d="M177.916 1H177.552V16H177.916V1Z" fill="#202A26"/>
<path d="M178.146 1H177.781V16H178.146V1Z" fill="#5BA284"/>
<path d="M178.375 1H178.011V16H178.375V1Z" fill="#1D2421"/>
<path d="M178.605 1H178.24V16H178.605V1Z" fill="#1C2220"/>
<path d="M178.834 1H178.47V16H178.834V1Z" fill="#181918"/>
<path d="M179.064 1H178.699V16H179.064V1Z" fill="#273932"/>
<path d="M179.293 1H178.929V16H179.293V1Z" fill="#1A1E1C"/>
<path d="M179.523 1H179.159V16H179.523V1Z" fill="#293D34"/>
<path d="M179.753 1H179.388V16H179.753V1Z" fill="#202A26"/>
<path d="M179.982 1H179.618V16H179.982V1Z" fill="#26362F"/>
<path d="M180.212 1H179.847V16H180.212V1Z" fill="#212C27"/>
<path d="M180.441 1H180.077V16H180.441V1Z" fill="#1F2924"/>
<path d="M180.671 1H180.307V16H180.671V1Z" fill="#1B1F1D"/>
<path d="M180.901 1H180.536V16H180.901V1Z" fill="#1F2924"/>
<path d="M181.13 1H180.766V16H181.13V1Z" fill="#1F2924"/>
<path d="M181.36 1H180.995V16H181.36V1Z" fill="#2D463B"/>
<path d="M181.589 1H181.225V16H181.589V1Z" fill="#335144"/>
<path d="M181.819 1H181.454V16H181.819V1Z" fill="#191C1B"/>
<path d="M182.048 1H181.684V16H182.048V1Z" fill="#181B1A"/>
<path d="M182.278 1H181.914V16H182.278V1Z" fill="#1E2723"/>
<path d="M182.508 1H182.143V16H182.508V1Z" fill="#24322C"/>
<path d="M182.737 1H182.373V16H182.737V1Z" fill="#24322C"/>
<path d="M182.967 1H182.602V16H182.967V1Z" fill="#293D34"/>
<path d="M183.196 1H182.832V16H183.196V1Z" fill="#2F493E"/>
<path d="M183.426 1H183.062V16H183.426V1Z" fill="#1E2522"/>
<path d="M183.656 1H183.291V16H183.656V1Z" fill="#181918"/>
<path d="M183.885 1H183.521V16H183.885V1Z" fill="#212C27"/>
<path d="M184.115 1H183.75V16H184.115V1Z" fill="#24332D"/>
<path d="M184.344 1H183.98V16H184.344V1Z" fill="#222F29"/>
<path d="M184.574 1H184.21V16H184.574V1Z" fill="#2D443A"/>
<path d="M184.804 1H184.439V16H184.804V1Z" fill="#23302A"/>
<path d="M185.033 1H184.669V16H185.033V1Z" fill="#1E2723"/>
<path d="M185.263 1H184.898V16H185.263V1Z" fill="#191C1B"/>
<path d="M185.492 1H185.128V16H185.492V1Z" fill="#1A1E1C"/>
<path d="M185.722 1H185.357V16H185.722V1Z" fill="#1E2723"/>
<path d="M185.951 1H185.587V16H185.951V1Z" fill="#202A26"/>
<path d="M186.181 1H185.817V16H186.181V1Z" fill="#1E2723"/>
<path d="M186.411 1H186.046V16H186.411V1Z" fill="#1E2723"/>
<path d="M186.64 1H186.276V16H186.64V1Z" fill="#1B211E"/>
<path d="M186.87 1H186.505V16H186.87V1Z" fill="#1E2723"/>
<path d="M187.099 1H186.735V16H187.099V1Z" fill="#181918"/>
<path d="M187.329 1H186.965V16H187.329V1Z" fill="#202A26"/>
<path d="M187.559 1H187.194V16H187.559V1Z" fill="#1E2522"/>
<path d="M187.788 1H187.424V16H187.788V1Z" fill="#1C2220"/>
<path d="M188.018 1H187.653V16H188.018V1Z" fill="#1E2723"/>
<path d="M188.247 1H187.883V16H188.247V1Z" fill="#171817"/>
<path d="M188.477 1H188.112V16H188.477V1Z" fill="#171817"/>
<path d="M188.706 1H188.342V16H188.706V1Z" fill="#181B1A"/>
<path d="M188.936 1H188.572V16H188.936V1Z" fill="#1D2421"/>
<path d="M189.166 1H188.801V16H189.166V1Z" fill="#191C1B"/>
<path d="M189.395 1H189.031V16H189.395V1Z" fill="#181918"/>
<path d="M189.625 1H189.26V16H189.625V1Z" fill="#1B211E"/>
<path d="M189.854 1H189.49V16H189.854V1Z" fill="#25352E"/>
<path d="M190.084 1H189.72V16H190.084V1Z" fill="#1C2220"/>
<path d="M190.314 1H189.949V16H190.314V1Z" fill="#1A1E1C"/>
<path d="M190.543 1H190.179V16H190.543V1Z" fill="#26362F"/>
<path d="M190.773 1H190.408V16H190.773V1Z" fill="#2F493E"/>
<path d="M191.002 1H190.638V16H191.002V1Z" fill="#26362F"/>
<path d="M191.232 1H190.867V16H191.232V1Z" fill="#1A1E1C"/>
<path d="M191.462 1H191.097V16H191.462V1Z" fill="#1A1E1C"/>
<path d="M191.691 1H191.327V16H191.691V1Z" fill="#191C1B"/>
<path d="M191.921 1H191.556V16H191.921V1Z" fill="#1C2220"/>
<path d="M192.15 1H191.786V16H192.15V1Z" fill="#293D34"/>
<path d="M192.38 1H192.015V16H192.38V1Z" fill="#23302A"/>
<path d="M192.609 1H192.245V16H192.609V1Z" fill="#181918"/>
<path d="M192.839 1H192.475V16H192.839V1Z" fill="#161616"/>
<path d="M193.069 1H192.704V16H193.069V1Z" fill="#1A1E1C"/>
<path d="M193.298 1H192.934V16H193.298V1Z" fill="#1E2723"/>
<path d="M193.528 1H193.163V16H193.528V1Z" fill="#181918"/>
<path d="M193.757 1H193.393V16H193.757V1Z" fill="#26362F"/>
<path d="M193.987 1H193.623V16H193.987V1Z" fill="#1E2522"/>
<path d="M194.217 1H193.852V16H194.217V1Z" fill="#65B895"/>
<path d="M194.446 1H194.082V16H194.446V1Z" fill="#2F493E"/>
<path d="M194.676 1H194.311V16H194.676V1Z" fill="#273831"/>
<path d="M194.905 1H194.541V16H194.905V1Z" fill="#4C846C"/>
<path d="M195.135 1H194.77V16H195.135V1Z" fill="#212C27"/>
<path d="M195.364 1H195V16H195.364V1Z" fill="#23302A"/>
<path d="M195.594 1H195.23V16H195.594V1Z" fill="#273831"/>
<path d="M195.824 1H195.459V16H195.824V1Z" fill="#202A26"/>
<path d="M196.053 1H195.689V16H196.053V1Z" fill="#191C1B"/>
<path d="M196.283 1H195.918V16H196.283V1Z" fill="#1D2421"/>
<path d="M196.512 1H196.148V16H196.512V1Z" fill="#161616"/>
<path d="M196.742 1H196.378V16H196.742V1Z" fill="#171817"/>
<path d="M196.972 1H196.607V16H196.972V1Z" fill="#1A1E1C"/>
<path d="M197.201 1H196.837V16H197.201V1Z" fill="#529075"/>
<path d="M197.431 1H197.066V16H197.431V1Z" fill="#355547"/>
<path d="M197.66 1H197.296V16H197.66V1Z" fill="#3A6050"/>
<path d="M197.89 1H197.526V16H197.89V1Z" fill="#406C59"/>
<path d="M198.119 1H197.755V16H198.119V1Z" fill="#222F29"/>
<path d="M198.349 1H197.985V16H198.349V1Z" fill="#161616"/>
<path d="M198.579 1H198.214V16H198.579V1Z" fill="#191C1B"/>
<path d="M198.808 1H198.444V16H198.808V1Z" fill="#191C1B"/>
<path d="M199.038 1H198.673V16H199.038V1Z" fill="#24332D"/>
<path d="M199.267 1H198.903V16H199.267V1Z" fill="#1B1F1D"/>
<path d="M199.497 1H199.133V16H199.497V1Z" fill="#1C2220"/>
<path d="M199.727 1H199.362V16H199.727V1Z" fill="#191C1B"/>
<path d="M199.956 1H199.592V16H199.956V1Z" fill="#181918"/>
<path d="M200.186 1H199.821V16H200.186V1Z" fill="#1A1E1C"/>
<path d="M200.415 1H200.051V16H200.415V1Z" fill="#1C2220"/>
<path d="M200.645 1H200.281V16H200.645V1Z" fill="#23302A"/>
<path d="M200.875 1H200.51V16H200.875V1Z" fill="#273932"/>
<path d="M201.104 1H200.74V16H201.104V1Z" fill="#24332D"/>
<path d="M201.334 1H200.969V16H201.334V1Z" fill="#1E2522"/>
<path d="M201.563 1H201.199V16H201.563V1Z" fill="#24322C"/>
<path d="M201.793 1H201.428V16H201.793V1Z" fill="#1C2220"/>
<path d="M202.022 1H201.658V16H202.022V1Z" fill="#1B211E"/>
<path d="M202.252 1H201.888V16H202.252V1Z" fill="#1B211E"/>
<path d="M202.482 1H202.117V16H202.482V1Z" fill="#1E2522"/>
<path d="M202.711 1H202.347V16H202.711V1Z" fill="#1A1E1C"/>
<path d="M202.941 1H202.576V16H202.941V1Z" fill="#1B1F1D"/>
<path d="M203.17 1H202.806V16H203.17V1Z" fill="#1A1E1C"/>
<path d="M203.4 1H203.036V16H203.4V1Z" fill="#1B1F1D"/>
<path d="M203.63 1H203.265V16H203.63V1Z" fill="#1D2421"/>
<path d="M203.859 1H203.495V16H203.859V1Z" fill="#1C2220"/>
<path d="M204.089 1H203.724V16H204.089V1Z" fill="#222F29"/>
<path d="M204.318 1H203.954V16H204.318V1Z" fill="#212D28"/>
<path d="M204.548 1H204.183V16H204.548V1Z" fill="#1E2522"/>
<path d="M204.777 1H204.413V16H204.777V1Z" fill="#1B1F1D"/>
<path d="M205.007 1H204.643V16H205.007V1Z" fill="#1B211E"/>
<path d="M205.237 1H204.872V16H205.237V1Z" fill="#1B211E"/>
<path d="M205.466 1H205.102V16H205.466V1Z" fill="#1C2220"/>
<path d="M205.696 1H205.331V16H205.696V1Z" fill="#181918"/>
<path d="M205.925 1H205.561V16H205.925V1Z" fill="#181B1A"/>
<path d="M206.155 1H205.791V16H206.155V1Z" fill="#1A1E1C"/>
<path d="M206.385 1H206.02V16H206.385V1Z" fill="#171817"/>
<path d="M206.614 1H206.25V16H206.614V1Z" fill="#212D28"/>
<path d="M206.844 1H206.479V16H206.844V1Z" fill="#1B1F1D"/>
<path d="M207.073 1H206.709V16H207.073V1Z" fill="#171817"/>
<path d="M207.303 1H206.939V16H207.303V1Z" fill="#1C2220"/>
<path d="M207.533 1H207.168V16H207.533V1Z" fill="#1E2522"/>
<path d="M207.762 1H207.398V16H207.762V1Z" fill="#1E2522"/>
<path d="M207.992 1H207.627V16H207.992V1Z" fill="#1E2522"/>
<path d="M208.221 1H207.857V16H208.221V1Z" fill="#1D2421"/>
<path d="M208.451 1H208.086V16H208.451V1Z" fill="#1C2220"/>
<path d="M208.68 1H208.316V16H208.68V1Z" fill="#1A1E1C"/>
<path d="M208.91 1H208.546V16H208.91V1Z" fill="#181B1A"/>
<path d="M209.14 1H208.775V16H209.14V1Z" fill="#181918"/>
<path d="M209.369 1H209.005V16H209.369V1Z" fill="#1A1E1C"/>
<path d="M209.599 1H209.234V16H209.599V1Z" fill="#191C1B"/>
<path d="M209.828 1H209.464V16H209.828V1Z" fill="#1A1E1C"/>
<path d="M210.058 1H209.694V16H210.058V1Z" fill="#1A1E1C"/>
<path d="M210.288 1H209.923V16H210.288V1Z" fill="#1D2421"/>
<path d="M210.517 1H210.153V16H210.517V1Z" fill="#1E2723"/>
<path d="M210.747 1H210.382V16H210.747V1Z" fill="#1B1F1D"/>
<path d="M210.976 1H210.612V16H210.976V1Z" fill="#191C1B"/>
<path d="M211.206 1H210.842V16H211.206V1Z" fill="#191C1B"/>
<path d="M211.435 1H211.071V16H211.435V1Z" fill="#181B1A"/>
<path d="M211.665 1H211.301V16H211.665V1Z" fill="#1B1F1D"/>
<path d="M211.895 1H211.53V16H211.895V1Z" fill="#222F29"/>
<path d="M212.124 1H211.76V16H212.124V1Z" fill="#1E2522"/>
<path d="M212.354 1H211.989V16H212.354V1Z" fill="#1E2723"/>
<path d="M212.583 1H212.219V16H212.583V1Z" fill="#1A1E1C"/>
<path d="M212.813 1H212.449V16H212.813V1Z" fill="#1B1F1D"/>
<path d="M213.043 1H212.678V16H213.043V1Z" fill="#202A26"/>
<path d="M213.272 1H212.908V16H213.272V1Z" fill="#1C2220"/>
<path d="M213.502 1H213.137V16H213.502V1Z" fill="#293D34"/>
<path d="M213.731 1H213.367V16H213.731V1Z" fill="#1B211E"/>
<path d="M213.961 1H213.597V16H213.961V1Z" fill="#191C1B"/>
<path d="M214.191 1H213.826V16H214.191V1Z" fill="#181B1A"/>
<path d="M214.42 1H214.056V16H214.42V1Z" fill="#1E2723"/>
<path d="M214.65 1H214.285V16H214.65V1Z" fill="#1C2220"/>
<path d="M214.879 1H214.515V16H214.879V1Z" fill="#395F4F"/>
<path d="M215.109 1H214.744V16H215.109V1Z" fill="#2F493E"/>
<path d="M215.338 1H214.974V16H215.338V1Z" fill="#1C2220"/>
<path d="M215.568 1H215.204V16H215.568V1Z" fill="#181918"/>
<path d="M215.798 1H215.433V16H215.798V1Z" fill="#161616"/>
<path d="M216.027 1H215.663V16H216.027V1Z" fill="#181918"/>
<path d="M216.257 1H215.892V16H216.257V1Z" fill="#1B1F1D"/>
<path d="M216.486 1H216.122V16H216.486V1Z" fill="#24332D"/>
<path d="M216.716 1H216.352V16H216.716V1Z" fill="#1E2723"/>
<path d="M216.946 1H216.581V16H216.946V1Z" fill="#1B211E"/>
<path d="M217.175 1H216.811V16H217.175V1Z" fill="#1E2522"/>
<path d="M217.405 1H217.04V16H217.405V1Z" fill="#181918"/>
<path d="M217.634 1H217.27V16H217.634V1Z" fill="#1D2421"/>
<path d="M217.864 1H217.499V16H217.864V1Z" fill="#1D2421"/>
<path d="M218.093 1H217.729V16H218.093V1Z" fill="#1B211E"/>
<path d="M218.323 1H217.959V16H218.323V1Z" fill="#2A3E35"/>
<path d="M218.553 1H218.188V16H218.553V1Z" fill="#202A26"/>
<path d="M218.782 1H218.418V16H218.782V1Z" fill="#26362F"/>
<path d="M219.012 1H218.647V16H219.012V1Z" fill="#1A1E1C"/>
<path d="M219.241 1H218.877V16H219.241V1Z" fill="#161616"/>
<path d="M219.471 1H219.107V16H219.471V1Z" fill="#212D28"/>
<path d="M219.701 1H219.336V16H219.701V1Z" fill="#212D28"/>
<path d="M219.93 1H219.566V16H219.93V1Z" fill="#1D2421"/>
<path d="M220.16 1H219.795V16H220.16V1Z" fill="#2A3E35"/>
<path d="M220.389 1H220.025V16H220.389V1Z" fill="#1B211E"/>
<path d="M220.619 1H220.255V16H220.619V1Z" fill="#161616"/>
<path d="M220.849 1H220.484V16H220.849V1Z" fill="#171817"/>
<path d="M221.078 1H220.714V16H221.078V1Z" fill="#1B1F1D"/>
<path d="M221.308 1H220.943V16H221.308V1Z" fill="#191C1B"/>
<path d="M221.537 1H221.173V16H221.537V1Z" fill="#212C27"/>
<path d="M221.767 1H221.402V16H221.767V1Z" fill="#1B211E"/>
<path d="M221.996 1H221.632V16H221.996V1Z" fill="#25352E"/>
<path d="M222.226 1H221.862V16H222.226V1Z" fill="#181918"/>
<path d="M222.456 1H222.091V16H222.456V1Z" fill="#181918"/>
<path d="M222.685 1H222.321V16H222.685V1Z" fill="#1D2421"/>
<path d="M222.915 1H222.55V16H222.915V1Z" fill="#191C1B"/>
<path d="M223.144 1H222.78V16H223.144V1Z" fill="#181B1A"/>
<path d="M223.374 1H223.01V16H223.374V1Z" fill="#202A26"/>
<path d="M223.604 1H223.239V16H223.604V1Z" fill="#2A3E35"/>
<path d="M223.833 1H223.469V16H223.833V1Z" fill="#191C1B"/>
<path d="M224.063 1H223.698V16H224.063V1Z" fill="#161616"/>
<path d="M224.292 1H223.928V16H224.292V1Z" fill="#1A1E1C"/>
<path d="M224.522 1H224.157V16H224.522V1Z" fill="#181B1A"/>
<path d="M224.751 1H224.387V16H224.751V1Z" fill="#181B1A"/>
<path d="M224.981 1H224.617V16H224.981V1Z" fill="#181B1A"/>
<path d="M225.211 1H224.846V16H225.211V1Z" fill="#171817"/>
<path d="M225.44 1H225.076V16H225.44V1Z" fill="#161616"/>
<path d="M225.67 1H225.305V16H225.67V1Z" fill="#181B1A"/>
<path d="M225.899 1H225.535V16H225.899V1Z" fill="#161616"/>
<path d="M226.129 1H225.765V16H226.129V1Z" fill="#1E2522"/>
<path d="M226.359 1H225.994V16H226.359V1Z" fill="#1E2723"/>
<path d="M226.588 1H226.224V16H226.588V1Z" fill="#1A1E1C"/>
<path d="M226.818 1H226.453V16H226.818V1Z" fill="#1D2421"/>
<path d="M227.047 1H226.683V16H227.047V1Z" fill="#1E2522"/>
<path d="M227.277 1H226.912V16H227.277V1Z" fill="#181B1A"/>
<path d="M227.506 1H227.142V16H227.506V1Z" fill="#1B211E"/>
<path d="M227.736 1H227.372V16H227.736V1Z" fill="#1C2220"/>
<path d="M227.966 1H227.601V16H227.966V1Z" fill="#1B1F1D"/>
<path d="M228.195 1H227.831V16H228.195V1Z" fill="#171817"/>
<path d="M228.425 1H228.06V16H228.425V1Z" fill="#191C1B"/>
<path d="M228.654 1H228.29V16H228.654V1Z" fill="#181918"/>
<path d="M228.884 1H228.52V16H228.884V1Z" fill="#181918"/>
<path d="M229.114 1H228.749V16H229.114V1Z" fill="#1E2522"/>
<path d="M229.343 1H228.979V16H229.343V1Z" fill="#1C2220"/>
<path d="M229.573 1H229.208V16H229.573V1Z" fill="#181B1A"/>
<path d="M229.802 1H229.438V16H229.802V1Z" fill="#1C2220"/>
<path d="M230.032 1H229.668V16H230.032V1Z" fill="#1A1E1C"/>
<path d="M230.262 1H229.897V16H230.262V1Z" fill="#24322C"/>
<path d="M230.491 1H230.127V16H230.491V1Z" fill="#23302A"/>
<path d="M230.721 1H230.356V16H230.721V1Z" fill="#1B1F1D"/>
<path d="M230.95 1H230.586V16H230.95V1Z" fill="#1B1F1D"/>
<path d="M231.18 1H230.815V16H231.18V1Z" fill="#222F29"/>
<path d="M231.409 1H231.045V16H231.409V1Z" fill="#212C27"/>
<path d="M231.639 1H231.275V16H231.639V1Z" fill="#314E41"/>
<path d="M231.869 1H231.504V16H231.869V1Z" fill="#212D28"/>
<path d="M232.098 1H231.734V16H232.098V1Z" fill="#1F2924"/>
<path d="M232.328 1H231.963V16H232.328V1Z" fill="#1D2421"/>
<path d="M232.557 1H232.193V16H232.557V1Z" fill="#1B1F1D"/>
<path d="M232.787 1H232.423V16H232.787V1Z" fill="#212C27"/>
<path d="M233.017 1H232.652V16H233.017V1Z" fill="#24322C"/>
<path d="M233.246 1H232.882V16H233.246V1Z" fill="#212D28"/>
<path d="M233.476 1H233.111V16H233.476V1Z" fill="#1B1F1D"/>
<path d="M233.705 1H233.341V16H233.705V1Z" fill="#171817"/>
<path d="M233.935 1H233.57V16H233.935V1Z" fill="#1E2522"/>
<path d="M234.164 1H233.8V16H234.164V1Z" fill="#191C1B"/>
<path d="M234.394 1H234.03V16H234.394V1Z" fill="#24322C"/>
<path d="M234.624 1H234.259V16H234.624V1Z" fill="#1E2522"/>
<path d="M234.853 1H234.489V16H234.853V1Z" fill="#181B1A"/>
<path d="M235.083 1H234.718V16H235.083V1Z" fill="#171817"/>
<path d="M235.312 1H234.948V16H235.312V1Z" fill="#1B211E"/>
<path d="M235.542 1H235.178V16H235.542V1Z" fill="#1B211E"/>
<path d="M235.772 1H235.407V16H235.772V1Z" fill="#161616"/>
<path d="M236.001 1H235.637V16H236.001V1Z" fill="#171817"/>
<path d="M236.231 1H235.866V16H236.231V1Z" fill="#202A26"/>
<path d="M236.46 1H236.096V16H236.46V1Z" fill="#3B6251"/>
<path d="M236.69 1H236.326V16H236.69V1Z" fill="#212D28"/>
<path d="M236.92 1H236.555V16H236.92V1Z" fill="#1A1E1C"/>
<path d="M237.149 1H236.785V16H237.149V1Z" fill="#1E2522"/>
<path d="M237.379 1H237.014V16H237.379V1Z" fill="#1B1F1D"/>
<path d="M237.608 1H237.244V16H237.608V1Z" fill="#1B1F1D"/>
<path d="M237.838 1H237.473V16H237.838V1Z" fill="#191C1B"/>
<path d="M238.067 1H237.703V16H238.067V1Z" fill="#1A1E1C"/>
<path d="M238.297 1H237.933V16H238.297V1Z" fill="#171817"/>
<path d="M238.527 1H238.162V16H238.527V1Z" fill="#181B1A"/>
<path d="M238.756 1H238.392V16H238.756V1Z" fill="#171817"/>
<path d="M238.986 1H238.621V16H238.986V1Z" fill="#181918"/>
<path d="M239.215 1H238.851V16H239.215V1Z" fill="#161616"/>
<path d="M239.445 1H239.081V16H239.445V1Z" fill="#1B1F1D"/>
<path d="M239.675 1H239.31V16H239.675V1Z" fill="#181B1A"/>
<path d="M239.904 1H239.54V16H239.904V1Z" fill="#171817"/>
<path d="M240.134 1H239.769V16H240.134V1Z" fill="#181918"/>
<path d="M240.363 1H239.999V16H240.363V1Z" fill="#1E2522"/>
<path d="M240.593 1H240.228V16H240.593V1Z" fill="#191C1B"/>
<path d="M240.822 1H240.458V16H240.822V1Z" fill="#1F2924"/>
<path d="M241.052 1H240.688V16H241.052V1Z" fill="#161616"/>
<path d="M241.282 1H240.917V16H241.282V1Z" fill="#181B1A"/>
<path d="M241.511 1H241.147V16H241.511V1Z" fill="#161616"/>
<path d="M241.741 1H241.376V16H241.741V1Z" fill="#161616"/>
<path d="M241.97 1H241.606V16H241.97V1Z" fill="#161616"/>
<path d="M242.2 1H241.836V16H242.2V1Z" fill="#161616"/>
<path d="M242.43 1H242.065V16H242.43V1Z" fill="#191C1B"/>
<path d="M242.659 1H242.295V16H242.659V1Z" fill="#1B1F1D"/>
<path d="M242.889 1H242.524V16H242.889V1Z" fill="#1B211E"/>
<path d="M243.118 1H242.754V16H243.118V1Z" fill="#161616"/>
<path d="M243.348 1H242.984V16H243.348V1Z" fill="#181B1A"/>
<path d="M243.577 1H243.213V16H243.577V1Z" fill="#181B1A"/>
<path d="M243.807 1H243.443V16H243.807V1Z" fill="#1B1F1D"/>
<path d="M244.037 1H243.672V16H244.037V1Z" fill="#1E2522"/>
<path d="M244.266 1H243.902V16H244.266V1Z" fill="#1E2522"/>
<path d="M244.496 1H244.131V16H244.496V1Z" fill="#191C1B"/>
<path d="M244.725 1H244.361V16H244.725V1Z" fill="#181918"/>
<path d="M244.955 1H244.591V16H244.955V1Z" fill="#1E2522"/>
<path d="M245.185 1H244.82V16H245.185V1Z" fill="#222F29"/>
<path d="M245.414 1H245.05V16H245.414V1Z" fill="#1F2924"/>
<path d="M245.644 1H245.279V16H245.644V1Z" fill="#1E2723"/>
<path d="M245.873 1H245.509V16H245.873V1Z" fill="#23302A"/>
<path d="M246.103 1H245.739V16H246.103V1Z" fill="#1B211E"/>
<path d="M246.333 1H245.968V16H246.333V1Z" fill="#181918"/>
<path d="M246.562 1H246.198V16H246.562V1Z" fill="#191C1B"/>
<path d="M246.792 1H246.427V16H246.792V1Z" fill="#191C1B"/>
<path d="M247.021 1H246.657V16H247.021V1Z" fill="#1F2924"/>
<path d="M247.251 1H246.886V16H247.251V1Z" fill="#181B1A"/>
<path d="M247.48 1H247.116V16H247.48V1Z" fill="#1B211E"/>
<path d="M247.71 1H247.346V16H247.71V1Z" fill="#1E2522"/>
<path d="M247.94 1H247.575V16H247.94V1Z" fill="#181918"/>
<path d="M248.169 1H247.805V16H248.169V1Z" fill="#161616"/>
<path d="M248.399 1H248.034V16H248.399V1Z" fill="#1A1E1C"/>
<path d="M248.628 1H248.264V16H248.628V1Z" fill="#181B1A"/>
<path d="M248.858 1H248.494V16H248.858V1Z" fill="#161616"/>
<path d="M249.088 1H248.723V16H249.088V1Z" fill="#181B1A"/>
<path d="M249.317 1H248.953V16H249.317V1Z" fill="#161616"/>
<path d="M249.547 1H249.182V16H249.547V1Z" fill="#181918"/>
<path d="M249.776 1H249.412V16H249.776V1Z" fill="#191C1B"/>
<path d="M250.006 1H249.641V16H250.006V1Z" fill="#181B1A"/>
<path d="M250.236 1H249.871V16H250.236V1Z" fill="#1E2723"/>
<path d="M250.465 1H250.101V16H250.465V1Z" fill="#1C2220"/>
<path d="M250.695 1H250.33V16H250.695V1Z" fill="#1A1E1C"/>
<path d="M250.924 1H250.56V16H250.924V1Z" fill="#1B1F1D"/>
<path d="M251.154 1H250.789V16H251.154V1Z" fill="#1E2723"/>
<path d="M251.383 1H251.019V16H251.383V1Z" fill="#191C1B"/>
<path d="M251.613 1H251.249V16H251.613V1Z" fill="#1F2924"/>
<path d="M251.843 1H251.478V16H251.843V1Z" fill="#191C1B"/>
<path d="M252.072 1H251.708V16H252.072V1Z" fill="#1E2522"/>
<path d="M252.302 1H251.937V16H252.302V1Z" fill="#24332D"/>
<path d="M252.531 1H252.167V16H252.531V1Z" fill="#202A26"/>
<path d="M252.761 1H252.397V16H252.761V1Z" fill="#1E2723"/>
<path d="M252.991 1H252.626V16H252.991V1Z" fill="#1D2421"/>
<path d="M253.22 1H252.856V16H253.22V1Z" fill="#1B1F1D"/>
<path d="M253.45 1H253.085V16H253.45V1Z" fill="#1B1F1D"/>
<path d="M253.679 1H253.315V16H253.679V1Z" fill="#1B211E"/>
<path d="M253.909 1H253.544V16H253.909V1Z" fill="#273831"/>
<path d="M254.138 1H253.774V16H254.138V1Z" fill="#1E2723"/>
<path d="M254.368 1H254.004V16H254.368V1Z" fill="#1E2723"/>
<path d="M254.598 1H254.233V16H254.598V1Z" fill="#1A1E1C"/>
<path d="M254.827 1H254.463V16H254.827V1Z" fill="#1E2723"/>
<path d="M255.057 1H254.692V16H255.057V1Z" fill="#1A1E1C"/>
<path d="M255.286 1H254.922V16H255.286V1Z" fill="#1D2421"/>
<path d="M255.516 1H255.152V16H255.516V1Z" fill="#1B1F1D"/>
<path d="M255.746 1H255.381V16H255.746V1Z" fill="#1B211E"/>
<path d="M255.975 1H255.611V16H255.975V1Z" fill="#4F8A70"/>
<path d="M256.205 1H255.84V16H256.205V1Z" fill="#202A26"/>
<path d="M256.434 1H256.07V16H256.434V1Z" fill="#202A26"/>
<path d="M256.664 1H256.299V16H256.664V1Z" fill="#26362F"/>
<path d="M256.893 1H256.529V16H256.893V1Z" fill="#1B1F1D"/>
<path d="M257.123 1H256.759V16H257.123V1Z" fill="#1C2220"/>
<path d="M257.353 1H256.988V16H257.353V1Z" fill="#365749"/>
<path d="M257.582 1H257.218V16H257.582V1Z" fill="#1E2723"/>
<path d="M257.812 1H257.447V16H257.812V1Z" fill="#1C2220"/>
<path d="M258.041 1H257.677V16H258.041V1Z" fill="#1C2220"/>
<path d="M258.271 1H257.907V16H258.271V1Z" fill="#1A1E1C"/>
<path d="M258.501 1H258.136V16H258.501V1Z" fill="#1D2421"/>
<path d="M258.73 1H258.366V16H258.73V1Z" fill="#25352E"/>
<path d="M258.96 1H258.595V16H258.96V1Z" fill="#191C1B"/>
<path d="M259.189 1H258.825V16H259.189V1Z" fill="#1B211E"/>
<path d="M259.419 1H259.055V16H259.419V1Z" fill="#273831"/>
<path d="M259.649 1H259.284V16H259.649V1Z" fill="#1C2220"/>
<path d="M259.878 1H259.514V16H259.878V1Z" fill="#222F29"/>
<path d="M260.108 1H259.743V16H260.108V1Z" fill="#24332D"/>
<path d="M260.337 1H259.973V16H260.337V1Z" fill="#2D463B"/>
<path d="M260.567 1H260.202V16H260.567V1Z" fill="#212D28"/>
<path d="M260.796 1H260.432V16H260.796V1Z" fill="#181B1A"/>
<path d="M261.026 1H260.662V16H261.026V1Z" fill="#191C1B"/>
<path d="M261.256 1H260.891V16H261.256V1Z" fill="#1B211E"/>
<path d="M261.485 1H261.121V16H261.485V1Z" fill="#202A26"/>
<path d="M261.715 1H261.35V16H261.715V1Z" fill="#212C27"/>
<path d="M261.944 1H261.58V16H261.944V1Z" fill="#212C27"/>
<path d="M262.174 1H261.81V16H262.174V1Z" fill="#171817"/>
<path d="M262.404 1H262.039V16H262.404V1Z" fill="#161616"/>
<path d="M262.633 1H262.269V16H262.633V1Z" fill="#1A1E1C"/>
<path d="M262.863 1H262.498V16H262.863V1Z" fill="#171817"/>
<path d="M263.092 1H262.728V16H263.092V1Z" fill="#212D28"/>
<path d="M263.322 1H262.957V16H263.322V1Z" fill="#2D463B"/>
<path d="M263.551 1H263.187V16H263.551V1Z" fill="#181B1A"/>
<path d="M263.781 1H263.417V16H263.781V1Z" fill="#181918"/>
<path d="M264.011 1H263.646V16H264.011V1Z" fill="#181918"/>
<path d="M264.24 1H263.876V16H264.24V1Z" fill="#181B1A"/>
<path d="M264.47 1H264.105V16H264.47V1Z" fill="#1B1F1D"/>
<path d="M264.699 1H264.335V16H264.699V1Z" fill="#181B1A"/>
<path d="M264.929 1H264.565V16H264.929V1Z" fill="#1B211E"/>
<path d="M265.159 1H264.794V16H265.159V1Z" fill="#212C27"/>
<path d="M265.388 1H265.024V16H265.388V1Z" fill="#191C1B"/>
<path d="M265.618 1H265.253V16H265.618V1Z" fill="#171817"/>
<path d="M265.847 1H265.483V16H265.847V1Z" fill="#181918"/>
<path d="M266.077 1H265.713V16H266.077V1Z" fill="#181918"/>
<path d="M266.307 1H265.942V16H266.307V1Z" fill="#1A1E1C"/>
<path d="M266.536 1H266.172V16H266.536V1Z" fill="#1B211E"/>
<path d="M266.766 1H266.401V16H266.766V1Z" fill="#181B1A"/>
<path d="M266.995 1H266.631V16H266.995V1Z" fill="#191C1B"/>
<path d="M267.225 1H266.86V16H267.225V1Z" fill="#161616"/>
<path d="M267.454 1H267.09V16H267.454V1Z" fill="#171817"/>
<path d="M267.684 1H267.32V16H267.684V1Z" fill="#181918"/>
<path d="M267.914 1H267.549V16H267.914V1Z" fill="#161616"/>
<path d="M268.143 1H267.779V16H268.143V1Z" fill="#1D2421"/>
<path d="M268.373 1H268.008V16H268.373V1Z" fill="#1F2924"/>
<path d="M268.602 1H268.238V16H268.602V1Z" fill="#1B1F1D"/>
<path d="M268.832 1H268.468V16H268.832V1Z" fill="#181918"/>
<path d="M269.062 1H268.697V16H269.062V1Z" fill="#161616"/>
<path d="M269.291 1H268.927V16H269.291V1Z" fill="#1B1F1D"/>
<path d="M269.521 1H269.156V16H269.521V1Z" fill="#1B211E"/>
<path d="M269.75 1H269.386V16H269.75V1Z" fill="#181B1A"/>
<path d="M269.98 1H269.615V16H269.98V1Z" fill="#181918"/>
<path d="M270.209 1H269.845V16H270.209V1Z" fill="#191C1B"/>
<path d="M270.439 1H270.075V16H270.439V1Z" fill="#161616"/>
<path d="M270.669 1H270.304V16H270.669V1Z" fill="#1F2924"/>
<path d="M270.898 1H270.534V16H270.898V1Z" fill="#1B211E"/>
<path d="M271.128 1H270.763V16H271.128V1Z" fill="#283B33"/>
<path d="M271.357 1H270.993V16H271.357V1Z" fill="#477A64"/>
<path d="M271.587 1H271.223V16H271.587V1Z" fill="#345446"/>
<path d="M271.817 1H271.452V16H271.817V1Z" fill="#283B33"/>
<path d="M272.046 1H271.682V16H272.046V1Z" fill="#181B1A"/>
<path d="M272.276 1H271.911V16H272.276V1Z" fill="#161616"/>
<path d="M272.505 1H272.141V16H272.505V1Z" fill="#181B1A"/>
<path d="M272.735 1H272.37V16H272.735V1Z" fill="#181B1A"/>
<path d="M272.965 1H272.6V16H272.965V1Z" fill="#1C2220"/>
<path d="M273.194 1H272.83V16H273.194V1Z" fill="#181B1A"/>
<path d="M273.424 1H273.059V16H273.424V1Z" fill="#181918"/>
<path d="M273.653 1H273.289V16H273.653V1Z" fill="#171817"/>
<path d="M273.883 1H273.518V16H273.883V1Z" fill="#181B1A"/>
<path d="M274.112 1H273.748V16H274.112V1Z" fill="#191C1B"/>
<path d="M274.342 1H273.978V16H274.342V1Z" fill="#181918"/>
<path d="M274.572 1H274.207V16H274.572V1Z" fill="#23302A"/>
<path d="M274.801 1H274.437V16H274.801V1Z" fill="#1E2723"/>
<path d="M275.031 1H274.666V16H275.031V1Z" fill="#181B1A"/>
<path d="M275.26 1H274.896V16H275.26V1Z" fill="#161616"/>
<path d="M275.49 1H275.126V16H275.49V1Z" fill="#191C1B"/>
<path d="M275.72 1H275.355V16H275.72V1Z" fill="#1B1F1D"/>
<path d="M275.949 1H275.585V16H275.949V1Z" fill="#1C2220"/>
<path d="M276.179 1H275.814V16H276.179V1Z" fill="#1A1E1C"/>
<path d="M276.408 1H276.044V16H276.408V1Z" fill="#1E2723"/>
<path d="M276.638 1H276.273V16H276.638V1Z" fill="#171817"/>
<path d="M276.867 1H276.503V16H276.867V1Z" fill="#191C1B"/>
<path d="M277.097 1H276.733V16H277.097V1Z" fill="#161616"/>
<path d="M277.327 1H276.962V16H277.327V1Z" fill="#171817"/>
<path d="M277.556 1H277.192V16H277.556V1Z" fill="#1B1F1D"/>
<path d="M277.786 1H277.421V16H277.786V1Z" fill="#23302A"/>
<path d="M278.015 1H277.651V16H278.015V1Z" fill="#1F2924"/>
<path d="M278.245 1H277.881V16H278.245V1Z" fill="#202A26"/>
<path d="M278.475 1H278.11V16H278.475V1Z" fill="#1F2924"/>
<path d="M278.704 1H278.34V16H278.704V1Z" fill="#171817"/>
<path d="M278.934 1H278.569V16H278.934V1Z" fill="#1B211E"/>
<path d="M279.163 1H278.799V16H279.163V1Z" fill="#1E2723"/>
<path d="M279.393 1H279.029V16H279.393V1Z" fill="#23302A"/>
<path d="M279.622 1H279.258V16H279.622V1Z" fill="#1E2522"/>
<path d="M279.852 1H279.488V16H279.852V1Z" fill="#161616"/>
<path d="M280.082 1H279.717V16H280.082V1Z" fill="#1C2220"/>
<path d="M280.311 1H279.947V16H280.311V1Z" fill="#1A1E1C"/>
<path d="M280.541 1H280.176V16H280.541V1Z" fill="#1E2522"/>
<path d="M280.77 1H280.406V16H280.77V1Z" fill="#191C1B"/>
<path d="M281 1H280.636V16H281V1Z" fill="#202A26"/>
<rect x="0.5" y="0.5" width="281" height="16" stroke="#717171"/>
<path d="M131 17L129.557 19.5L132.443 19.5L131 17ZM130.75 17.75L130.75 18.25L131.25 18.25L131.25 17.75L130.75 17.75ZM130.75 18.75L130.75 19.25L131.25 19.25L131.25 18.75L130.75 18.75ZM130.75 19.75L130.75 20.25L131.25 20.25L131.25 19.75L130.75 19.75ZM130.75 20.75L130.75 21.25L131.25 21.25L131.25 20.75L130.75 20.75ZM130.75 21.75L130.75 22.25L131.25 22.25L131.25 21.75L130.75 21.75ZM130.75 22.75L130.75 23L131.25 23L131.25 22.75L130.75 22.75Z" fill="white"/>
<path d="M130.971 28.072C132.003 28.072 132.579 27.442 132.579 26.59C132.579 25.75 132.003 25.258 131.289 25.258C130.755 25.258 130.557 25.528 130.389 25.924H130.341L130.431 24.598H132.333V23.812H129.771L129.615 26.182L130.353 26.284C130.461 26.158 130.677 25.99 131.001 25.99C131.391 25.99 131.631 26.23 131.631 26.614V26.662C131.631 27.07 131.409 27.34 130.977 27.34C130.545 27.34 130.311 27.076 130.131 26.752L129.477 27.268C129.729 27.694 130.161 28.072 130.971 28.072Z" fill="white"/>
<path d="M176 17L174.557 19.5L177.443 19.5L176 17ZM175.75 17.75L175.75 18.25L176.25 18.25L176.25 17.75L175.75 17.75ZM175.75 18.75L175.75 19.25L176.25 19.25L176.25 18.75L175.75 18.75ZM175.75 19.75L175.75 20.25L176.25 20.25L176.25 19.75L175.75 19.75ZM175.75 20.75L175.75 21.25L176.25 21.25L176.25 20.75L175.75 20.75ZM175.75 21.75L175.75 22.25L176.25 22.25L176.25 21.75L175.75 21.75ZM175.75 22.75L175.75 23L176.25 23L176.25 22.75L175.75 22.75Z" fill="white"/>
<path d="M172.744 28H175.708V27.244H173.728L174.508 26.632C175.108 26.158 175.624 25.72 175.624 25C175.624 24.274 175.102 23.74 174.196 23.74C173.326 23.74 172.84 24.226 172.654 24.808L173.44 25.108C173.524 24.79 173.716 24.52 174.112 24.52C174.382 24.52 174.664 24.682 174.664 25V25.084C174.664 25.438 174.502 25.672 174.034 26.074L172.744 27.178V28Z" fill="white"/>
<path d="M178 17L176.557 19.5L179.443 19.5L178 17ZM177.75 17.75L177.75 18.25L178.25 18.25L178.25 17.75L177.75 17.75ZM177.75 18.75L177.75 19.25L178.25 19.25L178.25 18.75L177.75 18.75ZM177.75 19.75L177.75 20.25L178.25 20.25L178.25 19.75L177.75 19.75ZM177.75 20.75L177.75 21.25L178.25 21.25L178.25 20.75L177.75 20.75ZM177.75 21.75L177.75 22.25L178.25 22.25L178.25 21.75L177.75 21.75ZM177.75 22.75L177.75 23L178.25 23L178.25 22.75L177.75 22.75Z" fill="white"/>
<path d="M178.932 28H179.79V27.196H180.318V26.5H179.79V23.812H178.722L177.09 26.428V27.196H178.932V28ZM177.81 26.5L178.872 24.742H178.932V26.5H177.81Z" fill="white"/>
<path d="M152.5 17L151.057 19.5L153.943 19.5L152.5 17ZM152.25 17.75L152.25 18.25L152.75 18.25L152.75 17.75L152.25 17.75ZM152.25 18.75L152.25 19.25L152.75 19.25L152.75 18.75L152.25 18.75ZM152.25 19.75L152.25 20.25L152.75 20.25L152.75 19.75L152.25 19.75ZM152.25 20.75L152.25 21.25L152.75 21.25L152.75 20.75L152.25 20.75ZM152.25 21.75L152.25 22.25L152.75 22.25L152.75 21.75L152.25 21.75ZM152.25 22.75L152.25 23L152.75 23L152.75 22.75L152.25 22.75Z" fill="white"/>
<path d="M151.265 28H154.181V27.274H153.293V23.812H151.913L150.911 25.132L151.487 25.582L152.339 24.466H152.393V27.274H151.265V28Z" fill="white"/>
<path d="M194 17L192.557 19.5L195.443 19.5L194 17ZM193.75 17.75L193.75 18.25L194.25 18.25L194.25 17.75L193.75 17.75ZM193.75 18.75L193.75 19.25L194.25 19.25L194.25 18.75L193.75 18.75ZM193.75 19.75L193.75 20.25L194.25 20.25L194.25 19.75L193.75 19.75ZM193.75 20.75L193.75 21.25L194.25 21.25L194.25 20.75L193.75 20.75ZM193.75 21.75L193.75 22.25L194.25 22.25L194.25 21.75L193.75 21.75ZM193.75 22.75L193.75 23L194.25 23L194.25 22.75L193.75 22.75Z" fill="white"/>
<path d="M193.845 28.072C194.793 28.072 195.435 27.586 195.435 26.836C195.435 26.26 195.063 25.918 194.565 25.828V25.792C194.997 25.714 195.363 25.384 195.363 24.85C195.363 24.178 194.781 23.74 193.881 23.74C193.161 23.74 192.753 24.028 192.435 24.442L192.999 24.97C193.209 24.652 193.515 24.472 193.851 24.472C194.205 24.472 194.415 24.676 194.415 24.976V25.018C194.415 25.276 194.217 25.468 193.773 25.468H193.383V26.218H193.761C194.217 26.218 194.493 26.392 194.493 26.734V26.77C194.493 27.118 194.253 27.34 193.845 27.34C193.395 27.34 193.143 27.094 192.963 26.752L192.297 27.268C192.567 27.694 192.993 28.072 193.845 28.072Z" fill="white"/>
</svg>
