<svg width="1026" height="46" viewBox="0 0 1026 46" fill="none" xmlns="http://www.w3.org/2000/svg">
<path d="M2.33269 1H1V16H2.33269V1Z" fill="#181B1A"/>
<path d="M3.17229 1H1.8396V16H3.17229V1Z" fill="#161616"/>
<path d="M4.01189 1H2.6792V16H4.01189V1Z" fill="#171817"/>
<path d="M4.85161 1H3.51892V16H4.85161V1Z" fill="#181919"/>
<path d="M5.69121 1H4.35852V16H5.69121V1Z" fill="#171817"/>
<path d="M6.53081 1H5.19812V16H6.53081V1Z" fill="#161616"/>
<path d="M7.37041 1H6.03772V16H7.37041V1Z" fill="#161616"/>
<path d="M8.21013 1H6.87744V16H8.21013V1Z" fill="#191D1B"/>
<path d="M9.04973 1H7.71704V16H9.04973V1Z" fill="#171817"/>
<path d="M9.88933 1H8.55664V16H9.88933V1Z" fill="#161616"/>
<path d="M10.7289 1H9.39624V16H10.7289V1Z" fill="#161616"/>
<path d="M11.5687 1H10.236V16H11.5687V1Z" fill="#161616"/>
<path d="M12.4083 1H11.0756V16H12.4083V1Z" fill="#161616"/>
<path d="M13.2479 1H11.9152V16H13.2479V1Z" fill="#181919"/>
<path d="M14.0875 1H12.7548V16H14.0875V1Z" fill="#171817"/>
<path d="M14.9272 1H13.5945V16H14.9272V1Z" fill="#161616"/>
<path d="M15.7668 1H14.4341V16H15.7668V1Z" fill="#171817"/>
<path d="M16.6064 1H15.2737V16H16.6064V1Z" fill="#181919"/>
<path d="M17.446 1H16.1133V16H17.446V1Z" fill="#171817"/>
<path d="M18.2856 1H16.9529V16H18.2856V1Z" fill="#181919"/>
<path d="M19.1253 1H17.7926V16H19.1253V1Z" fill="#161616"/>
<path d="M19.9649 1H18.6322V16H19.9649V1Z" fill="#181919"/>
<path d="M20.8045 1H19.4718V16H20.8045V1Z" fill="#181919"/>
<path d="M21.6441 1H20.3114V16H21.6441V1Z" fill="#181919"/>
<path d="M22.4838 1H21.1511V16H22.4838V1Z" fill="#161616"/>
<path d="M23.3234 1H21.9907V16H23.3234V1Z" fill="#161616"/>
<path d="M24.163 1H22.8303V16H24.163V1Z" fill="#161616"/>
<path d="M25.0026 1H23.6699V16H25.0026V1Z" fill="#171817"/>
<path d="M25.8423 1H24.5096V16H25.8423V1Z" fill="#161616"/>
<path d="M26.6819 1H25.3492V16H26.6819V1Z" fill="#161616"/>
<path d="M27.5215 1H26.1888V16H27.5215V1Z" fill="#171817"/>
<path d="M28.3611 1H27.0284V16H28.3611V1Z" fill="#171817"/>
<path d="M29.2009 1H27.8682V16H29.2009V1Z" fill="#161616"/>
<path d="M30.0405 1H28.7078V16H30.0405V1Z" fill="#191D1B"/>
<path d="M30.8801 1H29.5474V16H30.8801V1Z" fill="#181B1A"/>
<path d="M31.7197 1H30.387V16H31.7197V1Z" fill="#1B201E"/>
<path d="M32.5593 1H31.2266V16H32.5593V1Z" fill="#191D1B"/>
<path d="M33.399 1H32.0663V16H33.399V1Z" fill="#161616"/>
<path d="M34.2386 1H32.9059V16H34.2386V1Z" fill="#161616"/>
<path d="M35.0782 1H33.7455V16H35.0782V1Z" fill="#161616"/>
<path d="M35.9178 1H34.5851V16H35.9178V1Z" fill="#171817"/>
<path d="M36.7575 1H35.4248V16H36.7575V1Z" fill="#161616"/>
<path d="M37.5971 1H36.2644V16H37.5971V1Z" fill="#1C2320"/>
<path d="M38.4367 1H37.104V16H38.4367V1Z" fill="#171817"/>
<path d="M39.2763 1H37.9436V16H39.2763V1Z" fill="#181919"/>
<path d="M40.116 1H38.7833V16H40.116V1Z" fill="#161616"/>
<path d="M40.9556 1H39.6229V16H40.9556V1Z" fill="#171817"/>
<path d="M41.7952 1H40.4625V16H41.7952V1Z" fill="#161616"/>
<path d="M42.6348 1H41.3021V16H42.6348V1Z" fill="#171817"/>
<path d="M43.4745 1H42.1418V16H43.4745V1Z" fill="#161616"/>
<path d="M44.3141 1H42.9814V16H44.3141V1Z" fill="#161616"/>
<path d="M45.1537 1H43.821V16H45.1537V1Z" fill="#161616"/>
<path d="M45.9933 1H44.6606V16H45.9933V1Z" fill="#161616"/>
<path d="M46.8329 1H45.5002V16H46.8329V1Z" fill="#161616"/>
<path d="M47.6727 1H46.34V16H47.6727V1Z" fill="#171817"/>
<path d="M48.5123 1H47.1796V16H48.5123V1Z" fill="#181B1A"/>
<path d="M49.3519 1H48.0192V16H49.3519V1Z" fill="#1C221F"/>
<path d="M50.1915 1H48.8588V16H50.1915V1Z" fill="#161616"/>
<path d="M51.0312 1H49.6985V16H51.0312V1Z" fill="#1C2320"/>
<path d="M51.8708 1H50.5381V16H51.8708V1Z" fill="#1A1E1C"/>
<path d="M52.7104 1H51.3777V16H52.7104V1Z" fill="#161616"/>
<path d="M53.55 1H52.2173V16H53.55V1Z" fill="#171817"/>
<path d="M54.3897 1H53.057V16H54.3897V1Z" fill="#191D1B"/>
<path d="M55.2293 1H53.8966V16H55.2293V1Z" fill="#181B1A"/>
<path d="M56.0689 1H54.7362V16H56.0689V1Z" fill="#161616"/>
<path d="M56.9085 1H55.5758V16H56.9085V1Z" fill="#171817"/>
<path d="M57.7482 1H56.4155V16H57.7482V1Z" fill="#161616"/>
<path d="M58.5878 1H57.2551V16H58.5878V1Z" fill="#161616"/>
<path d="M59.4274 1H58.0947V16H59.4274V1Z" fill="#171817"/>
<path d="M60.267 1H58.9343V16H60.267V1Z" fill="#161616"/>
<path d="M61.1066 1H59.7739V16H61.1066V1Z" fill="#171817"/>
<path d="M61.9463 1H60.6136V16H61.9463V1Z" fill="#1B201E"/>
<path d="M62.7859 1H61.4532V16H62.7859V1Z" fill="#1C2320"/>
<path d="M63.6255 1H62.2928V16H63.6255V1Z" fill="#1A1E1C"/>
<path d="M64.4651 1H63.1324V16H64.4651V1Z" fill="#1C2320"/>
<path d="M65.3049 1H63.9722V16H65.3049V1Z" fill="#161616"/>
<path d="M66.1445 1H64.8118V16H66.1445V1Z" fill="#161616"/>
<path d="M66.9841 1H65.6514V16H66.9841V1Z" fill="#161616"/>
<path d="M67.8237 1H66.491V16H67.8237V1Z" fill="#181919"/>
<path d="M68.6634 1H67.3307V16H68.6634V1Z" fill="#181919"/>
<path d="M69.503 1H68.1703V16H69.503V1Z" fill="#161616"/>
<path d="M70.3426 1H69.0099V16H70.3426V1Z" fill="#191D1B"/>
<path d="M71.1822 1H69.8495V16H71.1822V1Z" fill="#161616"/>
<path d="M72.0219 1H70.6892V16H72.0219V1Z" fill="#191D1B"/>
<path d="M72.8615 1H71.5288V16H72.8615V1Z" fill="#181B1A"/>
<path d="M73.7011 1H72.3684V16H73.7011V1Z" fill="#1C2320"/>
<path d="M74.5407 1H73.208V16H74.5407V1Z" fill="#181B1A"/>
<path d="M75.3803 1H74.0476V16H75.3803V1Z" fill="#161616"/>
<path d="M76.22 1H74.8873V16H76.22V1Z" fill="#1A1E1C"/>
<path d="M77.0596 1H75.7269V16H77.0596V1Z" fill="#1C221F"/>
<path d="M77.8992 1H76.5665V16H77.8992V1Z" fill="#171817"/>
<path d="M78.7388 1H77.4061V16H78.7388V1Z" fill="#161616"/>
<path d="M79.5785 1H78.2458V16H79.5785V1Z" fill="#171817"/>
<path d="M80.4181 1H79.0854V16H80.4181V1Z" fill="#181919"/>
<path d="M81.2577 1H79.925V16H81.2577V1Z" fill="#161616"/>
<path d="M82.0973 1H80.7646V16H82.0973V1Z" fill="#181919"/>
<path d="M82.9371 1H81.6044V16H82.9371V1Z" fill="#171817"/>
<path d="M83.7767 1H82.444V16H83.7767V1Z" fill="#161616"/>
<path d="M84.6163 1H83.2836V16H84.6163V1Z" fill="#161616"/>
<path d="M85.4559 1H84.1232V16H85.4559V1Z" fill="#1E2723"/>
<path d="M86.2956 1H84.9629V16H86.2956V1Z" fill="#2B4138"/>
<path d="M87.1352 1H85.8025V16H87.1352V1Z" fill="#161616"/>
<path d="M87.9748 1H86.6421V16H87.9748V1Z" fill="#161616"/>
<path d="M88.8144 1H87.4817V16H88.8144V1Z" fill="#181919"/>
<path d="M89.654 1H88.3213V16H89.654V1Z" fill="#181919"/>
<path d="M90.4937 1H89.161V16H90.4937V1Z" fill="#181B1A"/>
<path d="M91.3333 1H90.0006V16H91.3333V1Z" fill="#191D1B"/>
<path d="M92.1729 1H90.8402V16H92.1729V1Z" fill="#161616"/>
<path d="M93.0125 1H91.6798V16H93.0125V1Z" fill="#161616"/>
<path d="M93.8522 1H92.5195V16H93.8522V1Z" fill="#161616"/>
<path d="M94.6918 1H93.3591V16H94.6918V1Z" fill="#202A25"/>
<path d="M95.5314 1H94.1987V16H95.5314V1Z" fill="#2A3F36"/>
<path d="M96.371 1H95.0383V16H96.371V1Z" fill="#1C2320"/>
<path d="M97.2107 1H95.8781V16H97.2107V1Z" fill="#1F2824"/>
<path d="M98.0503 1H96.7177V16H98.0503V1Z" fill="#181B1A"/>
<path d="M98.8899 1H97.5573V16H98.8899V1Z" fill="#181B1A"/>
<path d="M99.7295 1H98.3969V16H99.7295V1Z" fill="#191D1B"/>
<path d="M100.569 1H99.2366V16H100.569V1Z" fill="#181919"/>
<path d="M101.409 1H100.076V16H101.409V1Z" fill="#171817"/>
<path d="M102.248 1H100.916V16H102.248V1Z" fill="#1B201E"/>
<path d="M103.088 1H101.755V16H103.088V1Z" fill="#1B201E"/>
<path d="M103.928 1H102.595V16H103.928V1Z" fill="#161616"/>
<path d="M104.767 1H103.435V16H104.767V1Z" fill="#1B201E"/>
<path d="M105.607 1H104.274V16H105.607V1Z" fill="#212B27"/>
<path d="M106.447 1H105.114V16H106.447V1Z" fill="#1C221F"/>
<path d="M107.286 1H105.953V16H107.286V1Z" fill="#181B1A"/>
<path d="M108.126 1H106.793V16H108.126V1Z" fill="#181B1A"/>
<path d="M108.966 1H107.633V16H108.966V1Z" fill="#161616"/>
<path d="M109.805 1H108.472V16H109.805V1Z" fill="#181B1A"/>
<path d="M110.645 1H109.312V16H110.645V1Z" fill="#191D1B"/>
<path d="M111.484 1H110.152V16H111.484V1Z" fill="#1C221F"/>
<path d="M112.324 1H110.991V16H112.324V1Z" fill="#171817"/>
<path d="M113.164 1H111.831V16H113.164V1Z" fill="#161616"/>
<path d="M114.003 1H112.671V16H114.003V1Z" fill="#1A1E1C"/>
<path d="M114.843 1H113.51V16H114.843V1Z" fill="#191D1B"/>
<path d="M115.683 1H114.35V16H115.683V1Z" fill="#1A1E1C"/>
<path d="M116.522 1H115.189V16H116.522V1Z" fill="#191D1B"/>
<path d="M117.362 1H116.029V16H117.362V1Z" fill="#1A1E1C"/>
<path d="M118.201 1H116.869V16H118.201V1Z" fill="#25352F"/>
<path d="M119.041 1H117.708V16H119.041V1Z" fill="#1C221F"/>
<path d="M119.881 1H118.548V16H119.881V1Z" fill="#293C34"/>
<path d="M120.72 1H119.388V16H120.72V1Z" fill="#23302B"/>
<path d="M121.56 1H120.227V16H121.56V1Z" fill="#1F2824"/>
<path d="M122.4 1H121.067V16H122.4V1Z" fill="#1A1E1C"/>
<path d="M123.239 1H121.906V16H123.239V1Z" fill="#181919"/>
<path d="M124.079 1H122.746V16H124.079V1Z" fill="#1A1E1C"/>
<path d="M124.918 1H123.586V16H124.918V1Z" fill="#191D1B"/>
<path d="M125.758 1H124.425V16H125.758V1Z" fill="#171817"/>
<path d="M126.598 1H125.265V16H126.598V1Z" fill="#1B201E"/>
<path d="M127.437 1H126.105V16H127.437V1Z" fill="#191D1B"/>
<path d="M128.277 1H126.944V16H128.277V1Z" fill="#1C2320"/>
<path d="M129.117 1H127.784V16H129.117V1Z" fill="#171817"/>
<path d="M129.956 1H128.624V16H129.956V1Z" fill="#1B201E"/>
<path d="M130.796 1H129.463V16H130.796V1Z" fill="#181B1A"/>
<path d="M131.635 1H130.303V16H131.635V1Z" fill="#171817"/>
<path d="M132.475 1H131.142V16H132.475V1Z" fill="#181B1A"/>
<path d="M133.315 1H131.982V16H133.315V1Z" fill="#191D1B"/>
<path d="M134.154 1H132.822V16H134.154V1Z" fill="#161616"/>
<path d="M134.994 1H133.661V16H134.994V1Z" fill="#1C2320"/>
<path d="M135.834 1H134.501V16H135.834V1Z" fill="#191D1B"/>
<path d="M136.673 1H135.341V16H136.673V1Z" fill="#1D2522"/>
<path d="M137.513 1H136.18V16H137.513V1Z" fill="#1C2320"/>
<path d="M138.352 1H137.02V16H138.352V1Z" fill="#1A1E1C"/>
<path d="M139.192 1H137.859V16H139.192V1Z" fill="#1B201E"/>
<path d="M140.032 1H138.699V16H140.032V1Z" fill="#161616"/>
<path d="M140.871 1H139.539V16H140.871V1Z" fill="#181919"/>
<path d="M141.711 1H140.378V16H141.711V1Z" fill="#181919"/>
<path d="M142.551 1H141.218V16H142.551V1Z" fill="#1C2320"/>
<path d="M143.39 1H142.058V16H143.39V1Z" fill="#1A1E1C"/>
<path d="M144.23 1H142.897V16H144.23V1Z" fill="#1D2522"/>
<path d="M145.07 1H143.737V16H145.07V1Z" fill="#263730"/>
<path d="M145.909 1H144.576V16H145.909V1Z" fill="#2C4339"/>
<path d="M146.749 1H145.416V16H146.749V1Z" fill="#1C2320"/>
<path d="M147.588 1H146.256V16H147.588V1Z" fill="#181B1A"/>
<path d="M148.428 1H147.095V16H148.428V1Z" fill="#161616"/>
<path d="M149.268 1H147.935V16H149.268V1Z" fill="#181919"/>
<path d="M150.107 1H148.775V16H150.107V1Z" fill="#161616"/>
<path d="M150.947 1H149.614V16H150.947V1Z" fill="#171817"/>
<path d="M151.787 1H150.454V16H151.787V1Z" fill="#161616"/>
<path d="M152.626 1H151.293V16H152.626V1Z" fill="#161616"/>
<path d="M153.466 1H152.133V16H153.466V1Z" fill="#181B1A"/>
<path d="M154.305 1H152.973V16H154.305V1Z" fill="#161616"/>
<path d="M155.145 1H153.812V16H155.145V1Z" fill="#161616"/>
<path d="M155.985 1H154.652V16H155.985V1Z" fill="#161616"/>
<path d="M156.824 1H155.492V16H156.824V1Z" fill="#171817"/>
<path d="M157.664 1H156.331V16H157.664V1Z" fill="#181919"/>
<path d="M158.504 1H157.171V16H158.504V1Z" fill="#161616"/>
<path d="M159.343 1H158.01V16H159.343V1Z" fill="#171817"/>
<path d="M160.183 1H158.85V16H160.183V1Z" fill="#191D1B"/>
<path d="M161.022 1H159.69V16H161.022V1Z" fill="#181919"/>
<path d="M161.862 1H160.529V16H161.862V1Z" fill="#181919"/>
<path d="M162.702 1H161.369V16H162.702V1Z" fill="#161616"/>
<path d="M163.541 1H162.209V16H163.541V1Z" fill="#1E2723"/>
<path d="M164.381 1H163.048V16H164.381V1Z" fill="#161616"/>
<path d="M165.221 1H163.888V16H165.221V1Z" fill="#181B1A"/>
<path d="M166.06 1H164.728V16H166.06V1Z" fill="#181B1A"/>
<path d="M166.9 1H165.567V16H166.9V1Z" fill="#181919"/>
<path d="M167.739 1H166.407V16H167.739V1Z" fill="#273931"/>
<path d="M168.579 1H167.246V16H168.579V1Z" fill="#161616"/>
<path d="M169.419 1H168.086V16H169.419V1Z" fill="#181B1A"/>
<path d="M170.258 1H168.926V16H170.258V1Z" fill="#1C221F"/>
<path d="M171.098 1H169.765V16H171.098V1Z" fill="#181919"/>
<path d="M171.938 1H170.605V16H171.938V1Z" fill="#161616"/>
<path d="M172.777 1H171.445V16H172.777V1Z" fill="#181B1A"/>
<path d="M173.617 1H172.284V16H173.617V1Z" fill="#191D1B"/>
<path d="M174.456 1H173.124V16H174.456V1Z" fill="#293E35"/>
<path d="M175.296 1H173.963V16H175.296V1Z" fill="#171817"/>
<path d="M176.136 1H174.803V16H176.136V1Z" fill="#1C2320"/>
<path d="M176.975 1H175.643V16H176.975V1Z" fill="#181919"/>
<path d="M177.815 1H176.482V16H177.815V1Z" fill="#1B201E"/>
<path d="M178.655 1H177.322V16H178.655V1Z" fill="#191D1B"/>
<path d="M179.494 1H178.162V16H179.494V1Z" fill="#1A1E1C"/>
<path d="M180.334 1H179.001V16H180.334V1Z" fill="#161616"/>
<path d="M181.174 1H179.841V16H181.174V1Z" fill="#171817"/>
<path d="M182.013 1H180.68V16H182.013V1Z" fill="#1B201E"/>
<path d="M182.853 1H181.52V16H182.853V1Z" fill="#171817"/>
<path d="M183.692 1H182.36V16H183.692V1Z" fill="#181919"/>
<path d="M184.532 1H183.199V16H184.532V1Z" fill="#1C221F"/>
<path d="M185.372 1H184.039V16H185.372V1Z" fill="#171817"/>
<path d="M186.211 1H184.879V16H186.211V1Z" fill="#1D2522"/>
<path d="M187.051 1H185.718V16H187.051V1Z" fill="#181B1A"/>
<path d="M187.891 1H186.558V16H187.891V1Z" fill="#181B1A"/>
<path d="M188.73 1H187.397V16H188.73V1Z" fill="#1F2824"/>
<path d="M189.57 1H188.237V16H189.57V1Z" fill="#161616"/>
<path d="M190.409 1H189.077V16H190.409V1Z" fill="#1F2824"/>
<path d="M191.249 1H189.916V16H191.249V1Z" fill="#181919"/>
<path d="M192.089 1H190.756V16H192.089V1Z" fill="#191D1B"/>
<path d="M192.928 1H191.596V16H192.928V1Z" fill="#181B1A"/>
<path d="M193.768 1H192.435V16H193.768V1Z" fill="#181919"/>
<path d="M194.608 1H193.275V16H194.608V1Z" fill="#181B1A"/>
<path d="M195.447 1H194.115V16H195.447V1Z" fill="#181B1A"/>
<path d="M196.287 1H194.954V16H196.287V1Z" fill="#1C221F"/>
<path d="M197.126 1H195.794V16H197.126V1Z" fill="#1E2723"/>
<path d="M197.966 1H196.633V16H197.966V1Z" fill="#1D2522"/>
<path d="M198.806 1H197.473V16H198.806V1Z" fill="#1A1E1C"/>
<path d="M199.645 1H198.313V16H199.645V1Z" fill="#161616"/>
<path d="M200.485 1H199.152V16H200.485V1Z" fill="#161616"/>
<path d="M201.325 1H199.992V16H201.325V1Z" fill="#1E2723"/>
<path d="M202.164 1H200.832V16H202.164V1Z" fill="#1C221F"/>
<path d="M203.004 1H201.671V16H203.004V1Z" fill="#1D2522"/>
<path d="M203.843 1H202.511V16H203.843V1Z" fill="#181919"/>
<path d="M204.683 1H203.35V16H204.683V1Z" fill="#161616"/>
<path d="M205.523 1H204.19V16H205.523V1Z" fill="#181919"/>
<path d="M206.362 1H205.03V16H206.362V1Z" fill="#161616"/>
<path d="M207.202 1H205.869V16H207.202V1Z" fill="#161616"/>
<path d="M208.042 1H206.709V16H208.042V1Z" fill="#161616"/>
<path d="M208.881 1H207.549V16H208.881V1Z" fill="#161616"/>
<path d="M209.721 1H208.388V16H209.721V1Z" fill="#161616"/>
<path d="M210.56 1H209.228V16H210.56V1Z" fill="#181919"/>
<path d="M211.4 1H210.067V16H211.4V1Z" fill="#161616"/>
<path d="M212.24 1H210.907V16H212.24V1Z" fill="#161616"/>
<path d="M213.079 1H211.747V16H213.079V1Z" fill="#161616"/>
<path d="M213.919 1H212.586V16H213.919V1Z" fill="#263730"/>
<path d="M214.759 1H213.426V16H214.759V1Z" fill="#3A6050"/>
<path d="M215.598 1H214.266V16H215.598V1Z" fill="#4B836B"/>
<path d="M216.438 1H215.105V16H216.438V1Z" fill="#385B4C"/>
<path d="M217.278 1H215.945V16H217.278V1Z" fill="#161616"/>
<path d="M218.117 1H216.784V16H218.117V1Z" fill="#161616"/>
<path d="M218.957 1H217.624V16H218.957V1Z" fill="#181919"/>
<path d="M219.796 1H218.464V16H219.796V1Z" fill="#1C221F"/>
<path d="M220.636 1H219.303V16H220.636V1Z" fill="#1B201E"/>
<path d="M221.476 1H220.143V16H221.476V1Z" fill="#171817"/>
<path d="M222.315 1H220.983V16H222.315V1Z" fill="#181919"/>
<path d="M223.155 1H221.822V16H223.155V1Z" fill="#161616"/>
<path d="M223.995 1H222.662V16H223.995V1Z" fill="#181919"/>
<path d="M224.834 1H223.501V16H224.834V1Z" fill="#181919"/>
<path d="M225.674 1H224.341V16H225.674V1Z" fill="#171817"/>
<path d="M226.513 1H225.181V16H226.513V1Z" fill="#293E35"/>
<path d="M227.353 1H226.02V16H227.353V1Z" fill="#1C221F"/>
<path d="M228.193 1H226.86V16H228.193V1Z" fill="#181919"/>
<path d="M229.032 1H227.7V16H229.032V1Z" fill="#161616"/>
<path d="M229.872 1H228.539V16H229.872V1Z" fill="#171817"/>
<path d="M230.712 1H229.379V16H230.712V1Z" fill="#161616"/>
<path d="M231.551 1H230.219V16H231.551V1Z" fill="#1D2522"/>
<path d="M232.391 1H231.058V16H232.391V1Z" fill="#1F2824"/>
<path d="M233.231 1H231.898V16H233.231V1Z" fill="#25342D"/>
<path d="M234.07 1H232.737V16H234.07V1Z" fill="#171817"/>
<path d="M234.91 1H233.577V16H234.91V1Z" fill="#161616"/>
<path d="M235.749 1H234.417V16H235.749V1Z" fill="#181B1A"/>
<path d="M236.589 1H235.256V16H236.589V1Z" fill="#1C221F"/>
<path d="M237.429 1H236.096V16H237.429V1Z" fill="#1F2824"/>
<path d="M238.268 1H236.936V16H238.268V1Z" fill="#23302B"/>
<path d="M239.108 1H237.775V16H239.108V1Z" fill="#181B1A"/>
<path d="M239.947 1H238.615V16H239.947V1Z" fill="#181919"/>
<path d="M240.787 1H239.454V16H240.787V1Z" fill="#1B201E"/>
<path d="M241.627 1H240.294V16H241.627V1Z" fill="#181919"/>
<path d="M242.466 1H241.134V16H242.466V1Z" fill="#171817"/>
<path d="M243.306 1H241.973V16H243.306V1Z" fill="#191D1B"/>
<path d="M244.146 1H242.813V16H244.146V1Z" fill="#1D2522"/>
<path d="M244.985 1H243.653V16H244.985V1Z" fill="#181919"/>
<path d="M245.825 1H244.492V16H245.825V1Z" fill="#1A1E1C"/>
<path d="M246.664 1H245.332V16H246.664V1Z" fill="#161616"/>
<path d="M247.504 1H246.172V16H247.504V1Z" fill="#171817"/>
<path d="M248.344 1H247.011V16H248.344V1Z" fill="#181919"/>
<path d="M249.183 1H247.851V16H249.183V1Z" fill="#181B1A"/>
<path d="M250.023 1H248.69V16H250.023V1Z" fill="#1F2824"/>
<path d="M250.863 1H249.53V16H250.863V1Z" fill="#202A25"/>
<path d="M251.702 1H250.37V16H251.702V1Z" fill="#1D2522"/>
<path d="M252.542 1H251.209V16H252.542V1Z" fill="#161616"/>
<path d="M253.382 1H252.049V16H253.382V1Z" fill="#2D443A"/>
<path d="M254.221 1H252.888V16H254.221V1Z" fill="#395D4E"/>
<path d="M255.061 1H253.728V16H255.061V1Z" fill="#3C6453"/>
<path d="M255.9 1H254.568V16H255.9V1Z" fill="#273931"/>
<path d="M256.74 1H255.407V16H256.74V1Z" fill="#171817"/>
<path d="M257.58 1H256.247V16H257.58V1Z" fill="#161616"/>
<path d="M258.419 1H257.087V16H258.419V1Z" fill="#161616"/>
<path d="M259.259 1H257.926V16H259.259V1Z" fill="#181B1A"/>
<path d="M260.099 1H258.766V16H260.099V1Z" fill="#1B201E"/>
<path d="M260.938 1H259.605V16H260.938V1Z" fill="#161616"/>
<path d="M261.778 1H260.445V16H261.778V1Z" fill="#181919"/>
<path d="M262.617 1H261.285V16H262.617V1Z" fill="#171817"/>
<path d="M263.457 1H262.124V16H263.457V1Z" fill="#1A1E1C"/>
<path d="M264.297 1H262.964V16H264.297V1Z" fill="#191D1B"/>
<path d="M265.136 1H263.804V16H265.136V1Z" fill="#1A1E1C"/>
<path d="M265.976 1H264.643V16H265.976V1Z" fill="#181B1A"/>
<path d="M266.816 1H265.483V16H266.816V1Z" fill="#1B201E"/>
<path d="M267.655 1H266.323V16H267.655V1Z" fill="#1D2522"/>
<path d="M268.495 1H267.162V16H268.495V1Z" fill="#161616"/>
<path d="M269.335 1H268.002V16H269.335V1Z" fill="#1A1E1C"/>
<path d="M270.174 1H268.841V16H270.174V1Z" fill="#1A1E1C"/>
<path d="M271.014 1H269.681V16H271.014V1Z" fill="#202A25"/>
<path d="M271.853 1H270.521V16H271.853V1Z" fill="#181B1A"/>
<path d="M272.693 1H271.36V16H272.693V1Z" fill="#181B1A"/>
<path d="M273.533 1H272.2V16H273.533V1Z" fill="#191D1B"/>
<path d="M274.372 1H273.04V16H274.372V1Z" fill="#1A1E1C"/>
<path d="M275.212 1H273.879V16H275.212V1Z" fill="#181B1A"/>
<path d="M276.051 1H274.719V16H276.051V1Z" fill="#171817"/>
<path d="M276.891 1H275.558V16H276.891V1Z" fill="#1B201E"/>
<path d="M277.731 1H276.398V16H277.731V1Z" fill="#181919"/>
<path d="M278.57 1H277.238V16H278.57V1Z" fill="#181919"/>
<path d="M279.41 1H278.077V16H279.41V1Z" fill="#1B201E"/>
<path d="M280.25 1H278.917V16H280.25V1Z" fill="#181B1A"/>
<path d="M281.089 1H279.757V16H281.089V1Z" fill="#1C221F"/>
<path d="M281.929 1H280.596V16H281.929V1Z" fill="#191D1B"/>
<path d="M282.768 1H281.436V16H282.768V1Z" fill="#181919"/>
<path d="M283.608 1H282.276V16H283.608V1Z" fill="#181B1A"/>
<path d="M284.448 1H283.115V16H284.448V1Z" fill="#1B201E"/>
<path d="M285.287 1H283.955V16H285.287V1Z" fill="#1A1E1C"/>
<path d="M286.127 1H284.794V16H286.127V1Z" fill="#1A1E1C"/>
<path d="M286.967 1H285.634V16H286.967V1Z" fill="#1B201E"/>
<path d="M287.806 1H286.474V16H287.806V1Z" fill="#171817"/>
<path d="M288.646 1H287.313V16H288.646V1Z" fill="#181B1A"/>
<path d="M289.486 1H288.153V16H289.486V1Z" fill="#1B201E"/>
<path d="M290.325 1H288.992V16H290.325V1Z" fill="#1C2320"/>
<path d="M291.165 1H289.832V16H291.165V1Z" fill="#181B1A"/>
<path d="M292.004 1H290.672V16H292.004V1Z" fill="#181B1A"/>
<path d="M292.844 1H291.511V16H292.844V1Z" fill="#181B1A"/>
<path d="M293.684 1H292.351V16H293.684V1Z" fill="#191D1B"/>
<path d="M294.523 1H293.191V16H294.523V1Z" fill="#1B201E"/>
<path d="M295.363 1H294.03V16H295.363V1Z" fill="#1A1E1C"/>
<path d="M296.203 1H294.87V16H296.203V1Z" fill="#1B201E"/>
<path d="M297.042 1H295.709V16H297.042V1Z" fill="#181B1A"/>
<path d="M297.882 1H296.549V16H297.882V1Z" fill="#191D1B"/>
<path d="M298.721 1H297.389V16H298.721V1Z" fill="#181B1A"/>
<path d="M299.561 1H298.228V16H299.561V1Z" fill="#181B1A"/>
<path d="M300.401 1H299.068V16H300.401V1Z" fill="#222F29"/>
<path d="M301.24 1H299.908V16H301.24V1Z" fill="#25342D"/>
<path d="M302.08 1H300.747V16H302.08V1Z" fill="#1B201E"/>
<path d="M302.92 1H301.587V16H302.92V1Z" fill="#1A1E1C"/>
<path d="M303.759 1H302.427V16H303.759V1Z" fill="#1C221F"/>
<path d="M304.599 1H303.266V16H304.599V1Z" fill="#191D1B"/>
<path d="M305.439 1H304.106V16H305.439V1Z" fill="#191D1B"/>
<path d="M306.278 1H304.945V16H306.278V1Z" fill="#1C2320"/>
<path d="M307.118 1H305.785V16H307.118V1Z" fill="#1D2522"/>
<path d="M307.957 1H306.625V16H307.957V1Z" fill="#191D1B"/>
<path d="M308.797 1H307.464V16H308.797V1Z" fill="#181B1A"/>
<path d="M309.637 1H308.304V16H309.637V1Z" fill="#181919"/>
<path d="M310.476 1H309.144V16H310.476V1Z" fill="#191D1B"/>
<path d="M311.316 1H309.983V16H311.316V1Z" fill="#181B1A"/>
<path d="M312.156 1H310.823V16H312.156V1Z" fill="#1A1E1C"/>
<path d="M312.995 1H311.662V16H312.995V1Z" fill="#191D1B"/>
<path d="M313.835 1H312.502V16H313.835V1Z" fill="#181919"/>
<path d="M314.674 1H313.342V16H314.674V1Z" fill="#1D2522"/>
<path d="M315.514 1H314.181V16H315.514V1Z" fill="#1B201E"/>
<path d="M316.354 1H315.021V16H316.354V1Z" fill="#191D1B"/>
<path d="M317.193 1H315.861V16H317.193V1Z" fill="#181B1A"/>
<path d="M318.033 1H316.7V16H318.033V1Z" fill="#181B1A"/>
<path d="M318.872 1H317.54V16H318.872V1Z" fill="#1A1E1C"/>
<path d="M319.712 1H318.38V16H319.712V1Z" fill="#181919"/>
<path d="M320.552 1H319.219V16H320.552V1Z" fill="#1F2824"/>
<path d="M321.391 1H320.059V16H321.391V1Z" fill="#181919"/>
<path d="M322.231 1H320.898V16H322.231V1Z" fill="#1A1E1C"/>
<path d="M323.071 1H321.738V16H323.071V1Z" fill="#181B1A"/>
<path d="M323.91 1H322.578V16H323.91V1Z" fill="#1F2824"/>
<path d="M324.75 1H323.417V16H324.75V1Z" fill="#161616"/>
<path d="M325.59 1H324.257V16H325.59V1Z" fill="#1B201E"/>
<path d="M326.429 1H325.097V16H326.429V1Z" fill="#161616"/>
<path d="M327.269 1H325.936V16H327.269V1Z" fill="#181B1A"/>
<path d="M328.108 1H326.776V16H328.108V1Z" fill="#181919"/>
<path d="M328.948 1H327.615V16H328.948V1Z" fill="#171817"/>
<path d="M329.788 1H328.455V16H329.788V1Z" fill="#181B1A"/>
<path d="M330.627 1H329.295V16H330.627V1Z" fill="#191D1B"/>
<path d="M331.467 1H330.134V16H331.467V1Z" fill="#263730"/>
<path d="M332.307 1H330.974V16H332.307V1Z" fill="#273931"/>
<path d="M333.146 1H331.813V16H333.146V1Z" fill="#2E483D"/>
<path d="M333.986 1H332.653V16H333.986V1Z" fill="#25352F"/>
<path d="M334.825 1H333.493V16H334.825V1Z" fill="#212B27"/>
<path d="M335.665 1H334.332V16H335.665V1Z" fill="#181B1A"/>
<path d="M336.505 1H335.172V16H336.505V1Z" fill="#1A1E1C"/>
<path d="M337.344 1H336.012V16H337.344V1Z" fill="#1D2522"/>
<path d="M338.184 1H336.851V16H338.184V1Z" fill="#222F29"/>
<path d="M339.024 1H337.691V16H339.024V1Z" fill="#171817"/>
<path d="M339.863 1H338.531V16H339.863V1Z" fill="#161616"/>
<path d="M340.703 1H339.37V16H340.703V1Z" fill="#181919"/>
<path d="M341.543 1H340.21V16H341.543V1Z" fill="#1D2522"/>
<path d="M342.382 1H341.049V16H342.382V1Z" fill="#171817"/>
<path d="M343.222 1H341.889V16H343.222V1Z" fill="#273931"/>
<path d="M344.061 1H342.729V16H344.061V1Z" fill="#212B27"/>
<path d="M344.901 1H343.568V16H344.901V1Z" fill="#171817"/>
<path d="M345.741 1H344.408V16H345.741V1Z" fill="#161616"/>
<path d="M346.58 1H345.248V16H346.58V1Z" fill="#171817"/>
<path d="M347.42 1H346.087V16H347.42V1Z" fill="#1C221F"/>
<path d="M348.26 1H346.927V16H348.26V1Z" fill="#191D1B"/>
<path d="M349.099 1H347.766V16H349.099V1Z" fill="#314E42"/>
<path d="M349.939 1H348.606V16H349.939V1Z" fill="#212B27"/>
<path d="M350.778 1H349.446V16H350.778V1Z" fill="#161616"/>
<path d="M351.618 1H350.285V16H351.618V1Z" fill="#171817"/>
<path d="M352.458 1H351.125V16H352.458V1Z" fill="#171817"/>
<path d="M353.297 1H351.965V16H353.297V1Z" fill="#191D1B"/>
<path d="M354.137 1H352.804V16H354.137V1Z" fill="#1A1E1C"/>
<path d="M354.977 1H353.644V16H354.977V1Z" fill="#2B4138"/>
<path d="M355.816 1H354.484V16H355.816V1Z" fill="#263730"/>
<path d="M356.656 1H355.323V16H356.656V1Z" fill="#161616"/>
<path d="M357.496 1H356.163V16H357.496V1Z" fill="#171817"/>
<path d="M358.335 1H357.002V16H358.335V1Z" fill="#181919"/>
<path d="M359.175 1H357.842V16H359.175V1Z" fill="#1F2824"/>
<path d="M360.014 1H358.682V16H360.014V1Z" fill="#1C2320"/>
<path d="M360.854 1H359.521V16H360.854V1Z" fill="#283A32"/>
<path d="M361.694 1H360.361V16H361.694V1Z" fill="#2E483D"/>
<path d="M362.533 1H361.201V16H362.533V1Z" fill="#355547"/>
<path d="M363.373 1H362.04V16H363.373V1Z" fill="#191D1B"/>
<path d="M364.213 1H362.88V16H364.213V1Z" fill="#181B1A"/>
<path d="M365.052 1H363.719V16H365.052V1Z" fill="#181919"/>
<path d="M365.892 1H364.559V16H365.892V1Z" fill="#181919"/>
<path d="M366.731 1H365.399V16H366.731V1Z" fill="#1C221F"/>
<path d="M367.571 1H366.238V16H367.571V1Z" fill="#1A1E1C"/>
<path d="M368.411 1H367.078V16H368.411V1Z" fill="#191D1B"/>
<path d="M369.25 1H367.918V16H369.25V1Z" fill="#161616"/>
<path d="M370.09 1H368.757V16H370.09V1Z" fill="#171817"/>
<path d="M370.929 1H369.597V16H370.929V1Z" fill="#1B201E"/>
<path d="M371.769 1H370.437V16H371.769V1Z" fill="#191D1B"/>
<path d="M372.609 1H371.276V16H372.609V1Z" fill="#1D2522"/>
<path d="M373.448 1H372.116V16H373.448V1Z" fill="#222F29"/>
<path d="M374.288 1H372.955V16H374.288V1Z" fill="#181919"/>
<path d="M375.128 1H373.795V16H375.128V1Z" fill="#181919"/>
<path d="M375.967 1H374.635V16H375.967V1Z" fill="#171817"/>
<path d="M376.807 1H375.474V16H376.807V1Z" fill="#1A1E1C"/>
<path d="M377.647 1H376.314V16H377.647V1Z" fill="#202A25"/>
<path d="M378.486 1H377.154V16H378.486V1Z" fill="#25352F"/>
<path d="M379.326 1H377.993V16H379.326V1Z" fill="#2A3F36"/>
<path d="M380.165 1H378.833V16H380.165V1Z" fill="#191D1B"/>
<path d="M381.005 1H379.672V16H381.005V1Z" fill="#191D1B"/>
<path d="M381.845 1H380.512V16H381.845V1Z" fill="#191D1B"/>
<path d="M382.684 1H381.352V16H382.684V1Z" fill="#1A1E1C"/>
<path d="M383.524 1H382.191V16H383.524V1Z" fill="#191D1B"/>
<path d="M384.364 1H383.031V16H384.364V1Z" fill="#1C2320"/>
<path d="M385.203 1H383.87V16H385.203V1Z" fill="#212B27"/>
<path d="M386.043 1H384.71V16H386.043V1Z" fill="#161616"/>
<path d="M386.882 1H385.55V16H386.882V1Z" fill="#181B1A"/>
<path d="M387.722 1H386.389V16H387.722V1Z" fill="#191D1B"/>
<path d="M388.562 1H387.229V16H388.562V1Z" fill="#202A25"/>
<path d="M389.401 1H388.069V16H389.401V1Z" fill="#212D28"/>
<path d="M390.241 1H388.908V16H390.241V1Z" fill="#2A3F36"/>
<path d="M391.081 1H389.748V16H391.081V1Z" fill="#23302B"/>
<path d="M391.92 1H390.588V16H391.92V1Z" fill="#23302B"/>
<path d="M392.76 1H391.427V16H392.76V1Z" fill="#1C221F"/>
<path d="M393.6 1H392.267V16H393.6V1Z" fill="#191D1B"/>
<path d="M394.439 1H393.106V16H394.439V1Z" fill="#181919"/>
<path d="M395.279 1H393.946V16H395.279V1Z" fill="#171817"/>
<path d="M396.118 1H394.786V16H396.118V1Z" fill="#181919"/>
<path d="M396.958 1H395.625V16H396.958V1Z" fill="#1F2824"/>
<path d="M397.798 1H396.465V16H397.798V1Z" fill="#273931"/>
<path d="M398.637 1H397.305V16H398.637V1Z" fill="#222F29"/>
<path d="M399.477 1H398.144V16H399.477V1Z" fill="#1E2723"/>
<path d="M400.317 1H398.984V16H400.317V1Z" fill="#1D2522"/>
<path d="M401.156 1H399.823V16H401.156V1Z" fill="#1C2320"/>
<path d="M401.996 1H400.663V16H401.996V1Z" fill="#222F29"/>
<path d="M402.835 1H401.503V16H402.835V1Z" fill="#283A32"/>
<path d="M403.675 1H402.342V16H403.675V1Z" fill="#1E2723"/>
<path d="M404.515 1H403.182V16H404.515V1Z" fill="#181B1A"/>
<path d="M405.354 1H404.022V16H405.354V1Z" fill="#1D2522"/>
<path d="M406.194 1H404.861V16H406.194V1Z" fill="#1C221F"/>
<path d="M407.034 1H405.701V16H407.034V1Z" fill="#1E2723"/>
<path d="M407.873 1H406.541V16H407.873V1Z" fill="#2B4138"/>
<path d="M408.713 1H407.38V16H408.713V1Z" fill="#25352F"/>
<path d="M409.552 1H408.22V16H409.552V1Z" fill="#171817"/>
<path d="M410.392 1H409.059V16H410.392V1Z" fill="#1C221F"/>
<path d="M411.232 1H409.899V16H411.232V1Z" fill="#1D2522"/>
<path d="M412.071 1H410.739V16H412.071V1Z" fill="#1B201E"/>
<path d="M412.911 1H411.578V16H412.911V1Z" fill="#212B27"/>
<path d="M413.751 1H412.418V16H413.751V1Z" fill="#23302B"/>
<path d="M414.59 1H413.258V16H414.59V1Z" fill="#1B201E"/>
<path d="M415.43 1H414.097V16H415.43V1Z" fill="#1A1E1C"/>
<path d="M416.269 1H414.937V16H416.269V1Z" fill="#181B1A"/>
<path d="M417.109 1H415.776V16H417.109V1Z" fill="#191D1B"/>
<path d="M417.949 1H416.616V16H417.949V1Z" fill="#191D1B"/>
<path d="M418.788 1H417.456V16H418.788V1Z" fill="#191D1B"/>
<path d="M419.628 1H418.295V16H419.628V1Z" fill="#2C4339"/>
<path d="M420.468 1H419.135V16H420.468V1Z" fill="#24322C"/>
<path d="M421.307 1H419.975V16H421.307V1Z" fill="#161616"/>
<path d="M422.147 1H420.814V16H422.147V1Z" fill="#1A1E1C"/>
<path d="M422.986 1H421.654V16H422.986V1Z" fill="#191D1B"/>
<path d="M423.826 1H422.493V16H423.826V1Z" fill="#23302B"/>
<path d="M424.666 1H423.333V16H424.666V1Z" fill="#181B1A"/>
<path d="M425.505 1H424.173V16H425.505V1Z" fill="#3A5F4F"/>
<path d="M426.345 1H425.012V16H426.345V1Z" fill="#508D73"/>
<path d="M427.185 1H425.852V16H427.185V1Z" fill="#477B65"/>
<path d="M428.024 1H426.692V16H428.024V1Z" fill="#263730"/>
<path d="M428.864 1H427.531V16H428.864V1Z" fill="#181B1A"/>
<path d="M429.704 1H428.371V16H429.704V1Z" fill="#1D2522"/>
<path d="M430.543 1H429.21V16H430.543V1Z" fill="#1C221F"/>
<path d="M431.383 1H430.05V16H431.383V1Z" fill="#273931"/>
<path d="M432.222 1H430.89V16H432.222V1Z" fill="#395D4E"/>
<path d="M433.062 1H431.729V16H433.062V1Z" fill="#1C2320"/>
<path d="M433.902 1H432.569V16H433.902V1Z" fill="#181B1A"/>
<path d="M434.741 1H433.409V16H434.741V1Z" fill="#191D1B"/>
<path d="M435.581 1H434.248V16H435.581V1Z" fill="#1A1E1C"/>
<path d="M436.421 1H435.088V16H436.421V1Z" fill="#181919"/>
<path d="M437.26 1H435.927V16H437.26V1Z" fill="#1B201E"/>
<path d="M438.1 1H436.767V16H438.1V1Z" fill="#293E35"/>
<path d="M438.939 1H437.607V16H438.939V1Z" fill="#1A1E1C"/>
<path d="M439.779 1H438.446V16H439.779V1Z" fill="#1A1E1C"/>
<path d="M440.619 1H439.286V16H440.619V1Z" fill="#1A1E1C"/>
<path d="M441.458 1H440.126V16H441.458V1Z" fill="#1C221F"/>
<path d="M442.298 1H440.965V16H442.298V1Z" fill="#1C2320"/>
<path d="M443.138 1H441.805V16H443.138V1Z" fill="#1B201E"/>
<path d="M443.977 1H442.645V16H443.977V1Z" fill="#1B201E"/>
<path d="M444.817 1H443.484V16H444.817V1Z" fill="#1D2522"/>
<path d="M445.656 1H444.324V16H445.656V1Z" fill="#1C2320"/>
<path d="M446.496 1H445.163V16H446.496V1Z" fill="#191D1B"/>
<path d="M447.336 1H446.003V16H447.336V1Z" fill="#1A1E1C"/>
<path d="M448.175 1H446.843V16H448.175V1Z" fill="#191D1B"/>
<path d="M449.015 1H447.682V16H449.015V1Z" fill="#25352F"/>
<path d="M449.855 1H448.522V16H449.855V1Z" fill="#212B27"/>
<path d="M450.694 1H449.362V16H450.694V1Z" fill="#212D28"/>
<path d="M451.534 1H450.201V16H451.534V1Z" fill="#2A3F36"/>
<path d="M452.373 1H451.041V16H452.373V1Z" fill="#2D463B"/>
<path d="M453.213 1H451.88V16H453.213V1Z" fill="#2C4339"/>
<path d="M454.053 1H452.72V16H454.053V1Z" fill="#2A3F36"/>
<path d="M454.892 1H453.56V16H454.892V1Z" fill="#1E2723"/>
<path d="M455.732 1H454.399V16H455.732V1Z" fill="#25352F"/>
<path d="M456.572 1H455.239V16H456.572V1Z" fill="#1C221F"/>
<path d="M457.411 1H456.079V16H457.411V1Z" fill="#1D2522"/>
<path d="M458.251 1H456.918V16H458.251V1Z" fill="#222F29"/>
<path d="M459.091 1H457.758V16H459.091V1Z" fill="#4A8069"/>
<path d="M459.93 1H458.597V16H459.93V1Z" fill="#4F8B72"/>
<path d="M460.77 1H459.437V16H460.77V1Z" fill="#222F29"/>
<path d="M461.609 1H460.277V16H461.609V1Z" fill="#212D28"/>
<path d="M462.449 1H461.116V16H462.449V1Z" fill="#1C2320"/>
<path d="M463.289 1H461.956V16H463.289V1Z" fill="#273931"/>
<path d="M464.128 1H462.796V16H464.128V1Z" fill="#1D2522"/>
<path d="M464.968 1H463.635V16H464.968V1Z" fill="#293C34"/>
<path d="M465.808 1H464.475V16H465.808V1Z" fill="#2A3F36"/>
<path d="M466.647 1H465.314V16H466.647V1Z" fill="#365648"/>
<path d="M467.487 1H466.154V16H467.487V1Z" fill="#3A6050"/>
<path d="M468.326 1H466.994V16H468.326V1Z" fill="#222F29"/>
<path d="M469.166 1H467.833V16H469.166V1Z" fill="#171817"/>
<path d="M470.006 1H468.673V16H470.006V1Z" fill="#212B27"/>
<path d="M470.845 1H469.513V16H470.845V1Z" fill="#293E35"/>
<path d="M471.685 1H470.352V16H471.685V1Z" fill="#304B3F"/>
<path d="M472.525 1H471.192V16H472.525V1Z" fill="#3D6554"/>
<path d="M473.364 1H472.031V16H473.364V1Z" fill="#36584A"/>
<path d="M474.204 1H472.871V16H474.204V1Z" fill="#202A25"/>
<path d="M475.043 1H473.711V16H475.043V1Z" fill="#283A32"/>
<path d="M475.883 1H474.55V16H475.883V1Z" fill="#212D28"/>
<path d="M476.723 1H475.39V16H476.723V1Z" fill="#2C4339"/>
<path d="M477.562 1H476.23V16H477.562V1Z" fill="#4D866E"/>
<path d="M478.402 1H477.069V16H478.402V1Z" fill="#457661"/>
<path d="M479.242 1H477.909V16H479.242V1Z" fill="#263730"/>
<path d="M480.081 1H478.749V16H480.081V1Z" fill="#23302B"/>
<path d="M480.921 1H479.588V16H480.921V1Z" fill="#2A3F36"/>
<path d="M481.76 1H480.428V16H481.76V1Z" fill="#25352F"/>
<path d="M482.6 1H481.267V16H482.6V1Z" fill="#283A32"/>
<path d="M483.44 1H482.107V16H483.44V1Z" fill="#2B4138"/>
<path d="M484.279 1H482.947V16H484.279V1Z" fill="#3E6957"/>
<path d="M485.119 1H483.786V16H485.119V1Z" fill="#3A5F4F"/>
<path d="M485.959 1H484.626V16H485.959V1Z" fill="#25352F"/>
<path d="M486.798 1H485.466V16H486.798V1Z" fill="#25352F"/>
<path d="M487.638 1H486.305V16H487.638V1Z" fill="#283A32"/>
<path d="M488.477 1H487.145V16H488.477V1Z" fill="#283A32"/>
<path d="M489.317 1H487.984V16H489.317V1Z" fill="#304B3F"/>
<path d="M490.157 1H488.824V16H490.157V1Z" fill="#497E67"/>
<path d="M490.996 1H489.664V16H490.996V1Z" fill="#3E6755"/>
<path d="M491.836 1H490.503V16H491.836V1Z" fill="#25352F"/>
<path d="M492.676 1H491.343V16H492.676V1Z" fill="#2D443A"/>
<path d="M493.515 1H492.183V16H493.515V1Z" fill="#283A32"/>
<path d="M494.355 1H493.022V16H494.355V1Z" fill="#283A32"/>
<path d="M495.195 1H493.862V16H495.195V1Z" fill="#24322C"/>
<path d="M496.034 1H494.701V16H496.034V1Z" fill="#212D28"/>
<path d="M496.874 1H495.541V16H496.874V1Z" fill="#3A6050"/>
<path d="M497.713 1H496.381V16H497.713V1Z" fill="#1C2320"/>
<path d="M498.553 1H497.22V16H498.553V1Z" fill="#273931"/>
<path d="M499.393 1H498.06V16H499.393V1Z" fill="#1C221F"/>
<path d="M500.232 1H498.9V16H500.232V1Z" fill="#2D443A"/>
<path d="M501.072 1H499.739V16H501.072V1Z" fill="#3F6A58"/>
<path d="M501.912 1H500.579V16H501.912V1Z" fill="#4F8A70"/>
<path d="M502.751 1H501.418V16H502.751V1Z" fill="#36584A"/>
<path d="M503.591 1H502.258V16H503.591V1Z" fill="#2A3F36"/>
<path d="M504.43 1H503.098V16H504.43V1Z" fill="#212D28"/>
<path d="M505.27 1H503.937V16H505.27V1Z" fill="#161616"/>
<path d="M506.11 1H504.777V16H506.11V1Z" fill="#212B27"/>
<path d="M506.949 1H505.617V16H506.949V1Z" fill="#212D28"/>
<path d="M507.789 1H506.456V16H507.789V1Z" fill="#304B3F"/>
<path d="M508.629 1H507.296V16H508.629V1Z" fill="#1B201E"/>
<path d="M509.468 1H508.135V16H509.468V1Z" fill="#212B27"/>
<path d="M510.308 1H508.975V16H510.308V1Z" fill="#1F2824"/>
<path d="M511.147 1H509.815V16H511.147V1Z" fill="#191D1B"/>
<path d="M511.987 1H510.654V16H511.987V1Z" fill="#202A25"/>
<path d="M512.827 1H511.494V16H512.827V1Z" fill="#1C2320"/>
<path d="M513.666 1H512.334V16H513.666V1Z" fill="#1F2824"/>
<path d="M514.506 1H513.173V16H514.506V1Z" fill="#293E35"/>
<path d="M515.346 1H514.013V16H515.346V1Z" fill="#1D2522"/>
<path d="M516.185 1H514.853V16H516.185V1Z" fill="#212B27"/>
<path d="M517.025 1H515.692V16H517.025V1Z" fill="#1D2522"/>
<path d="M517.864 1H516.532V16H517.864V1Z" fill="#2C4339"/>
<path d="M518.704 1H517.371V16H518.704V1Z" fill="#23302B"/>
<path d="M519.544 1H518.211V16H519.544V1Z" fill="#1F2824"/>
<path d="M520.383 1H519.051V16H520.383V1Z" fill="#314D41"/>
<path d="M521.223 1H519.89V16H521.223V1Z" fill="#2B4138"/>
<path d="M522.063 1H520.73V16H522.063V1Z" fill="#1D2522"/>
<path d="M522.902 1H521.57V16H522.902V1Z" fill="#1F2824"/>
<path d="M523.742 1H522.409V16H523.742V1Z" fill="#23302B"/>
<path d="M524.581 1H523.249V16H524.581V1Z" fill="#212D28"/>
<path d="M525.421 1H524.088V16H525.421V1Z" fill="#1C2320"/>
<path d="M526.261 1H524.928V16H526.261V1Z" fill="#1F2824"/>
<path d="M527.1 1H525.768V16H527.1V1Z" fill="#212B27"/>
<path d="M527.94 1H526.607V16H527.94V1Z" fill="#1F2824"/>
<path d="M528.78 1H527.447V16H528.78V1Z" fill="#212B27"/>
<path d="M529.619 1H528.287V16H529.619V1Z" fill="#24322C"/>
<path d="M530.459 1H529.126V16H530.459V1Z" fill="#25342D"/>
<path d="M531.299 1H529.966V16H531.299V1Z" fill="#3B6251"/>
<path d="M532.138 1H530.805V16H532.138V1Z" fill="#314E42"/>
<path d="M532.978 1H531.645V16H532.978V1Z" fill="#314D41"/>
<path d="M533.817 1H532.485V16H533.817V1Z" fill="#1C2320"/>
<path d="M534.657 1H533.324V16H534.657V1Z" fill="#23302B"/>
<path d="M535.497 1H534.164V16H535.497V1Z" fill="#325043"/>
<path d="M536.336 1H535.004V16H536.336V1Z" fill="#1B201E"/>
<path d="M537.176 1H535.843V16H537.176V1Z" fill="#314E42"/>
<path d="M538.016 1H536.683V16H538.016V1Z" fill="#293E35"/>
<path d="M538.855 1H537.522V16H538.855V1Z" fill="#1E2723"/>
<path d="M539.695 1H538.362V16H539.695V1Z" fill="#171817"/>
<path d="M540.534 1H539.202V16H540.534V1Z" fill="#24322C"/>
<path d="M541.374 1H540.041V16H541.374V1Z" fill="#283A32"/>
<path d="M542.214 1H540.881V16H542.214V1Z" fill="#1F2824"/>
<path d="M543.053 1H541.721V16H543.053V1Z" fill="#4E886F"/>
<path d="M543.893 1H542.56V16H543.893V1Z" fill="#25342D"/>
<path d="M544.733 1H543.4V16H544.733V1Z" fill="#293E35"/>
<path d="M545.572 1H544.24V16H545.572V1Z" fill="#1A1E1C"/>
<path d="M546.412 1H545.079V16H546.412V1Z" fill="#293E35"/>
<path d="M547.251 1H545.919V16H547.251V1Z" fill="#212D28"/>
<path d="M548.091 1H546.758V16H548.091V1Z" fill="#3B6251"/>
<path d="M548.931 1H547.598V16H548.931V1Z" fill="#325043"/>
<path d="M549.77 1H548.438V16H549.77V1Z" fill="#212B27"/>
<path d="M550.61 1H549.277V16H550.61V1Z" fill="#191D1B"/>
<path d="M551.45 1H550.117V16H551.45V1Z" fill="#1F2824"/>
<path d="M552.289 1H550.957V16H552.289V1Z" fill="#212B27"/>
<path d="M553.129 1H551.796V16H553.129V1Z" fill="#212B27"/>
<path d="M553.968 1H552.636V16H553.968V1Z" fill="#43735E"/>
<path d="M554.808 1H553.475V16H554.808V1Z" fill="#477B65"/>
<path d="M555.648 1H554.315V16H555.648V1Z" fill="#3A6050"/>
<path d="M556.487 1H555.155V16H556.487V1Z" fill="#64B592"/>
<path d="M557.327 1H555.994V16H557.327V1Z" fill="#304B3F"/>
<path d="M558.167 1H556.834V16H558.167V1Z" fill="#1C221F"/>
<path d="M559.006 1H557.674V16H559.006V1Z" fill="#1F2824"/>
<path d="M559.846 1H558.513V16H559.846V1Z" fill="#181B1A"/>
<path d="M560.686 1H559.353V16H560.686V1Z" fill="#212B27"/>
<path d="M561.525 1H560.192V16H561.525V1Z" fill="#1E2723"/>
<path d="M562.365 1H561.032V16H562.365V1Z" fill="#263730"/>
<path d="M563.204 1H561.872V16H563.204V1Z" fill="#191D1B"/>
<path d="M564.044 1H562.711V16H564.044V1Z" fill="#212D28"/>
<path d="M564.884 1H563.551V16H564.884V1Z" fill="#25342D"/>
<path d="M565.723 1H564.391V16H565.723V1Z" fill="#212D28"/>
<path d="M566.563 1H565.23V16H566.563V1Z" fill="#202A25"/>
<path d="M567.403 1H566.07V16H567.403V1Z" fill="#1F2824"/>
<path d="M568.242 1H566.909V16H568.242V1Z" fill="#1A1E1C"/>
<path d="M569.082 1H567.749V16H569.082V1Z" fill="#1B201E"/>
<path d="M569.921 1H568.589V16H569.921V1Z" fill="#1C2320"/>
<path d="M570.761 1H569.428V16H570.761V1Z" fill="#1C2320"/>
<path d="M571.601 1H570.268V16H571.601V1Z" fill="#212D28"/>
<path d="M572.44 1H571.108V16H572.44V1Z" fill="#2D463B"/>
<path d="M573.28 1H571.947V16H573.28V1Z" fill="#1C221F"/>
<path d="M574.12 1H572.787V16H574.12V1Z" fill="#222F29"/>
<path d="M574.959 1H573.627V16H574.959V1Z" fill="#1F2824"/>
<path d="M575.799 1H574.466V16H575.799V1Z" fill="#1B201E"/>
<path d="M576.638 1H575.306V16H576.638V1Z" fill="#283A32"/>
<path d="M577.478 1H576.145V16H577.478V1Z" fill="#1A1E1C"/>
<path d="M578.318 1H576.985V16H578.318V1Z" fill="#325043"/>
<path d="M579.157 1H577.825V16H579.157V1Z" fill="#1F2824"/>
<path d="M579.997 1H578.664V16H579.997V1Z" fill="#2D463B"/>
<path d="M580.837 1H579.504V16H580.837V1Z" fill="#181919"/>
<path d="M581.676 1H580.344V16H581.676V1Z" fill="#293C34"/>
<path d="M582.516 1H581.183V16H582.516V1Z" fill="#1C221F"/>
<path d="M583.356 1H582.023V16H583.356V1Z" fill="#1C221F"/>
<path d="M584.195 1H582.862V16H584.195V1Z" fill="#212D28"/>
<path d="M585.035 1H583.702V16H585.035V1Z" fill="#161616"/>
<path d="M585.874 1H584.542V16H585.874V1Z" fill="#212D28"/>
<path d="M586.714 1H585.381V16H586.714V1Z" fill="#202A25"/>
<path d="M587.554 1H586.221V16H587.554V1Z" fill="#1E2723"/>
<path d="M588.393 1H587.061V16H588.393V1Z" fill="#23302B"/>
<path d="M589.233 1H587.9V16H589.233V1Z" fill="#273931"/>
<path d="M590.073 1H588.74V16H590.073V1Z" fill="#23302B"/>
<path d="M590.912 1H589.579V16H590.912V1Z" fill="#23302B"/>
<path d="M591.752 1H590.419V16H591.752V1Z" fill="#2C4339"/>
<path d="M592.591 1H591.259V16H592.591V1Z" fill="#25352F"/>
<path d="M593.431 1H592.098V16H593.431V1Z" fill="#1B201E"/>
<path d="M594.271 1H592.938V16H594.271V1Z" fill="#181919"/>
<path d="M595.11 1H593.778V16H595.11V1Z" fill="#25342D"/>
<path d="M595.95 1H594.617V16H595.95V1Z" fill="#293C34"/>
<path d="M596.79 1H595.457V16H596.79V1Z" fill="#2D463B"/>
<path d="M597.629 1H596.297V16H597.629V1Z" fill="#263730"/>
<path d="M598.469 1H597.136V16H598.469V1Z" fill="#355547"/>
<path d="M599.308 1H597.976V16H599.308V1Z" fill="#1C2320"/>
<path d="M600.148 1H598.815V16H600.148V1Z" fill="#1C221F"/>
<path d="M600.988 1H599.655V16H600.988V1Z" fill="#23302B"/>
<path d="M601.827 1H600.495V16H601.827V1Z" fill="#161616"/>
<path d="M602.667 1H601.334V16H602.667V1Z" fill="#161616"/>
<path d="M603.507 1H602.174V16H603.507V1Z" fill="#25352F"/>
<path d="M604.346 1H603.014V16H604.346V1Z" fill="#212B27"/>
<path d="M605.186 1H603.853V16H605.186V1Z" fill="#1A1E1C"/>
<path d="M606.025 1H604.693V16H606.025V1Z" fill="#212B27"/>
<path d="M606.865 1H605.532V16H606.865V1Z" fill="#1F2824"/>
<path d="M607.705 1H606.372V16H607.705V1Z" fill="#23302B"/>
<path d="M608.544 1H607.212V16H608.544V1Z" fill="#212B27"/>
<path d="M609.384 1H608.051V16H609.384V1Z" fill="#181919"/>
<path d="M610.224 1H608.891V16H610.224V1Z" fill="#222F29"/>
<path d="M611.063 1H609.731V16H611.063V1Z" fill="#263730"/>
<path d="M611.903 1H610.57V16H611.903V1Z" fill="#2D443A"/>
<path d="M612.742 1H611.41V16H612.742V1Z" fill="#25342D"/>
<path d="M613.582 1H612.249V16H613.582V1Z" fill="#1F2824"/>
<path d="M614.422 1H613.089V16H614.422V1Z" fill="#212D28"/>
<path d="M615.261 1H613.929V16H615.261V1Z" fill="#2D463B"/>
<path d="M616.101 1H614.768V16H616.101V1Z" fill="#25342D"/>
<path d="M616.941 1H615.608V16H616.941V1Z" fill="#181B1A"/>
<path d="M617.78 1H616.448V16H617.78V1Z" fill="#3A5F4F"/>
<path d="M618.62 1H617.287V16H618.62V1Z" fill="#222F29"/>
<path d="M619.46 1H618.127V16H619.46V1Z" fill="#293C34"/>
<path d="M620.299 1H618.966V16H620.299V1Z" fill="#293E35"/>
<path d="M621.139 1H619.806V16H621.139V1Z" fill="#25342D"/>
<path d="M621.978 1H620.646V16H621.978V1Z" fill="#273931"/>
<path d="M622.818 1H621.485V16H622.818V1Z" fill="#202A25"/>
<path d="M623.658 1H622.325V16H623.658V1Z" fill="#212D28"/>
<path d="M624.497 1H623.165V16H624.497V1Z" fill="#212D28"/>
<path d="M625.337 1H624.004V16H625.337V1Z" fill="#273931"/>
<path d="M626.177 1H624.844V16H626.177V1Z" fill="#212D28"/>
<path d="M627.016 1H625.683V16H627.016V1Z" fill="#1C221F"/>
<path d="M627.856 1H626.523V16H627.856V1Z" fill="#263730"/>
<path d="M628.695 1H627.363V16H628.695V1Z" fill="#202A25"/>
<path d="M629.535 1H628.202V16H629.535V1Z" fill="#1E2723"/>
<path d="M630.375 1H629.042V16H630.375V1Z" fill="#191D1B"/>
<path d="M631.214 1H629.882V16H631.214V1Z" fill="#304B3F"/>
<path d="M632.054 1H630.721V16H632.054V1Z" fill="#222F29"/>
<path d="M632.894 1H631.561V16H632.894V1Z" fill="#1B201E"/>
<path d="M633.733 1H632.401V16H633.733V1Z" fill="#23302B"/>
<path d="M634.573 1H633.24V16H634.573V1Z" fill="#202A25"/>
<path d="M635.412 1H634.08V16H635.412V1Z" fill="#222F29"/>
<path d="M636.252 1H634.919V16H636.252V1Z" fill="#1C221F"/>
<path d="M637.092 1H635.759V16H637.092V1Z" fill="#222F29"/>
<path d="M637.931 1H636.599V16H637.931V1Z" fill="#222F29"/>
<path d="M638.771 1H637.438V16H638.771V1Z" fill="#3A5F4F"/>
<path d="M639.611 1H638.278V16H639.611V1Z" fill="#1C221F"/>
<path d="M640.45 1H639.118V16H640.45V1Z" fill="#2F493E"/>
<path d="M641.29 1H639.957V16H641.29V1Z" fill="#487C66"/>
<path d="M642.13 1H640.797V16H642.13V1Z" fill="#4B836B"/>
<path d="M642.969 1H641.636V16H642.969V1Z" fill="#508D73"/>
<path d="M643.809 1H642.476V16H643.809V1Z" fill="#3F6A58"/>
<path d="M644.648 1H643.316V16H644.648V1Z" fill="#1B201E"/>
<path d="M645.488 1H644.155V16H645.488V1Z" fill="#1C221F"/>
<path d="M646.328 1H644.995V16H646.328V1Z" fill="#1C2320"/>
<path d="M647.167 1H645.835V16H647.167V1Z" fill="#1F2824"/>
<path d="M648.007 1H646.674V16H648.007V1Z" fill="#212B27"/>
<path d="M648.846 1H647.514V16H648.846V1Z" fill="#395D4E"/>
<path d="M649.686 1H648.353V16H649.686V1Z" fill="#447460"/>
<path d="M650.526 1H649.193V16H650.526V1Z" fill="#222F29"/>
<path d="M651.365 1H650.033V16H651.365V1Z" fill="#1F2824"/>
<path d="M652.205 1H650.872V16H652.205V1Z" fill="#293C34"/>
<path d="M653.045 1H651.712V16H653.045V1Z" fill="#24322C"/>
<path d="M653.884 1H652.552V16H653.884V1Z" fill="#283A32"/>
<path d="M654.724 1H653.391V16H654.724V1Z" fill="#304B3F"/>
<path d="M655.564 1H654.231V16H655.564V1Z" fill="#345346"/>
<path d="M656.403 1H655.07V16H656.403V1Z" fill="#2E483D"/>
<path d="M657.243 1H655.91V16H657.243V1Z" fill="#1D2522"/>
<path d="M658.082 1H656.75V16H658.082V1Z" fill="#273931"/>
<path d="M658.922 1H657.589V16H658.922V1Z" fill="#1D2522"/>
<path d="M659.762 1H658.429V16H659.762V1Z" fill="#2F493E"/>
<path d="M660.601 1H659.269V16H660.601V1Z" fill="#3E6755"/>
<path d="M661.441 1H660.108V16H661.441V1Z" fill="#3B6251"/>
<path d="M662.281 1H660.948V16H662.281V1Z" fill="#283A32"/>
<path d="M663.12 1H661.787V16H663.12V1Z" fill="#2D443A"/>
<path d="M663.96 1H662.627V16H663.96V1Z" fill="#335144"/>
<path d="M664.799 1H663.467V16H664.799V1Z" fill="#1D2522"/>
<path d="M665.639 1H664.306V16H665.639V1Z" fill="#283A32"/>
<path d="M666.479 1H665.146V16H666.479V1Z" fill="#335144"/>
<path d="M667.318 1H665.986V16H667.318V1Z" fill="#2D443A"/>
<path d="M668.158 1H666.825V16H668.158V1Z" fill="#325043"/>
<path d="M668.998 1H667.665V16H668.998V1Z" fill="#25342D"/>
<path d="M669.837 1H668.505V16H669.837V1Z" fill="#212B27"/>
<path d="M670.677 1H669.344V16H670.677V1Z" fill="#385B4C"/>
<path d="M671.516 1H670.184V16H671.516V1Z" fill="#355547"/>
<path d="M672.356 1H671.023V16H672.356V1Z" fill="#25352F"/>
<path d="M673.196 1H671.863V16H673.196V1Z" fill="#2F493E"/>
<path d="M674.035 1H672.703V16H674.035V1Z" fill="#3E6755"/>
<path d="M674.875 1H673.542V16H674.875V1Z" fill="#2C4339"/>
<path d="M675.715 1H674.382V16H675.715V1Z" fill="#273931"/>
<path d="M676.554 1H675.222V16H676.554V1Z" fill="#345346"/>
<path d="M677.394 1H676.061V16H677.394V1Z" fill="#24322C"/>
<path d="M678.234 1H676.901V16H678.234V1Z" fill="#2E483D"/>
<path d="M679.073 1H677.74V16H679.073V1Z" fill="#202A25"/>
<path d="M679.913 1H678.58V16H679.913V1Z" fill="#293E35"/>
<path d="M680.752 1H679.42V16H680.752V1Z" fill="#283A32"/>
<path d="M681.592 1H680.259V16H681.592V1Z" fill="#304B3F"/>
<path d="M682.432 1H681.099V16H682.432V1Z" fill="#385B4C"/>
<path d="M683.271 1H681.939V16H683.271V1Z" fill="#2E483D"/>
<path d="M684.111 1H682.778V16H684.111V1Z" fill="#36584A"/>
<path d="M684.951 1H683.618V16H684.951V1Z" fill="#314D41"/>
<path d="M685.79 1H684.457V16H685.79V1Z" fill="#1F2824"/>
<path d="M686.63 1H685.297V16H686.63V1Z" fill="#2F493E"/>
<path d="M687.469 1H686.137V16H687.469V1Z" fill="#2F493E"/>
<path d="M688.309 1H686.976V16H688.309V1Z" fill="#273931"/>
<path d="M689.149 1H687.816V16H689.149V1Z" fill="#25352F"/>
<path d="M689.988 1H688.656V16H689.988V1Z" fill="#293E35"/>
<path d="M690.828 1H689.495V16H690.828V1Z" fill="#273931"/>
<path d="M691.668 1H690.335V16H691.668V1Z" fill="#25352F"/>
<path d="M692.507 1H691.174V16H692.507V1Z" fill="#325043"/>
<path d="M693.347 1H692.014V16H693.347V1Z" fill="#325043"/>
<path d="M694.186 1H692.854V16H694.186V1Z" fill="#273931"/>
<path d="M695.026 1H693.693V16H695.026V1Z" fill="#314E42"/>
<path d="M695.866 1H694.533V16H695.866V1Z" fill="#4F8A70"/>
<path d="M696.705 1H695.373V16H696.705V1Z" fill="#222F29"/>
<path d="M697.545 1H696.212V16H697.545V1Z" fill="#23302B"/>
<path d="M698.385 1H697.052V16H698.385V1Z" fill="#212B27"/>
<path d="M699.224 1H697.891V16H699.224V1Z" fill="#273931"/>
<path d="M700.064 1H698.731V16H700.064V1Z" fill="#2E483D"/>
<path d="M700.903 1H699.571V16H700.903V1Z" fill="#314E42"/>
<path d="M701.743 1H700.41V16H701.743V1Z" fill="#355547"/>
<path d="M702.583 1H701.25V16H702.583V1Z" fill="#2B4138"/>
<path d="M703.422 1H702.09V16H703.422V1Z" fill="#293E35"/>
<path d="M704.262 1H702.929V16H704.262V1Z" fill="#293E35"/>
<path d="M705.102 1H703.769V16H705.102V1Z" fill="#3A6050"/>
<path d="M705.941 1H704.609V16H705.941V1Z" fill="#3E6755"/>
<path d="M706.781 1H705.448V16H706.781V1Z" fill="#406C59"/>
<path d="M707.621 1H706.288V16H707.621V1Z" fill="#5CA686"/>
<path d="M708.46 1H707.127V16H708.46V1Z" fill="#4F8A70"/>
<path d="M709.3 1H707.967V16H709.3V1Z" fill="#579C7F"/>
<path d="M710.139 1H708.807V16H710.139V1Z" fill="#61B08E"/>
<path d="M710.979 1H709.646V16H710.979V1Z" fill="#263730"/>
<path d="M711.819 1H710.486V16H711.819V1Z" fill="#385B4C"/>
<path d="M712.658 1H711.326V16H712.658V1Z" fill="#24322C"/>
<path d="M713.498 1H712.165V16H713.498V1Z" fill="#457661"/>
<path d="M714.338 1H713.005V16H714.338V1Z" fill="#395D4E"/>
<path d="M715.177 1H713.844V16H715.177V1Z" fill="#2E483D"/>
<path d="M716.017 1H714.684V16H716.017V1Z" fill="#293C34"/>
<path d="M716.856 1H715.524V16H716.856V1Z" fill="#171817"/>
<path d="M717.696 1H716.363V16H717.696V1Z" fill="#2A3F36"/>
<path d="M718.536 1H717.203V16H718.536V1Z" fill="#64B693"/>
<path d="M719.375 1H718.043V16H719.375V1Z" fill="#88FFCC"/>
<path d="M720.215 1H718.882V16H720.215V1Z" fill="#65B894"/>
<path d="M721.055 1H719.722V16H721.055V1Z" fill="#539478"/>
<path d="M721.894 1H720.561V16H721.894V1Z" fill="#42715D"/>
<path d="M722.734 1H721.401V16H722.734V1Z" fill="#23302B"/>
<path d="M723.573 1H722.241V16H723.573V1Z" fill="#3E6755"/>
<path d="M724.413 1H723.08V16H724.413V1Z" fill="#365648"/>
<path d="M725.253 1H723.92V16H725.253V1Z" fill="#416E5A"/>
<path d="M726.092 1H724.76V16H726.092V1Z" fill="#426F5C"/>
<path d="M726.932 1H725.599V16H726.932V1Z" fill="#25342D"/>
<path d="M727.772 1H726.439V16H727.772V1Z" fill="#1D2522"/>
<path d="M728.611 1H727.279V16H728.611V1Z" fill="#1C221F"/>
<path d="M729.451 1H728.118V16H729.451V1Z" fill="#273931"/>
<path d="M730.29 1H728.958V16H730.29V1Z" fill="#25352F"/>
<path d="M731.13 1H729.797V16H731.13V1Z" fill="#43735E"/>
<path d="M731.97 1H730.637V16H731.97V1Z" fill="#2D463B"/>
<path d="M732.809 1H731.477V16H732.809V1Z" fill="#355547"/>
<path d="M733.649 1H732.316V16H733.649V1Z" fill="#2F493E"/>
<path d="M734.489 1H733.156V16H734.489V1Z" fill="#2F493E"/>
<path d="M735.328 1H733.995V16H735.328V1Z" fill="#2A3F36"/>
<path d="M736.168 1H734.835V16H736.168V1Z" fill="#24322C"/>
<path d="M737.007 1H735.675V16H737.007V1Z" fill="#2F493E"/>
<path d="M737.847 1H736.514V16H737.847V1Z" fill="#181919"/>
<path d="M738.687 1H737.354V16H738.687V1Z" fill="#1F2824"/>
<path d="M739.526 1H738.194V16H739.526V1Z" fill="#212D28"/>
<path d="M740.366 1H739.033V16H740.366V1Z" fill="#2B4138"/>
<path d="M741.206 1H739.873V16H741.206V1Z" fill="#2C4339"/>
<path d="M742.045 1H740.713V16H742.045V1Z" fill="#314D41"/>
<path d="M742.885 1H741.552V16H742.885V1Z" fill="#222F29"/>
<path d="M743.725 1H742.392V16H743.725V1Z" fill="#191D1B"/>
<path d="M744.564 1H743.231V16H744.564V1Z" fill="#263730"/>
<path d="M745.404 1H744.071V16H745.404V1Z" fill="#2C4339"/>
<path d="M746.243 1H744.911V16H746.243V1Z" fill="#212B27"/>
<path d="M747.083 1H745.75V16H747.083V1Z" fill="#293E35"/>
<path d="M747.923 1H746.59V16H747.923V1Z" fill="#1F2824"/>
<path d="M748.762 1H747.43V16H748.762V1Z" fill="#212D28"/>
<path d="M749.602 1H748.269V16H749.602V1Z" fill="#24322C"/>
<path d="M750.442 1H749.109V16H750.442V1Z" fill="#263730"/>
<path d="M751.281 1H749.948V16H751.281V1Z" fill="#212D28"/>
<path d="M752.121 1H750.788V16H752.121V1Z" fill="#23302B"/>
<path d="M752.96 1H751.628V16H752.96V1Z" fill="#2B4138"/>
<path d="M753.8 1H752.467V16H753.8V1Z" fill="#24322C"/>
<path d="M754.64 1H753.307V16H754.64V1Z" fill="#1B201E"/>
<path d="M755.479 1H754.147V16H755.479V1Z" fill="#212B27"/>
<path d="M756.319 1H754.986V16H756.319V1Z" fill="#293E35"/>
<path d="M757.159 1H755.826V16H757.159V1Z" fill="#202A25"/>
<path d="M757.998 1H756.665V16H757.998V1Z" fill="#23302B"/>
<path d="M758.838 1H757.505V16H758.838V1Z" fill="#222F29"/>
<path d="M759.677 1H758.345V16H759.677V1Z" fill="#212B27"/>
<path d="M760.517 1H759.184V16H760.517V1Z" fill="#25352F"/>
<path d="M761.357 1H760.024V16H761.357V1Z" fill="#222F29"/>
<path d="M762.196 1H760.864V16H762.196V1Z" fill="#1C2320"/>
<path d="M763.036 1H761.703V16H763.036V1Z" fill="#1D2522"/>
<path d="M763.876 1H762.543V16H763.876V1Z" fill="#1D2522"/>
<path d="M764.715 1H763.383V16H764.715V1Z" fill="#1F2824"/>
<path d="M765.555 1H764.222V16H765.555V1Z" fill="#1B201E"/>
<path d="M766.394 1H765.062V16H766.394V1Z" fill="#1E2723"/>
<path d="M767.234 1H765.901V16H767.234V1Z" fill="#72D2A9"/>
<path d="M768.074 1H766.741V16H768.074V1Z" fill="#1B201E"/>
<path d="M768.913 1H767.581V16H768.913V1Z" fill="#1A1E1C"/>
<path d="M769.753 1H768.42V16H769.753V1Z" fill="#24322C"/>
<path d="M770.593 1H769.26V16H770.593V1Z" fill="#1C221F"/>
<path d="M771.432 1H770.1V16H771.432V1Z" fill="#1E2723"/>
<path d="M772.272 1H770.939V16H772.272V1Z" fill="#24322C"/>
<path d="M773.111 1H771.779V16H773.111V1Z" fill="#23302B"/>
<path d="M773.951 1H772.618V16H773.951V1Z" fill="#191D1B"/>
<path d="M774.791 1H773.458V16H774.791V1Z" fill="#283A32"/>
<path d="M775.63 1H774.298V16H775.63V1Z" fill="#212D28"/>
<path d="M776.47 1H775.137V16H776.47V1Z" fill="#24322C"/>
<path d="M777.31 1H775.977V16H777.31V1Z" fill="#222F29"/>
<path d="M778.149 1H776.817V16H778.149V1Z" fill="#385B4C"/>
<path d="M778.989 1H777.656V16H778.989V1Z" fill="#25352F"/>
<path d="M779.828 1H778.496V16H779.828V1Z" fill="#25342D"/>
<path d="M780.668 1H779.335V16H780.668V1Z" fill="#202A25"/>
<path d="M781.508 1H780.175V16H781.508V1Z" fill="#293E35"/>
<path d="M782.347 1H781.015V16H782.347V1Z" fill="#2A3F36"/>
<path d="M783.187 1H781.854V16H783.187V1Z" fill="#1E2723"/>
<path d="M784.027 1H782.694V16H784.027V1Z" fill="#395D4E"/>
<path d="M784.866 1H783.534V16H784.866V1Z" fill="#355547"/>
<path d="M785.706 1H784.373V16H785.706V1Z" fill="#314D41"/>
<path d="M786.546 1H785.213V16H786.546V1Z" fill="#25352F"/>
<path d="M787.385 1H786.052V16H787.385V1Z" fill="#212B27"/>
<path d="M788.225 1H786.892V16H788.225V1Z" fill="#222F29"/>
<path d="M789.064 1H787.732V16H789.064V1Z" fill="#1D2522"/>
<path d="M789.904 1H788.571V16H789.904V1Z" fill="#1E2723"/>
<path d="M790.744 1H789.411V16H790.744V1Z" fill="#2C4339"/>
<path d="M791.583 1H790.251V16H791.583V1Z" fill="#2F493E"/>
<path d="M792.423 1H791.09V16H792.423V1Z" fill="#202A25"/>
<path d="M793.263 1H791.93V16H793.263V1Z" fill="#1C221F"/>
<path d="M794.102 1H792.77V16H794.102V1Z" fill="#273931"/>
<path d="M794.942 1H793.609V16H794.942V1Z" fill="#314D41"/>
<path d="M795.781 1H794.449V16H795.781V1Z" fill="#25342D"/>
<path d="M796.621 1H795.288V16H796.621V1Z" fill="#314D41"/>
<path d="M797.461 1H796.128V16H797.461V1Z" fill="#202A25"/>
<path d="M798.3 1H796.968V16H798.3V1Z" fill="#1D2522"/>
<path d="M799.14 1H797.807V16H799.14V1Z" fill="#1F2824"/>
<path d="M799.98 1H798.647V16H799.98V1Z" fill="#212D28"/>
<path d="M800.819 1H799.487V16H800.819V1Z" fill="#314E42"/>
<path d="M801.659 1H800.326V16H801.659V1Z" fill="#23302B"/>
<path d="M802.498 1H801.166V16H802.498V1Z" fill="#314E42"/>
<path d="M803.338 1H802.005V16H803.338V1Z" fill="#293C34"/>
<path d="M804.178 1H802.845V16H804.178V1Z" fill="#293E35"/>
<path d="M805.017 1H803.685V16H805.017V1Z" fill="#191D1B"/>
<path d="M805.857 1H804.524V16H805.857V1Z" fill="#191D1B"/>
<path d="M806.697 1H805.364V16H806.697V1Z" fill="#273931"/>
<path d="M807.536 1H806.204V16H807.536V1Z" fill="#23302B"/>
<path d="M808.376 1H807.043V16H808.376V1Z" fill="#202A25"/>
<path d="M809.216 1H807.883V16H809.216V1Z" fill="#212B27"/>
<path d="M810.055 1H808.722V16H810.055V1Z" fill="#1B201E"/>
<path d="M810.895 1H809.562V16H810.895V1Z" fill="#23302B"/>
<path d="M811.734 1H810.402V16H811.734V1Z" fill="#1D2522"/>
<path d="M812.574 1H811.241V16H812.574V1Z" fill="#222F29"/>
<path d="M813.414 1H812.081V16H813.414V1Z" fill="#1F2824"/>
<path d="M814.253 1H812.921V16H814.253V1Z" fill="#2D443A"/>
<path d="M815.093 1H813.76V16H815.093V1Z" fill="#1C221F"/>
<path d="M815.932 1H814.6V16H815.932V1Z" fill="#263730"/>
<path d="M816.772 1H815.44V16H816.772V1Z" fill="#23302B"/>
<path d="M817.612 1H816.279V16H817.612V1Z" fill="#24322C"/>
<path d="M818.451 1H817.119V16H818.451V1Z" fill="#1C221F"/>
<path d="M819.291 1H817.958V16H819.291V1Z" fill="#212D28"/>
<path d="M820.131 1H818.798V16H820.131V1Z" fill="#212B27"/>
<path d="M820.97 1H819.638V16H820.97V1Z" fill="#161616"/>
<path d="M821.81 1H820.477V16H821.81V1Z" fill="#191D1B"/>
<path d="M822.65 1H821.317V16H822.65V1Z" fill="#171817"/>
<path d="M823.489 1H822.156V16H823.489V1Z" fill="#1C221F"/>
<path d="M824.329 1H822.996V16H824.329V1Z" fill="#273931"/>
<path d="M825.168 1H823.836V16H825.168V1Z" fill="#1D2522"/>
<path d="M826.008 1H824.675V16H826.008V1Z" fill="#395D4E"/>
<path d="M826.848 1H825.515V16H826.848V1Z" fill="#23302B"/>
<path d="M827.687 1H826.355V16H827.687V1Z" fill="#212D28"/>
<path d="M828.527 1H827.194V16H828.527V1Z" fill="#212D28"/>
<path d="M829.367 1H828.034V16H829.367V1Z" fill="#25352F"/>
<path d="M830.206 1H828.874V16H830.206V1Z" fill="#335144"/>
<path d="M831.046 1H829.713V16H831.046V1Z" fill="#273931"/>
<path d="M831.885 1H830.553V16H831.885V1Z" fill="#304B3F"/>
<path d="M832.725 1H831.392V16H832.725V1Z" fill="#508D73"/>
<path d="M833.565 1H832.232V16H833.565V1Z" fill="#1C2320"/>
<path d="M834.404 1H833.072V16H834.404V1Z" fill="#23302B"/>
<path d="M835.244 1H833.911V16H835.244V1Z" fill="#2D443A"/>
<path d="M836.084 1H834.751V16H836.084V1Z" fill="#23302B"/>
<path d="M836.923 1H835.591V16H836.923V1Z" fill="#23302B"/>
<path d="M837.763 1H836.43V16H837.763V1Z" fill="#212D28"/>
<path d="M838.602 1H837.27V16H838.602V1Z" fill="#314E42"/>
<path d="M839.442 1H838.109V16H839.442V1Z" fill="#222F29"/>
<path d="M840.282 1H838.949V16H840.282V1Z" fill="#2D443A"/>
<path d="M841.121 1H839.789V16H841.121V1Z" fill="#2F493E"/>
<path d="M841.961 1H840.628V16H841.961V1Z" fill="#314D41"/>
<path d="M842.801 1H841.468V16H842.801V1Z" fill="#2D463B"/>
<path d="M843.64 1H842.308V16H843.64V1Z" fill="#293E35"/>
<path d="M844.48 1H843.147V16H844.48V1Z" fill="#68BD98"/>
<path d="M845.32 1H843.987V16H845.32V1Z" fill="#2B4138"/>
<path d="M846.159 1H844.826V16H846.159V1Z" fill="#1E2723"/>
<path d="M846.999 1H845.666V16H846.999V1Z" fill="#2A3F36"/>
<path d="M847.838 1H846.506V16H847.838V1Z" fill="#202A25"/>
<path d="M848.678 1H847.345V16H848.678V1Z" fill="#2C4339"/>
<path d="M849.518 1H848.185V16H849.518V1Z" fill="#25342D"/>
<path d="M850.357 1H849.025V16H850.357V1Z" fill="#191D1B"/>
<path d="M851.197 1H849.864V16H851.197V1Z" fill="#355547"/>
<path d="M852.037 1H850.704V16H852.037V1Z" fill="#24322C"/>
<path d="M852.876 1H851.544V16H852.876V1Z" fill="#212D28"/>
<path d="M853.716 1H852.383V16H853.716V1Z" fill="#24322C"/>
<path d="M854.555 1H853.223V16H854.555V1Z" fill="#36584A"/>
<path d="M855.395 1H854.062V16H855.395V1Z" fill="#325043"/>
<path d="M856.235 1H854.902V16H856.235V1Z" fill="#293E35"/>
<path d="M857.074 1H855.742V16H857.074V1Z" fill="#314D41"/>
<path d="M857.914 1H856.581V16H857.914V1Z" fill="#1F2824"/>
<path d="M858.754 1H857.421V16H858.754V1Z" fill="#212D28"/>
<path d="M859.593 1H858.26V16H859.593V1Z" fill="#1C2320"/>
<path d="M860.433 1H859.1V16H860.433V1Z" fill="#1F2824"/>
<path d="M861.273 1H859.94V16H861.273V1Z" fill="#599F81"/>
<path d="M862.112 1H860.779V16H862.112V1Z" fill="#85F8C7"/>
<path d="M862.952 1H861.619V16H862.952V1Z" fill="#2D463B"/>
<path d="M863.791 1H862.459V16H863.791V1Z" fill="#202A25"/>
<path d="M864.631 1H863.298V16H864.631V1Z" fill="#263730"/>
<path d="M865.471 1H864.138V16H865.471V1Z" fill="#273931"/>
<path d="M866.31 1H864.978V16H866.31V1Z" fill="#304B3F"/>
<path d="M867.15 1H865.817V16H867.15V1Z" fill="#2B4138"/>
<path d="M867.989 1H866.657V16H867.989V1Z" fill="#1D2522"/>
<path d="M868.829 1H867.496V16H868.829V1Z" fill="#1C2320"/>
<path d="M869.669 1H868.336V16H869.669V1Z" fill="#212D28"/>
<path d="M870.508 1H869.176V16H870.508V1Z" fill="#1F2824"/>
<path d="M871.348 1H870.015V16H871.348V1Z" fill="#212D28"/>
<path d="M872.188 1H870.855V16H872.188V1Z" fill="#222F29"/>
<path d="M873.027 1H871.695V16H873.027V1Z" fill="#1B201E"/>
<path d="M873.867 1H872.534V16H873.867V1Z" fill="#25352F"/>
<path d="M874.707 1H873.374V16H874.707V1Z" fill="#23302B"/>
<path d="M875.546 1H874.213V16H875.546V1Z" fill="#202A25"/>
<path d="M876.386 1H875.053V16H876.386V1Z" fill="#263730"/>
<path d="M877.225 1H875.893V16H877.225V1Z" fill="#25352F"/>
<path d="M878.065 1H876.732V16H878.065V1Z" fill="#23302B"/>
<path d="M878.905 1H877.572V16H878.905V1Z" fill="#191D1B"/>
<path d="M879.744 1H878.412V16H879.744V1Z" fill="#212B27"/>
<path d="M880.584 1H879.251V16H880.584V1Z" fill="#212B27"/>
<path d="M881.424 1H880.091V16H881.424V1Z" fill="#293C34"/>
<path d="M882.263 1H880.93V16H882.263V1Z" fill="#2C4339"/>
<path d="M883.103 1H881.77V16H883.103V1Z" fill="#1D2522"/>
<path d="M883.942 1H882.61V16H883.942V1Z" fill="#293C34"/>
<path d="M884.782 1H883.449V16H884.782V1Z" fill="#212B27"/>
<path d="M885.622 1H884.289V16H885.622V1Z" fill="#2D463B"/>
<path d="M886.461 1H885.129V16H886.461V1Z" fill="#25342D"/>
<path d="M887.301 1H885.968V16H887.301V1Z" fill="#395D4E"/>
<path d="M888.141 1H886.808V16H888.141V1Z" fill="#2C4339"/>
<path d="M888.98 1H887.647V16H888.98V1Z" fill="#263730"/>
<path d="M889.82 1H888.487V16H889.82V1Z" fill="#212B27"/>
<path d="M890.659 1H889.327V16H890.659V1Z" fill="#395D4E"/>
<path d="M891.499 1H890.166V16H891.499V1Z" fill="#529076"/>
<path d="M892.339 1H891.006V16H892.339V1Z" fill="#1C2320"/>
<path d="M893.178 1H891.846V16H893.178V1Z" fill="#191D1B"/>
<path d="M894.018 1H892.685V16H894.018V1Z" fill="#25352F"/>
<path d="M894.858 1H893.525V16H894.858V1Z" fill="#25342D"/>
<path d="M895.697 1H894.365V16H895.697V1Z" fill="#1C221F"/>
<path d="M896.537 1H895.204V16H896.537V1Z" fill="#1E2723"/>
<path d="M897.377 1H896.044V16H897.377V1Z" fill="#212B27"/>
<path d="M898.216 1H896.883V16H898.216V1Z" fill="#1D2522"/>
<path d="M899.056 1H897.723V16H899.056V1Z" fill="#181B1A"/>
<path d="M899.895 1H898.563V16H899.895V1Z" fill="#202A25"/>
<path d="M900.735 1H899.402V16H900.735V1Z" fill="#202A25"/>
<path d="M901.575 1H900.242V16H901.575V1Z" fill="#1C2320"/>
<path d="M902.414 1H901.082V16H902.414V1Z" fill="#1C2320"/>
<path d="M903.254 1H901.921V16H903.254V1Z" fill="#1E2723"/>
<path d="M904.093 1H902.761V16H904.093V1Z" fill="#283A32"/>
<path d="M904.933 1H903.6V16H904.933V1Z" fill="#2A3F36"/>
<path d="M905.773 1H904.44V16H905.773V1Z" fill="#25342D"/>
<path d="M906.612 1H905.28V16H906.612V1Z" fill="#23302B"/>
<path d="M907.452 1H906.119V16H907.452V1Z" fill="#1D2522"/>
<path d="M908.292 1H906.959V16H908.292V1Z" fill="#1A1E1C"/>
<path d="M909.131 1H907.799V16H909.131V1Z" fill="#1C2320"/>
<path d="M909.971 1H908.638V16H909.971V1Z" fill="#212B27"/>
<path d="M910.811 1H909.478V16H910.811V1Z" fill="#1C2320"/>
<path d="M911.65 1H910.317V16H911.65V1Z" fill="#293C34"/>
<path d="M912.49 1H911.157V16H912.49V1Z" fill="#1D2522"/>
<path d="M913.329 1H911.997V16H913.329V1Z" fill="#2C4339"/>
<path d="M914.169 1H912.836V16H914.169V1Z" fill="#24322C"/>
<path d="M915.009 1H913.676V16H915.009V1Z" fill="#263730"/>
<path d="M915.848 1H914.516V16H915.848V1Z" fill="#1F2824"/>
<path d="M916.688 1H915.355V16H916.688V1Z" fill="#4A8069"/>
<path d="M917.528 1H916.195V16H917.528V1Z" fill="#293C34"/>
<path d="M918.367 1H917.035V16H918.367V1Z" fill="#212B27"/>
<path d="M919.207 1H917.874V16H919.207V1Z" fill="#273931"/>
<path d="M920.046 1H918.714V16H920.046V1Z" fill="#25342D"/>
<path d="M920.886 1H919.553V16H920.886V1Z" fill="#222F29"/>
<path d="M921.726 1H920.393V16H921.726V1Z" fill="#1C221F"/>
<path d="M922.565 1H921.233V16H922.565V1Z" fill="#202A25"/>
<path d="M923.405 1H922.072V16H923.405V1Z" fill="#2A3F36"/>
<path d="M924.245 1H922.912V16H924.245V1Z" fill="#23302B"/>
<path d="M925.084 1H923.752V16H925.084V1Z" fill="#212B27"/>
<path d="M925.924 1H924.591V16H925.924V1Z" fill="#2B4138"/>
<path d="M926.763 1H925.431V16H926.763V1Z" fill="#23302B"/>
<path d="M927.603 1H926.27V16H927.603V1Z" fill="#25352F"/>
<path d="M928.443 1H927.11V16H928.443V1Z" fill="#1C2320"/>
<path d="M929.282 1H927.95V16H929.282V1Z" fill="#293E35"/>
<path d="M930.122 1H928.789V16H930.122V1Z" fill="#202A25"/>
<path d="M930.962 1H929.629V16H930.962V1Z" fill="#263730"/>
<path d="M931.801 1H930.469V16H931.801V1Z" fill="#36584A"/>
<path d="M932.641 1H931.308V16H932.641V1Z" fill="#1C221F"/>
<path d="M933.481 1H932.148V16H933.481V1Z" fill="#43735E"/>
<path d="M934.32 1H932.987V16H934.32V1Z" fill="#355547"/>
<path d="M935.16 1H933.827V16H935.16V1Z" fill="#25342D"/>
<path d="M935.999 1H934.667V16H935.999V1Z" fill="#273931"/>
<path d="M936.839 1H935.506V16H936.839V1Z" fill="#304B3F"/>
<path d="M937.679 1H936.346V16H937.679V1Z" fill="#375A4B"/>
<path d="M938.518 1H937.186V16H938.518V1Z" fill="#2E483D"/>
<path d="M939.358 1H938.025V16H939.358V1Z" fill="#3B6251"/>
<path d="M940.197 1H938.865V16H940.197V1Z" fill="#304B3F"/>
<path d="M941.037 1H939.705V16H941.037V1Z" fill="#202A25"/>
<path d="M941.877 1H940.544V16H941.877V1Z" fill="#1D2522"/>
<path d="M942.716 1H941.384V16H942.716V1Z" fill="#202A25"/>
<path d="M943.556 1H942.223V16H943.556V1Z" fill="#202A25"/>
<path d="M944.396 1H943.063V16H944.396V1Z" fill="#1E2723"/>
<path d="M945.235 1H943.903V16H945.235V1Z" fill="#1A1E1C"/>
<path d="M946.075 1H944.742V16H946.075V1Z" fill="#1C221F"/>
<path d="M946.915 1H945.582V16H946.915V1Z" fill="#1A1E1C"/>
<path d="M947.754 1H946.422V16H947.754V1Z" fill="#293E35"/>
<path d="M948.594 1H947.261V16H948.594V1Z" fill="#365648"/>
<path d="M949.433 1H948.101V16H949.433V1Z" fill="#3A6050"/>
<path d="M950.273 1H948.94V16H950.273V1Z" fill="#2D463B"/>
<path d="M951.113 1H949.78V16H951.113V1Z" fill="#181B1A"/>
<path d="M951.952 1H950.62V16H951.952V1Z" fill="#2A3F36"/>
<path d="M952.792 1H951.459V16H952.792V1Z" fill="#191D1B"/>
<path d="M953.632 1H952.299V16H953.632V1Z" fill="#25342D"/>
<path d="M954.471 1H953.139V16H954.471V1Z" fill="#212D28"/>
<path d="M955.311 1H953.978V16H955.311V1Z" fill="#1E2723"/>
<path d="M956.15 1H954.818V16H956.15V1Z" fill="#191D1B"/>
<path d="M956.99 1H955.657V16H956.99V1Z" fill="#1F2824"/>
<path d="M957.83 1H956.497V16H957.83V1Z" fill="#1C2320"/>
<path d="M958.669 1H957.337V16H958.669V1Z" fill="#1E2723"/>
<path d="M959.509 1H958.176V16H959.509V1Z" fill="#25352F"/>
<path d="M960.349 1H959.016V16H960.349V1Z" fill="#42715D"/>
<path d="M961.188 1H959.856V16H961.188V1Z" fill="#212D28"/>
<path d="M962.028 1H960.695V16H962.028V1Z" fill="#212B27"/>
<path d="M962.867 1H961.535V16H962.867V1Z" fill="#477963"/>
<path d="M963.707 1H962.374V16H963.707V1Z" fill="#24322C"/>
<path d="M964.547 1H963.214V16H964.547V1Z" fill="#273931"/>
<path d="M965.386 1H964.054V16H965.386V1Z" fill="#202A25"/>
<path d="M966.226 1H964.893V16H966.226V1Z" fill="#2C4339"/>
<path d="M967.066 1H965.733V16H967.066V1Z" fill="#263730"/>
<path d="M967.905 1H966.573V16H967.905V1Z" fill="#24322C"/>
<path d="M968.745 1H967.412V16H968.745V1Z" fill="#1B201E"/>
<path d="M969.585 1H968.252V16H969.585V1Z" fill="#1C2320"/>
<path d="M970.424 1H969.091V16H970.424V1Z" fill="#25342D"/>
<path d="M971.264 1H969.931V16H971.264V1Z" fill="#25352F"/>
<path d="M972.103 1H970.771V16H972.103V1Z" fill="#161616"/>
<path d="M972.943 1H971.61V16H972.943V1Z" fill="#1E2723"/>
<path d="M973.783 1H972.45V16H973.783V1Z" fill="#1D2522"/>
<path d="M974.622 1H973.29V16H974.622V1Z" fill="#222F29"/>
<path d="M975.462 1H974.129V16H975.462V1Z" fill="#25352F"/>
<path d="M976.302 1H974.969V16H976.302V1Z" fill="#24322C"/>
<path d="M977.141 1H975.808V16H977.141V1Z" fill="#385B4C"/>
<path d="M977.981 1H976.648V16H977.981V1Z" fill="#293C34"/>
<path d="M978.82 1H977.488V16H978.82V1Z" fill="#2B4138"/>
<path d="M979.66 1H978.327V16H979.66V1Z" fill="#2F493E"/>
<path d="M980.5 1H979.167V16H980.5V1Z" fill="#1C2320"/>
<path d="M981.339 1H980.007V16H981.339V1Z" fill="#1C221F"/>
<path d="M982.179 1H980.846V16H982.179V1Z" fill="#24322C"/>
<path d="M983.019 1H981.686V16H983.019V1Z" fill="#25342D"/>
<path d="M983.858 1H982.526V16H983.858V1Z" fill="#171817"/>
<path d="M984.698 1H983.365V16H984.698V1Z" fill="#222F29"/>
<path d="M985.537 1H984.205V16H985.537V1Z" fill="#181919"/>
<path d="M986.377 1H985.044V16H986.377V1Z" fill="#1B201E"/>
<path d="M987.217 1H985.884V16H987.217V1Z" fill="#181919"/>
<path d="M988.056 1H986.724V16H988.056V1Z" fill="#25352F"/>
<path d="M988.896 1H987.563V16H988.896V1Z" fill="#4D866E"/>
<path d="M989.736 1H988.403V16H989.736V1Z" fill="#61B08E"/>
<path d="M990.575 1H989.243V16H990.575V1Z" fill="#5DA788"/>
<path d="M991.415 1H990.082V16H991.415V1Z" fill="#64B592"/>
<path d="M992.254 1H990.922V16H992.254V1Z" fill="#202A25"/>
<path d="M993.094 1H991.761V16H993.094V1Z" fill="#191D1B"/>
<path d="M993.934 1H992.601V16H993.934V1Z" fill="#1D2522"/>
<path d="M994.773 1H993.441V16H994.773V1Z" fill="#293E35"/>
<path d="M995.613 1H994.28V16H995.613V1Z" fill="#222F29"/>
<path d="M996.453 1H995.12V16H996.453V1Z" fill="#161616"/>
<path d="M997.292 1H995.96V16H997.292V1Z" fill="#1E2723"/>
<path d="M998.132 1H996.799V16H998.132V1Z" fill="#161616"/>
<path d="M998.972 1H997.639V16H998.972V1Z" fill="#181919"/>
<path d="M999.811 1H998.478V16H999.811V1Z" fill="#1E2723"/>
<path d="M1000.65 1H999.318V16H1000.65V1Z" fill="#2B4138"/>
<path d="M1001.49 1H1000.16V16H1001.49V1Z" fill="#1F2824"/>
<path d="M1002.33 1H1001V16H1002.33V1Z" fill="#191D1B"/>
<path d="M1003.17 1H1001.84V16H1003.17V1Z" fill="#212D28"/>
<path d="M1004.01 1H1002.68V16H1004.01V1Z" fill="#1C2320"/>
<path d="M1004.85 1H1003.52V16H1004.85V1Z" fill="#477B65"/>
<path d="M1005.69 1H1004.36V16H1005.69V1Z" fill="#1C2320"/>
<path d="M1006.53 1H1005.2V16H1006.53V1Z" fill="#25342D"/>
<path d="M1007.37 1H1006.04V16H1007.37V1Z" fill="#23302B"/>
<path d="M1008.21 1H1006.87V16H1008.21V1Z" fill="#1B201E"/>
<path d="M1009.05 1H1007.71V16H1009.05V1Z" fill="#1B201E"/>
<path d="M1009.89 1H1008.55V16H1009.89V1Z" fill="#202A25"/>
<path d="M1010.73 1H1009.39V16H1010.73V1Z" fill="#293C34"/>
<path d="M1011.57 1H1010.23V16H1011.57V1Z" fill="#23302B"/>
<path d="M1012.41 1H1011.07V16H1012.41V1Z" fill="#2D443A"/>
<path d="M1013.25 1H1011.91V16H1013.25V1Z" fill="#263730"/>
<path d="M1014.08 1H1012.75V16H1014.08V1Z" fill="#273931"/>
<path d="M1014.92 1H1013.59V16H1014.92V1Z" fill="#1C2320"/>
<path d="M1015.76 1H1014.43V16H1015.76V1Z" fill="#1E2723"/>
<path d="M1016.6 1H1015.27V16H1016.6V1Z" fill="#1B201E"/>
<path d="M1017.44 1H1016.11V16H1017.44V1Z" fill="#1C221F"/>
<path d="M1018.28 1H1016.95V16H1018.28V1Z" fill="#263730"/>
<path d="M1019.12 1H1017.79V16H1019.12V1Z" fill="#212B27"/>
<path d="M1019.96 1H1018.63V16H1019.96V1Z" fill="#1D2522"/>
<path d="M1020.8 1H1019.47V16H1020.8V1Z" fill="#25352F"/>
<path d="M1021.64 1H1020.31V16H1021.64V1Z" fill="#1C221F"/>
<path d="M1022.48 1H1021.15V16H1022.48V1Z" fill="#1D2522"/>
<path d="M1023.32 1H1021.99V16H1023.32V1Z" fill="#263730"/>
<path d="M1024.16 1H1022.83V16H1024.16V1Z" fill="#2C4339"/>
<path d="M1025 1H1023.67V16H1025V1Z" fill="#222F29"/>
<rect x="0.5" y="0.5" width="1025" height="16" stroke="#717171"/>
<path d="M719 17L716.113 22L721.887 22L719 17ZM718.5 18.35L718.5 19.25L719.5 19.25L719.5 18.35L718.5 18.35ZM718.5 20.15L718.5 21.05L719.5 21.05L719.5 20.15L718.5 20.15ZM718.5 21.95L718.5 22.85L719.5 22.85L719.5 21.95L718.5 21.95ZM718.5 23.75L718.5 24.65L719.5 24.65L719.5 23.75L718.5 23.75ZM718.5 25.55L718.5 26L719.5 26L719.5 25.55L718.5 25.55Z" fill="white"/>
<path d="M716.53 38H722.362V36.548H720.586V29.624H717.826L715.822 32.264L716.974 33.164L718.678 30.932H718.786V36.548H716.53V38Z" fill="white"/>
<path d="M766 17L763.113 22L768.887 22L766 17ZM765.5 18.35L765.5 19.25L766.5 19.25L766.5 18.35L765.5 18.35ZM765.5 20.15L765.5 21.05L766.5 21.05L766.5 20.15L765.5 20.15ZM765.5 21.95L765.5 22.85L766.5 22.85L766.5 21.95L765.5 21.95ZM765.5 23.75L765.5 24.65L766.5 24.65L766.5 23.75L765.5 23.75ZM765.5 25.55L765.5 26L766.5 26L766.5 25.55L765.5 25.55Z" fill="white"/>
<path d="M765.69 38.144C767.586 38.144 768.87 37.172 768.87 35.672C768.87 34.52 768.126 33.836 767.13 33.656V33.584C767.994 33.428 768.726 32.768 768.726 31.7C768.726 30.356 767.562 29.48 765.762 29.48C764.322 29.48 763.506 30.056 762.87 30.884L763.998 31.94C764.418 31.304 765.03 30.944 765.702 30.944C766.41 30.944 766.83 31.352 766.83 31.952V32.036C766.83 32.552 766.434 32.936 765.546 32.936H764.766V34.436H765.522C766.434 34.436 766.986 34.784 766.986 35.468V35.54C766.986 36.236 766.506 36.68 765.69 36.68C764.79 36.68 764.286 36.188 763.926 35.504L762.594 36.536C763.134 37.388 763.986 38.144 765.69 38.144Z" fill="white"/>
<path d="M861 17L858.113 22L863.887 22L861 17ZM860.5 18.35L860.5 19.25L861.5 19.25L861.5 18.35L860.5 18.35ZM860.5 20.15L860.5 21.05L861.5 21.05L861.5 20.15L860.5 20.15ZM860.5 21.95L860.5 22.85L861.5 22.85L861.5 21.95L860.5 21.95ZM860.5 23.75L860.5 24.65L861.5 24.65L861.5 23.75L860.5 23.75ZM860.5 25.55L860.5 26L861.5 26L861.5 25.55L860.5 25.55Z" fill="white"/>
<path d="M858.086 38H864.014V36.488H860.054L861.614 35.264C862.814 34.316 863.846 33.44 863.846 32C863.846 30.548 862.802 29.48 860.99 29.48C859.25 29.48 858.278 30.452 857.906 31.616L859.478 32.216C859.646 31.58 860.03 31.04 860.822 31.04C861.362 31.04 861.926 31.364 861.926 32V32.168C861.926 32.876 861.602 33.344 860.666 34.148L858.086 36.356V38Z" fill="white"/>
<path d="M843 17L840.113 22L845.887 22L843 17ZM842.5 18.35L842.5 19.25L843.5 19.25L843.5 18.35L842.5 18.35ZM842.5 20.15L842.5 21.05L843.5 21.05L843.5 20.15L842.5 20.15ZM842.5 21.95L842.5 22.85L843.5 22.85L843.5 21.95L842.5 21.95ZM842.5 23.75L842.5 24.65L843.5 24.65L843.5 23.75L842.5 23.75ZM842.5 25.55L842.5 26L843.5 26L843.5 25.55L842.5 25.55Z" fill="white"/>
<path d="M843.446 38H845.162V36.392H846.218V35H845.162V29.624H843.026L839.762 34.856V36.392H843.446V38ZM841.202 35L843.326 31.484H843.446V35H841.202Z" fill="white"/>
<path d="M990 17L987.113 22L992.887 22L990 17ZM989.5 18.35L989.5 19.25L990.5 19.25L990.5 18.35L989.5 18.35ZM989.5 20.15L989.5 21.05L990.5 21.05L990.5 20.15L989.5 20.15ZM989.5 21.95L989.5 22.85L990.5 22.85L990.5 21.95L989.5 21.95ZM989.5 23.75L989.5 24.65L990.5 24.65L990.5 23.75L989.5 23.75ZM989.5 25.55L989.5 26L990.5 26L990.5 25.55L989.5 25.55Z" fill="white"/>
<path d="M989.942 38.144C992.006 38.144 993.158 36.884 993.158 35.18C993.158 33.5 992.006 32.516 990.578 32.516C989.51 32.516 989.114 33.056 988.778 33.848H988.682L988.862 31.196H992.666V29.624H987.542L987.23 34.364L988.706 34.568C988.922 34.316 989.354 33.98 990.002 33.98C990.782 33.98 991.262 34.46 991.262 35.228V35.324C991.262 36.14 990.818 36.68 989.954 36.68C989.09 36.68 988.622 36.152 988.262 35.504L986.954 36.536C987.458 37.388 988.322 38.144 989.942 38.144Z" fill="white"/>
</svg>
